<?xml version="1.0" encoding="utf-8"?>
<!-- Generator: Adobe Illustrator 26.1.0, SVG Export Plug-In . SVG Version: 6.00 Build 0)  -->
<svg version="1.1" id="Layer_1" xmlns="http://www.w3.org/2000/svg" xmlns:xlink="http://www.w3.org/1999/xlink" x="0px" y="0px"
	 viewBox="0 0 1920 1080" style="enable-background:new 0 0 1920 1080;" xml:space="preserve">
<style type="text/css">
	.st0{fill:#FDFDFD;}
	.st1{fill:#070C0E;}
	.st2{fill:#FCFCFC;}
	.st3{fill:#30BCFA;}
	.st4{fill:#26353C;}
	.st5{fill:#2B799B;}
</style>
<g>
	<g>
		<path class="st0" d="M977.99,380.1c19.32,0,38.63,0.05,57.95-0.07c2.5-0.02,3.06,0.57,3.06,3.06
			c-0.07,104.27-0.07,208.54,0,312.81c0,2.5-0.56,3.08-3.06,3.06c-20.31-0.12-40.63-0.07-60.94-0.07c0.92-1.91,2.62-0.74,3.95-0.95
			c8.26-1.3,16.65-0.74,24.95-1.94c8.75-1.26,15.23-4.45,16.67-14.2c0.61-4.11,2.11-8.09,3-12.17c2.93-13.41,5.37-26.82,5.55-40.68
			c0.23-17.76-1.9-35.37-2.23-53.07c-0.16-8.44-0.72-16.88-0.83-25.32c-0.15-11.08-0.04-22.16-0.04-33.4
			c2.76,0.67,5.11,1.4,7.52,1.79c2.6,0.42,4.29-0.12,4.55-3.51c0.4-5.16-1.82-7.94-6.46-9.5c-2.13-0.71-5.5-0.72-5.52-3.67
			c-0.07-10.94-1.33-22.23,0.93-32.73c2.71-12.61,2.23-24.97,1.81-37.49c-0.08-2.48-0.5-5.18-1.16-7.67
			c-6.16-23.3-22.03-36.42-44.7-42.27C981.17,381.68,978.85,382.77,977.99,380.1z"/>
		<path class="st1" d="M977.99,380.1c0.85,2.66,3.18,1.58,4.96,2.04c22.67,5.84,38.54,18.96,44.7,42.27
			c0.66,2.49,1.07,5.19,1.16,7.67c0.42,12.51,0.9,24.87-1.81,37.49c-2.26,10.5-1,21.79-0.93,32.73c0.02,2.94,3.39,2.95,5.52,3.67
			c4.65,1.56,6.86,4.34,6.46,9.5c-0.26,3.38-1.95,3.93-4.55,3.51c-2.41-0.39-4.76-1.12-7.52-1.79c0,11.25-0.11,22.33,0.04,33.4
			c0.11,8.44,0.68,16.88,0.83,25.32c0.33,17.71,2.47,35.32,2.23,53.07c-0.18,13.85-2.62,27.27-5.55,40.68
			c-0.89,4.08-2.39,8.05-3,12.17c-1.44,9.75-7.92,12.94-16.67,14.2c-8.3,1.19-16.69,0.64-24.95,1.94c-1.32,0.21-3.03-0.96-3.95,0.95
			c-11.66,0-23.31,0-34.97,0c-1.3-2.05-3.29-0.7-4.94-0.94c-9.04-1.33-18.33-0.75-27.13-3.97c-3.7-1.36-5.81-3.47-7.11-7.34
			c-8.9-26.34-11.49-53.44-9.51-80.95c1.97-27.35,2.68-54.7,2.71-82.1c0.01-7.21,0.12-6.55-6.02-4.75
			c-3.26,0.96-5.69,0.74-6.93-2.84c0-1.67,0-3.33,0-5c2.71-3.08,6.1-5.04,9.96-6.35c1.23-0.42,3.06-0.36,3.02-2.59
			c-0.19-10.63,1.45-21.67-0.9-31.79c-2.74-11.79-2.95-23.25-2.25-34.99c1.6-26.75,17.37-45.65,43.5-52.54
			c2.55-0.67,5.71-0.02,7.62-2.66C954.02,380.1,966,380.1,977.99,380.1z M1023.74,556.8c0-11.49-0.01-22.98,0-34.47
			c0.01-8.16,0.01-8.08,8.08-6.55c1.24,0.24,3.32,2.06,4.09-0.74c0.58-2.11,0.08-4.1-1.97-5.14c-2.21-1.12-4.52-2.13-6.89-2.8
			c-2.75-0.77-3.48-2.32-3.37-5.06c0.22-5.65,0.05-11.32,0.09-16.99c0.04-5.66-1.23-11.79,0.53-16.87
			c3.92-11.33,3.02-22.72,2.31-34.08c-0.57-9.15-3.61-17.84-8.53-25.77c-1.68-2.71-3.5-4.21-6.96-4.63
			c-8.73-1.06-16.1-4.42-18.1-14.27c-0.39-1.91-1.97-2.05-3.37-2.47c-19.82-5.98-39.64-5.65-59.44,0.08
			c-1.43,0.41-2.88,0.73-3.27,2.6c-2.01,9.59-9.21,13.04-17.76,14c-3.94,0.44-5.89,2.38-7.61,5.31
			c-6.41,10.91-8.73,22.78-8.87,35.33c-0.1,9.04,2.01,17.69,3.22,26.51c1.43,10.46,0.25,21.27,0.4,31.93
			c0.04,2.5-1.01,3.53-3.1,4.24c-2.35,0.8-4.7,1.66-6.92,2.75c-2.26,1.11-2.93,3.2-2.13,5.49c0.91,2.59,2.83,0.56,4.22,0.54
			c1.62-0.02,3.29-0.53,4.82-1.14c2.59-1.03,3.08-0.03,3.1,2.4c0.28,26.31,0.85,52.65-1.64,78.87c-2.68,28.12-0.82,55.62,6.33,83.05
			c2.65,10.16,8.03,13.94,17.27,14.83c0.33,0.03,0.66,0.06,0.99,0.11c20.69,3.11,41.49,2.71,62.28,1.86
			c9.63-0.4,19.26-1.15,28.59-3.88c2.76-0.81,5.38-1.83,6.3-5.01c6.4-22.29,11.44-44.73,10.14-68.21
			C1025.43,598.03,1023.57,577.46,1023.74,556.8z"/>
		<path class="st2" d="M881.08,516.02c1.24,3.57,3.67,3.8,6.93,2.84c6.14-1.8,6.03-2.46,6.02,4.75c-0.02,27.39-0.73,54.75-2.71,82.1
			c-1.99,27.51,0.61,54.62,9.51,80.95c1.31,3.87,3.41,5.98,7.11,7.34c8.8,3.23,18.09,2.64,27.13,3.97c1.65,0.24,3.64-1.11,4.94,0.94
			c-18.48,0-36.97-0.09-55.45,0.09c-2.98,0.03-3.59-0.6-3.58-3.59C881.11,635.62,881.08,575.82,881.08,516.02z"/>
		<path class="st2" d="M942.03,380.1c-1.91,2.64-5.06,1.98-7.62,2.66c-26.13,6.89-41.89,25.79-43.5,52.54
			c-0.7,11.75-0.49,23.2,2.25,34.99c2.35,10.12,0.71,21.16,0.9,31.79c0.04,2.22-1.79,2.17-3.02,2.59c-3.86,1.31-7.25,3.27-9.96,6.35
			c0-42.36,0.03-84.73-0.06-127.09c-0.01-2.9,0.36-3.97,3.71-3.93C903.83,380.21,922.93,380.1,942.03,380.1z"/>
		<path class="st3" d="M1023.74,556.8c-0.17,20.66,1.69,41.23,2.83,61.84c1.3,23.48-3.74,45.92-10.14,68.21
			c-0.91,3.18-3.54,4.2-6.3,5.01c-9.33,2.73-18.96,3.49-28.59,3.88c-20.8,0.85-41.6,1.25-62.28-1.86c-0.33-0.05-0.66-0.08-0.99-0.11
			c-9.24-0.89-14.62-4.67-17.27-14.83c-7.15-27.43-9.01-54.93-6.33-83.05c2.5-26.22,1.93-52.56,1.64-78.87
			c-0.03-2.43-0.51-3.43-3.1-2.4c-1.53,0.61-3.2,1.11-4.82,1.14c-1.39,0.02-3.31,2.05-4.22-0.54c-0.8-2.29-0.13-4.38,2.13-5.49
			c2.22-1.09,4.57-1.95,6.92-2.75c2.1-0.72,3.14-1.74,3.1-4.24c-0.16-10.66,1.03-21.47-0.4-31.93c-1.21-8.82-3.32-17.46-3.22-26.51
			c0.14-12.55,2.45-24.42,8.87-35.33c1.72-2.93,3.67-4.87,7.61-5.31c8.56-0.95,15.75-4.41,17.76-14c0.39-1.86,1.84-2.18,3.27-2.6
			c19.81-5.72,39.62-6.06,59.44-0.08c1.4,0.42,2.98,0.56,3.37,2.47c1.99,9.85,9.36,13.21,18.1,14.27c3.45,0.42,5.28,1.92,6.96,4.63
			c4.92,7.93,7.95,16.62,8.53,25.77c0.71,11.37,1.61,22.75-2.31,34.08c-1.76,5.07-0.48,11.21-0.53,16.87
			c-0.04,5.66,0.13,11.33-0.09,16.99c-0.11,2.74,0.62,4.29,3.37,5.06c2.38,0.67,4.69,1.67,6.89,2.8c2.05,1.04,2.55,3.03,1.97,5.14
			c-0.77,2.8-2.85,0.98-4.09,0.74c-8.07-1.53-8.07-1.61-8.08,6.55C1023.73,533.82,1023.74,545.31,1023.74,556.8z M917.87,632.08
			c2.91-4.56-1.44-3.39-3.31-4.76c-2.47-1.82-3.07,0.4-3.76,1.22c-1.3,1.53-0.92,3.07,1.44,3.43c-1.33,2.22-2.48,5.01-0.11,6.63
			c2.24,1.53,4.7-0.86,6.63-2.1C921.3,634.86,918.44,633.53,917.87,632.08z M1008.78,637.73c0.89-3.13-1.36-6.06-0.17-9.52
			c0.69-2-2.92-1.78-4.66-2.05c-1.63-0.25-2.49,0.97-1.6,2.55c1.31,2.34-0.94,3.48-1.51,5.18c-1.42,1.8-1.35,3.58,1.02,4.01
			C1004.09,638.31,1006.64,642.06,1008.78,637.73z M1004.07,612.9c-0.29,2.23-0.25,3.76,2.7,2.07c6.15-3.53,10.47-13.37,9.06-21.07
			c0.24-24.93,0.49-49.86,0.73-74.78c0.5-4.29,0.68-8.55-0.44-12.84c-2.45,3.77-4.43,7.51-5.07,11.8
			c-1.76,5.85-4.06,11.58-3.91,17.86c-0.08,0.35-0.15,0.7-0.23,1.05c-2.54,8.04-3.41,16.44-3.73,24.7
			C1002.52,578.75,1001.89,595.86,1004.07,612.9z M916.99,597.93c0.95-19.72-0.32-39.32-3.06-58.84c-1.7-9.64-3.57-19.23-7.5-28.28
			c-0.48-1.1-0.82-2.46-2.13-2.35c-1.61,0.14-1.16,1.74-1.15,2.78c0.03,1.97,0.27,3.93,0.42,5.9c1.36,25.61-0.87,51.19-0.38,76.8
			c1.05,8.98,2.8,17.55,12.65,22.29C916.16,609.7,917.42,603.88,916.99,597.93z M1001.39,433.71c-0.65-2.36-3.16-1.87-4.75-3.54
			c0.34,2.95,2.51,3.24,4.05,4.21c3.76,2.37,2.19,8.46,7.05,10.13c0.26,0.09,0.14,1.25,0.22,1.91c1.15,8.72,2.28,17.43,2.09,26.26
			c-0.03,1.3-0.68,3.11,1.51,3.62c0.85-1.43,0.44-2.96,0.47-4.42c0.21-10.99-1.2-21.86-3.16-32.62
			c-2.53-13.91-5.79-27.64-13.75-39.69c-5.07-7.69-12.93-10.08-22.59-12.2c10.15,23.54,18.05,46.36,25.38,69.43
			c-1.77-9.43-4.57-18.52-7.32-27.63c-0.6-1.98-2.06-3.9-0.66-6.11c3.78-0.1,7.06,0.75,8.98,4.47c0.44,0.85,1.28,1.78,2.4,1.28
			c1.17-0.52,0.79-1.74,0.46-2.61c-1.42-3.78-3.09-7.62-6.96-9.33c-2.41-1.06-5.97-2.96-6.74,2.19
			c-4.45-8.99-8.06-18.32-11.23-27.83l0.32-0.32c6.95,1.22,12.76,4.2,16.63,10.4c5.59,8.94,8.82,18.78,11.17,28.96
			c0.51,2.22,1.78,4.43,0.09,7.7C1005.38,434.38,1003.44,433.98,1001.39,433.71z M942.83,390.89l0.34,0.34
			c-3.32,9.45-6.43,18.98-11.23,27.83c-0.07-4.14-3.12-3.25-5.34-2.81c-4.82,0.97-8.95,8.13-7.71,14.26
			c2.85-4.43,5.19-9.14,11.14-7.18c0.99,1.5,0.05,2.91-0.34,4.26c-1.98,6.85-4.1,13.65-6.1,20.49c-0.82,2.8-1.44,5.65-2.16,8.47
			c0.56,0.14,1.12,0.28,1.69,0.42c6.1-23.45,14.45-46.13,24.18-69.41c-11.63,2.07-20.07,6.25-25.08,16.11
			c-9.77,19.23-12.55,40.04-14.1,61.13c-0.28,3.78-0.63,7.68,0.31,11.66c2.02-1,1.58-2.49,1.55-3.71
			c-0.2-8.83,0.93-17.55,2.04-26.27c0.22-1.72,0.4-2.87,2.36-3.77c1.82-0.84,3.18-2.82,4.51-4.48c0.44-0.55,3.01-0.73,0.69-2.55
			c-1.26-0.99-1.93-2.16-3.63-1.07c-0.8,0.51-0.72,2.13-2.34,2.03c2.28-11.59,5.39-22.52,10.92-32.7
			C928.56,396.52,934.61,392.25,942.83,390.89z M953.09,672.79c4.61,0.5,9.22,0.51,13.82,0c5.9-0.25,11.73-1.5,16.63-4.57
			c6.36-3.98,12.63-8.29,12.95-17.36c0.22-6.38,1.9-12.7,2.73-19.08c0.87-6.64-2.51-10.6-9.24-10.63c-19.96-0.09-39.91-0.09-59.87,0
			c-6.82,0.03-10.06,3.63-9.34,10.51c0.64,6.08,1.06,12.33,2.85,18.11c1.17,3.77,0.3,7.92,3.4,11.49
			C934.05,669.34,943.31,671.45,953.09,672.79z M970.92,459.21c-7.27-0.48-14.54-0.48-21.8,0c-6.74-0.12-13.24,1.73-19.3,4.09
			c-9.38,3.65-18.6,8.83-20.27,19.93c-1.46,9.73,1.6,19.36,4.81,28.53c0.96,2.73,1.59,6.39,4.73,8.17c1.85,2.09,4.32,2.15,6.85,2.15
			c22.7-0.01,45.41-0.01,68.11,0c2.52,0,4.99-0.11,6.87-2.14c2.8-1.36,3.88-4.07,4.72-6.68c2.75-8.53,4.34-17.36,5.26-26.24
			c0.64-6.18-2.12-11.8-7.01-15.22C994.05,464.92,983.44,459.38,970.92,459.21z M905.18,508.15c-0.47-0.45-0.71-0.79-1.04-0.94
			c-0.14-0.07-0.67,0.24-0.67,0.37c0.01,0.38,0.2,0.75,0.33,1.12C904.18,508.54,904.55,508.39,905.18,508.15z"/>
		<path class="st4" d="M919.1,519.94c-3.14-1.78-3.78-5.44-4.73-8.17c-3.21-9.17-6.27-18.8-4.81-28.53
			c1.66-11.11,10.89-16.28,20.27-19.93c6.06-2.36,12.55-4.21,19.3-4.09c7.27,1.32,14.54,1.33,21.8,0
			c12.52,0.18,23.13,5.72,32.98,12.6c4.89,3.42,7.65,9.03,7.01,15.22c-0.92,8.88-2.51,17.71-5.26,26.24
			c-0.84,2.61-1.92,5.33-4.72,6.68c-3.87-0.26-7.48,1.36-11.44,1.22C966.03,520.31,942.53,522.38,919.1,519.94z"/>
		<path class="st4" d="M953.09,672.79c-9.78-1.34-19.04-3.45-26.05-11.54c-3.1-3.57-2.23-7.72-3.4-11.49
			c-1.79-5.78-2.22-12.02-2.85-18.11c-0.72-6.87,2.51-10.48,9.34-10.51c19.96-0.08,39.91-0.09,59.87,0
			c6.72,0.03,10.11,3.99,9.24,10.63c-0.83,6.37-2.51,12.7-2.73,19.08c-0.32,9.08-6.59,13.38-12.95,17.36
			c-4.9,3.06-10.73,4.32-16.63,4.57C962.31,671.47,957.7,671.48,953.09,672.79z"/>
		<path class="st4" d="M903.57,517.13c-0.15-1.97-0.39-3.93-0.42-5.9c-0.01-1.03-0.46-2.63,1.15-2.78c1.31-0.12,1.65,1.25,2.13,2.35
			c3.93,9.05,5.8,18.64,7.5,28.28c-1.75,2.81-0.85,5.77-0.38,8.65c1.7,10.33,1.14,20.84,2.47,31.2c0.21,1.59-0.11,2.97-2.27,3.04
			c-4.89,0.14-8.71-3.56-8.71-8.62c-0.01-17.16,0.03-34.31-0.05-51.47C904.98,520.27,906.1,518.08,903.57,517.13z"/>
		<path class="st4" d="M1006.9,536.99c0.08-0.35,0.15-0.7,0.23-1.05c2.87-0.63,1.95-3.3,2.08-4.85c0.35-4.39,3.74-8.34,1.83-13
			c0.64-4.29,2.61-8.03,5.07-11.8c1.12,4.29,0.95,8.56,0.44,12.84c-2.61,0.85-1.52,3.06-1.53,4.66
			c-0.09,14.14-0.06,28.27-0.06,42.41c0,3.16,0.16,6.33-0.03,9.48c-0.18,3.11-4.62,6.4-8.48,6.2c-4.34-0.23-2.48-3.81-2.37-5.74
			c0.66-11.55,1.27-23.11,3.44-34.51C1007.85,540,1008.44,538.35,1006.9,536.99z"/>
		<path class="st5" d="M942.83,390.89c-8.23,1.36-14.27,5.63-18.3,13.04c-5.53,10.18-8.64,21.11-10.92,32.7
			c1.62,0.1,1.54-1.52,2.34-2.03c1.71-1.09,2.38,0.08,3.63,1.07c2.32,1.82-0.25,2-0.69,2.55c-1.33,1.66-2.69,3.64-4.51,4.48
			c-1.95,0.9-2.14,2.05-2.36,3.77c-1.11,8.73-2.25,17.44-2.04,26.27c0.03,1.22,0.47,2.71-1.55,3.71c-0.94-3.98-0.59-7.88-0.31-11.66
			c1.55-21.09,4.33-41.9,14.1-61.13c5.01-9.85,13.45-14.04,25.08-16.11c-9.73,23.28-18.08,45.95-24.18,69.41
			c-0.56-0.14-1.12-0.28-1.69-0.42c0.71-2.83,1.34-5.68,2.16-8.47c2-6.84,4.13-13.64,6.1-20.49c0.39-1.35,1.33-2.76,0.34-4.26
			c0.01-0.42,0.02-0.84,0.02-1.26c2.09-0.1,2.09-1.53,1.96-3.05l-0.07,0.04c4.8-8.85,7.91-18.38,11.23-27.83
			c0.11-0.22,0.23-0.43,0.34-0.65C943.29,390.68,943.06,390.78,942.83,390.89z"/>
		<path class="st5" d="M976.86,391.22c3.17,9.51,6.79,18.84,11.23,27.83c0,0-0.08-0.04-0.08-0.04c-0.15,1.33,0.02,2.57,1.12,3.5
			c0.32,0.11,0.59,0.28,0.82,0.53c-1.4,2.21,0.06,4.13,0.66,6.11c2.74,9.11,5.54,18.2,7.32,27.63
			c-7.33-23.06-15.23-45.89-25.38-69.43c9.66,2.12,17.52,4.51,22.59,12.2c7.95,12.05,11.22,25.78,13.75,39.69
			c1.96,10.77,3.37,21.63,3.16,32.62c-0.03,1.47,0.38,2.99-0.47,4.42c-2.19-0.51-1.54-2.32-1.51-3.62
			c0.19-8.83-0.94-17.54-2.09-26.26c-0.09-0.66,0.04-1.82-0.22-1.91c-4.86-1.67-3.29-7.76-7.05-10.13c0.22-0.23,0.46-0.46,0.7-0.67
			c2.04,0.27,3.98,0.68,3.67,4.25c1.7-3.27,0.43-5.48-0.09-7.7c-2.35-10.18-5.58-20.02-11.17-28.96
			c-3.87-6.19-9.68-9.18-16.63-10.39c-0.22-0.1-0.44-0.21-0.66-0.32C976.63,390.8,976.74,391.01,976.86,391.22z"/>
		<path class="st4" d="M916.99,597.93c0.43,5.96-0.83,11.78-1.15,18.29c-9.84-4.74-11.59-13.32-12.65-22.29
			c4.24-2.57,0.11-7.13,2.39-10.13c7.02,1.19,12.63,3.56,10.54,12.48C916.02,596.73,916.68,597.37,916.99,597.93z"/>
		<path class="st4" d="M1015.83,593.9c1.41,7.69-2.92,17.54-9.06,21.07c-2.95,1.69-2.98,0.16-2.7-2.07c1.53-1.31,0.75-3.08,0.9-4.66
			c0.54-5.97-0.98-11.82-0.99-17.75c0-1.82-0.21-4.17,2.21-4.28c3.08-0.15,5.48-2.19,8.41-2.53
			C1015.94,587.06,1013.85,590.72,1015.83,593.9z"/>
		<path class="st1" d="M1015.83,593.9c-1.98-3.18,0.11-6.84-1.24-10.23c-2.93,0.35-5.33,2.39-8.41,2.53
			c-2.43,0.11-2.22,2.47-2.21,4.28c0.01,5.94,1.53,11.79,0.99,17.75c-0.14,1.58,0.63,3.34-0.9,4.66
			c-2.18-17.03-1.54-34.15-0.89-51.21c0.32-8.26,1.19-16.67,3.73-24.7c1.54,1.36,0.95,3.01,0.64,4.63
			c-2.17,11.4-2.78,22.97-3.44,34.51c-0.11,1.93-1.97,5.51,2.37,5.74c3.87,0.2,8.3-3.09,8.48-6.2c0.19-3.15,0.03-6.32,0.03-9.48
			c0-14.14-0.03-28.27,0.06-42.41c0.01-1.61-1.09-3.82,1.53-4.66C1016.32,544.05,1016.07,568.97,1015.83,593.9z"/>
		<path class="st1" d="M916.99,597.93c-0.31-0.56-0.98-1.2-0.87-1.66c2.09-8.92-3.52-11.28-10.54-12.48
			c-2.27,3.01,1.86,7.56-2.39,10.13c-0.49-25.6,1.74-51.19,0.38-76.8c2.52,0.95,1.41,3.14,1.42,4.75
			c0.08,17.16,0.04,34.31,0.05,51.47c0,5.06,3.82,8.76,8.71,8.62c2.16-0.06,2.48-1.44,2.27-3.04c-1.34-10.36-0.77-20.87-2.47-31.2
			c-0.47-2.88-1.37-5.84,0.38-8.65C916.67,558.61,917.94,578.21,916.99,597.93z"/>
		<path class="st1" d="M919.1,519.94c23.43,2.45,46.93,0.37,70.38,1.23c3.97,0.14,7.57-1.48,11.44-1.22
			c-1.88,2.02-4.35,2.14-6.87,2.14c-22.7-0.01-45.41-0.01-68.11,0C923.42,522.09,920.95,522.03,919.1,519.94z"/>
		<path class="st4" d="M989.95,423.04c-0.23-0.25-0.5-0.42-0.82-0.53c1.75-1.89,4.23-1.06,6.9-1.77c-2.65-2.24-4.95-3.6-8.02-1.73
			c0,0,0.08,0.04,0.08,0.04c0.77-5.15,4.33-3.26,6.74-2.19c3.87,1.71,5.54,5.55,6.96,9.33c0.33,0.87,0.71,2.08-0.46,2.61
			c-1.11,0.5-1.95-0.43-2.4-1.28C997.01,423.79,993.73,422.94,989.95,423.04z"/>
		<path class="st4" d="M930.05,422.06c-0.01,0.42-0.02,0.84-0.02,1.26c-5.95-1.96-8.29,2.75-11.14,7.18
			c-1.24-6.13,2.89-13.29,7.71-14.26c2.22-0.45,5.26-1.33,5.34,2.81c0,0,0.07-0.04,0.07-0.04c-3.07-1.84-5.38-0.57-7.71,1.69
			C926.3,421.71,928.53,420.33,930.05,422.06z"/>
		<path class="st4" d="M1000.84,633.89c0.57-1.7,2.82-2.84,1.51-5.18c-0.88-1.58-0.03-2.8,1.6-2.55c1.74,0.27,5.35,0.05,4.66,2.05
			c-1.19,3.46,1.06,6.39,0.17,9.52C1006.14,636.45,1003.49,635.17,1000.84,633.89z"/>
		<path class="st4" d="M917.87,632.08c0.58,1.45,3.44,2.78,0.89,4.42c-1.93,1.24-4.39,3.63-6.63,2.1c-2.37-1.62-1.22-4.41,0.1-6.63
			C914.11,632,915.99,632.04,917.87,632.08z"/>
		<path class="st5" d="M917.87,632.08c-1.88-0.04-3.75-0.08-5.63-0.11c-2.36-0.36-2.74-1.9-1.44-3.43c0.69-0.81,1.29-3.04,3.76-1.22
			C916.42,628.69,920.78,627.52,917.87,632.08z"/>
		<path class="st1" d="M1011.05,518.08c1.91,4.66-1.48,8.62-1.83,13c-0.13,1.56,0.79,4.22-2.08,4.85
			C1006.98,529.66,1009.29,523.93,1011.05,518.08z"/>
		<path class="st5" d="M1000.84,633.89c2.65,1.28,5.3,2.56,7.94,3.84c-2.14,4.32-4.7,0.57-6.92,0.17
			C999.49,637.48,999.42,635.69,1000.84,633.89z"/>
		<path class="st1" d="M970.92,459.21c-7.27,1.33-14.54,1.33-21.8,0C956.38,458.73,963.65,458.73,970.92,459.21z"/>
		<path class="st1" d="M953.09,672.79c4.61-1.31,9.22-1.32,13.82,0C962.31,673.29,957.7,673.29,953.09,672.79z"/>
		<path class="st5" d="M1000.69,434.38c-1.54-0.97-3.71-1.26-4.05-4.21c1.59,1.67,4.09,1.18,4.75,3.54
			C1001.15,433.92,1000.92,434.14,1000.69,434.38z"/>
		<path class="st4" d="M905.18,508.15c-0.63,0.25-1,0.39-1.38,0.54c-0.12-0.37-0.31-0.74-0.33-1.12c0-0.13,0.52-0.44,0.67-0.37
			C904.47,507.36,904.71,507.7,905.18,508.15z"/>
		<path class="st3" d="M930.05,422.06c-1.52-1.73-3.76-0.35-5.75-1.37c2.33-2.25,4.64-3.53,7.71-1.69
			C932.14,420.53,932.14,421.97,930.05,422.06z"/>
		<path class="st3" d="M942.83,390.89c0.23-0.1,0.45-0.21,0.68-0.31c-0.11,0.22-0.23,0.43-0.34,0.65
			C943.17,391.23,942.83,390.89,942.83,390.89z"/>
		<path class="st3" d="M988.01,419.01c3.07-1.87,5.36-0.51,8.02,1.73c-2.67,0.71-5.15-0.12-6.9,1.77
			C988.03,421.57,987.86,420.34,988.01,419.01z"/>
		<path class="st3" d="M976.86,391.22c-0.11-0.21-0.23-0.42-0.34-0.63c0.22,0.11,0.44,0.21,0.66,0.32
			C977.17,390.9,976.86,391.22,976.86,391.22z"/>
	</g>
</g>
</svg>
