<?xml version="1.0" encoding="utf-8"?>
<!-- Generator: Adobe Illustrator 26.1.0, SVG Export Plug-In . SVG Version: 6.00 Build 0)  -->
<svg version="1.1" id="Layer_1" xmlns="http://www.w3.org/2000/svg" xmlns:xlink="http://www.w3.org/1999/xlink" x="0px" y="0px" width="158" height="319"
	 viewBox="0 0 158 319" style="enable-background:new 0 0 158 319;" xml:space="preserve">
<style type="text/css">
	.st0{fill:#26353C;}
	.st1{fill:#4EB9E8;}
</style>
<g>
	<g>
		<path class="st0" d="M0.99,132.58c3.25-4.06,7.88-5.87,12.82-7.59c-0.11-14.59-0.85-28.89-2.86-43.41
			C7.83,59,9.21,36.39,27.35,18.92C38.66,8.03,52.73,3.29,67.99,2.18c9.04-0.66,18.21-1,27.23,0.51c13.87,2.32,27,6.89,37.07,17.07
			c10.1,10.21,15.58,23,15.67,37.48c0.04,6.14,1.43,12.08,0.45,18.49c-2.31,15.05-4.23,30.26-3.28,45.61
			c0.08,1.31,0.01,2.64,0.01,3.9c2.26,0.61,3.98,1.81,6.03,2.45c4.3,1.35,6.47,4.33,6.02,9.31c-0.31,3.31-1.87,3.98-4.5,3.58
			c-2.4-0.37-4.75-1.05-7.33-1.64c0,11.42-0.06,22.78,0.02,34.13c0.04,5.23,0.51,10.46,0.49,15.68c-0.07,20.68,2.7,41.23,2.38,61.94
			c-0.21,13.65-2.62,26.86-5.45,40.07c-0.91,4.22-2.4,8.41-3.11,12.59c-1.64,9.73-8.02,12.86-16.49,13.69
			c-8.43,0.82-16.88,1.34-25.32,2.06c-1.18,0.1-2.7-0.8-3.48,0.91c-11.59,0-23.19,0-34.78,0c-0.6-1.56-1.95-0.82-2.98-0.92
			c-7.3-0.7-14.68-0.93-21.89-2.16c-5.24-0.9-11.75-1.13-13.72-7.58c-5.2-16.99-9.86-34.17-10.11-52.12
			c-0.2-14.25-0.27-28.5,0.92-42.74c1.36-16.19,1.33-32.43,1.72-48.65c0.21-8.71,0.75-17.42-0.13-25.92
			c-2.54-0.94-4.46,0.08-6.19,0.76c-3.47,1.36-5.15-0.08-6.25-3.1C0.99,135.91,0.99,134.25,0.99,132.58z M15.99,135.42
			c0.63,27.48,1.31,54.57-1.38,81.49c-2.96,29.59-0.76,58.46,7.47,86.99c1.56,5.42,4.27,8.68,9.7,9.63
			c4.86,0.85,9.73,1.76,14.63,2.32c17.15,1.98,34.37,1.5,51.58,1.03c10.56-0.28,21.1-1.12,31.35-3.99c2.75-0.77,5.32-1.84,6.22-5.01
			c6.47-22.84,11.6-45.78,9.92-69.87c-2.12-30.46-3.81-60.97-2.65-91.54c0.14-3.58,0.02-7.17,0.02-11.06
			c4.32,0.98,7.96,1.8,11.62,2.63c0.91-5.28,0.7-5.68-3.94-7.62c-7.67-3.21-7.67-3.21-7.67-11.45c0-1.33-0.01-2.66,0-3.99
			c0.05-8.3-1.57-17.07,0.57-24.79c2.93-10.58,2.77-20.97,2.43-31.5c-0.33-10.21-3.33-19.81-8.74-28.59
			c-1.55-2.51-3.19-3.98-6.48-4.39c-8.78-1.12-16.37-4.34-18.4-14.39c-0.33-1.64-1.58-1.91-2.87-2.3
			C89.53,3.03,69.7,3.27,49.87,9.01c-1.44,0.42-2.79,0.75-3.19,2.62c-2.09,9.76-9.55,12.98-18.14,14.06
			c-3.49,0.44-5.18,2.05-6.8,4.7c-9.99,16.37-10.71,34.36-7.73,52.4c1.25,7.55,2.06,14.95,2.1,22.52c0.02,4.32,0,8.64,0,12.96
			c0,8.94,0.06,9.11-7.96,12.2c-3.91,1.51-5.08,3.69-3.6,7.61C8.22,137.22,11.74,136.4,15.99,135.42z"/>
		<path class="st1" d="M15.99,135.42c-4.25,0.99-7.76,1.8-11.43,2.65c-1.48-3.92-0.31-6.11,3.6-7.61c8.02-3.09,7.96-3.26,7.96-12.2
			c0-4.32,0.02-8.64,0-12.96c-0.04-7.57-0.86-14.97-2.1-22.52c-2.98-18.04-2.26-36.03,7.73-52.4c1.62-2.66,3.31-4.27,6.8-4.7
			c8.59-1.08,16.05-4.3,18.14-14.06c0.4-1.87,1.75-2.2,3.19-2.62c19.84-5.74,39.67-5.98,59.5,0.01c1.29,0.39,2.54,0.66,2.87,2.3
			c2.02,10.05,9.62,13.28,18.4,14.39c3.29,0.42,4.93,1.88,6.48,4.39c5.41,8.78,8.41,18.37,8.74,28.59
			c0.34,10.53,0.5,20.92-2.43,31.5c-2.14,7.72-0.52,16.49-0.57,24.79c-0.01,1.33,0,2.66,0,3.99c0,8.23,0,8.23,7.67,11.45
			c4.64,1.94,4.85,2.34,3.94,7.62c-3.66-0.83-7.3-1.65-11.62-2.63c0,3.89,0.12,7.48-0.02,11.06c-1.16,30.57,0.53,61.08,2.65,91.54
			c1.67,24.09-3.45,47.03-9.92,69.87c-0.9,3.17-3.46,4.24-6.22,5.01c-10.25,2.87-20.79,3.71-31.35,3.99
			c-17.2,0.46-34.42,0.94-51.58-1.03c-4.9-0.56-9.77-1.47-14.63-2.32c-5.42-0.95-8.13-4.22-9.7-9.63
			c-8.23-28.54-10.43-57.4-7.47-86.99C17.3,189.99,16.62,162.9,15.99,135.42z M79.25,143.68c10.93,0,21.85,0.01,32.78,0
			c7.3-0.01,10.21-1.81,12.73-8.62c2.76-7.45,3.45-15.37,4.56-23.17c0.59-4.14,0.37-8.2-1.43-12.09
			c-4.46-9.67-13.72-12.83-22.55-15.96c-12.54-4.43-25.72-3.7-38.78-2.88c-7.73,0.48-14.74,3.63-21.83,6.33
			c-10.06,3.84-17.43,14.04-15.75,23.38c1.63,9.07,2.4,18.42,7.01,26.92c2.32,4.29,4.9,6.15,9.49,6.12
			C56.73,143.63,67.99,143.68,79.25,143.68z M79.65,242.42c-9.92,0-19.84-0.09-29.76,0.03c-7.05,0.09-10.21,3.79-9.39,10.82
			c0.66,5.74,1.68,11.45,2.25,17.2c0.78,7.85,4.08,14.22,11.12,17.81c16.98,8.65,34.27,8.41,51.15-0.07
			c4.66-2.34,8.97-6.34,10.04-12.07c1.39-7.47,2.43-15.02,3.39-22.56c0.96-7.57-2.27-11.09-10.02-11.15
			C98.83,242.37,89.24,242.42,79.65,242.42z M123.56,237.43c7.73-3.62,10.04-10.05,11.75-17.2c2.49-10.38,0.07-20.75,0.05-31.06
			c-0.03-18.61,0.68-37.19,0.79-55.78c0.01-1.55,0.44-3.22-0.48-4.79C125.96,136.85,118.47,194.04,123.56,237.43z M24.86,128.55
			c-0.61,0.08-1.22,0.15-1.83,0.23c0,3.23-0.09,6.47,0.01,9.69c0.52,16.58,1.34,33.18,0.35,49.75c-0.65,10.78-1.22,21.54,0.47,32.22
			c1.14,7.22,3.7,13.85,11.78,16.77C38,199.99,38.7,163.48,24.86,128.55z M127.67,66.7c1.05-3.04-0.35-6.24-0.95-9.44
			c-2.44-12.89-5.88-25.5-13.53-36.44c-4.73-6.76-12.02-8.88-20.4-10.95c9.92,22.74,17.73,45.13,24.59,67.88
			c-3.15-10.67-6.31-21.33-9.52-32.2c4.12-1.3,7.29-1.16,10.34,3.22c-2.9-0.58-5.15-1.74-7.31,0.86c4.19-1.01,7.02,1.39,10.27,2.49
			c-0.2-9.31-5.52-15.06-12.65-13.57c1.77,2.09,5.4,1.14,6.45,4.36c-2.76-0.23-5.24,0.2-7.34,1.96
			c-4.32-11.17-8.5-21.96-13.01-33.64c9.7,2.32,16.58,6.28,20.86,14.46C122.31,38.76,125.54,52.85,127.67,66.7z M65.98,10.28
			c-11,1.47-18.26,6.27-23.15,15.02c-6.06,10.83-8.85,22.7-11.04,34.76c0.4-0.32,0.58-0.71,0.67-1.13
			c2.76-12.45,5.76-24.79,12.65-35.8c4.34-6.94,10.86-9.88,19.38-11.79c-4.6,11.74-8.79,22.45-13.12,33.51
			c-2.13-1.89-4.71-1.97-7.27-2.05c0.63-3.16,3.97-2.29,5.85-3.95c-4.5-1.33-5.77-0.84-8.92,3.11c-2.74,3.43-2.99,4.91-1.13,8.05
			c2.43-4.57,5.84-6.51,11.06-4.24c-3.14,10.76-6.2,21.26-9.26,31.77C48.23,54.76,56.5,32.64,65.98,10.28z M119.35,256.96
			c2.9,0.95,5.21,3.79,7.88,2.41c2.81-1.46-0.33-4.06-0.06-6.18c0.06-0.47,0.5-0.98,0.39-1.37c-0.56-1.96-1.82-3.5-3.75-4.02
			c-1.56-0.42-2.98,1.66-2.64,2.18C123.08,252.82,120.26,254.28,119.35,256.96z M33.89,248.33c-2.94,3.29-3.29,7.07-2.76,11.15
			c3.59,0.18,5.92-1.25,8.08-2.56c0.25-2.76-2.56-2.59-3.24-4.25C36.19,252.44,34.89,249.73,33.89,248.33z M30.86,66.32
			c-1.24,10.22-3.29,20.38-2.17,30.77C29.09,86.81,29.94,76.56,30.86,66.32z M130.15,97.05c0.23-0.08,0.61-0.14,0.61-0.22
			c0.15-6.82,0.01-13.62-1.86-20.28C130.28,83.33,129.32,90.23,130.15,97.05z M45.25,58.36c-5.42-2.67-8.61-1.78-8.78,2.7
			C39.31,59.26,42.07,57.85,45.25,58.36z M113.76,58.36c3.46-0.52,6.28,0.81,8.77,3.53C122.87,56.95,119.52,55.62,113.76,58.36z"/>
		<path class="st0" d="M79.25,143.68c-11.26,0-22.52-0.05-33.77,0.02c-4.59,0.03-7.16-1.83-9.49-6.12
			c-4.61-8.51-5.38-17.85-7.01-26.92c-1.68-9.34,5.69-19.55,15.75-23.38c7.09-2.7,14.1-5.85,21.83-6.33
			c13.06-0.82,26.24-1.55,38.78,2.88c8.84,3.12,18.1,6.29,22.55,15.96c1.79,3.89,2.02,7.95,1.43,12.09
			c-1.11,7.81-1.8,15.72-4.56,23.17c-2.52,6.8-5.43,8.61-12.73,8.62C101.11,143.69,90.18,143.68,79.25,143.68z"/>
		<path class="st0" d="M79.65,242.42c9.59,0,19.18-0.05,28.77,0.01c7.75,0.05,10.98,3.58,10.02,11.15
			c-0.96,7.54-1.99,15.09-3.39,22.56c-1.07,5.73-5.38,9.73-10.04,12.07c-16.88,8.49-34.17,8.73-51.15,0.07
			c-7.04-3.59-10.34-9.96-11.12-17.81c-0.57-5.75-1.59-11.46-2.25-17.2c-0.81-7.04,2.35-10.74,9.39-10.82
			C59.81,242.33,69.73,242.42,79.65,242.42z"/>
		<path class="st0" d="M123.56,237.43c-5.09-43.39,2.4-100.58,12.11-108.83c0.93,1.57,0.49,3.23,0.48,4.79
			c-0.1,18.59-0.81,37.17-0.79,55.78c0.02,10.32,2.44,20.68-0.05,31.06C133.6,227.38,131.28,233.81,123.56,237.43z"/>
		<path class="st0" d="M24.86,128.55C38.7,163.48,38,199.99,35.64,237.21c-8.08-2.93-10.63-9.55-11.78-16.77
			c-1.69-10.68-1.12-21.43-0.47-32.22c1-16.57,0.17-33.17-0.35-49.75c-0.1-3.23-0.01-6.46-0.01-9.69
			C23.64,128.7,24.25,128.63,24.86,128.55z"/>
		<path class="st0" d="M127.67,66.7c-2.14-13.86-5.36-27.94-12.2-41.01c-4.28-8.17-11.16-12.14-20.86-14.46
			c4.52,11.68,8.69,22.47,13.01,33.64c2.1-1.76,4.58-2.18,7.34-1.96c-1.05-3.22-4.68-2.26-6.45-4.36
			c7.13-1.5,12.44,4.26,12.65,13.57c-3.25-1.09-6.07-3.49-10.27-2.49c2.16-2.6,4.41-1.44,7.31-0.86c-3.04-4.38-6.22-4.53-10.34-3.22
			c3.21,10.87,6.37,21.53,9.52,32.2C110.52,55,102.71,32.61,92.79,9.87c8.38,2.08,15.67,4.19,20.4,10.95
			c7.65,10.94,11.08,23.55,13.53,36.44C127.33,60.46,128.73,63.66,127.67,66.7z"/>
		<path class="st0" d="M65.98,10.28C56.5,32.64,48.23,54.76,41.7,77.53c3.06-10.5,6.12-21.01,9.26-31.77
			c-5.22-2.28-8.62-0.33-11.06,4.24c-1.86-3.13-1.61-4.61,1.13-8.05c3.15-3.95,4.42-4.43,8.92-3.11c-1.89,1.66-5.23,0.79-5.85,3.95
			c2.56,0.07,5.14,0.16,7.27,2.05c4.33-11.06,8.52-21.77,13.12-33.51c-8.52,1.91-15.03,4.85-19.38,11.79
			c-6.89,11.01-9.9,23.35-12.65,35.8c-0.09,0.42-0.28,0.81-0.67,1.13c2.19-12.06,4.98-23.93,11.04-34.76
			C47.72,16.55,54.97,11.75,65.98,10.28z"/>
		<path class="st0" d="M119.35,256.96c0.9-2.68,3.72-4.14,1.82-6.98c-0.35-0.52,1.07-2.6,2.64-2.18c1.93,0.52,3.19,2.06,3.75,4.02
			c0.11,0.39-0.33,0.9-0.39,1.37c-0.27,2.12,2.88,4.71,0.06,6.18C124.56,260.76,122.26,257.92,119.35,256.96z"/>
		<path class="st0" d="M33.89,248.33c1,1.4,2.3,4.11,2.08,4.33c0.68,1.66,3.48,1.49,3.24,4.25c-2.17,1.32-4.5,2.75-8.08,2.56
			C30.6,255.4,30.96,251.62,33.89,248.33z"/>
		<path class="st0" d="M30.86,66.32c-0.92,10.24-1.77,20.49-2.17,30.77C27.57,86.7,29.63,76.54,30.86,66.32z"/>
		<path class="st0" d="M130.15,97.05c-0.83-6.81,0.13-13.72-1.25-20.5c1.87,6.66,2.01,13.46,1.86,20.28
			C130.75,96.9,130.37,96.97,130.15,97.05z"/>
		<path class="st0" d="M45.25,58.36c-3.18-0.51-5.93,0.9-8.78,2.7C36.63,56.58,39.82,55.69,45.25,58.36z"/>
		<path class="st0" d="M113.76,58.36c5.77-2.73,9.11-1.41,8.77,3.53C120.04,59.17,117.22,57.84,113.76,58.36z"/>
	</g>
</g>
</svg>
