<?xml version="1.0" encoding="utf-8"?>
<!-- Generator: Adobe Illustrator 26.1.0, SVG Export Plug-In . SVG Version: 6.00 Build 0)  -->
<svg version="1.1" id="Layer_1" xmlns="http://www.w3.org/2000/svg" xmlns:xlink="http://www.w3.org/1999/xlink" x="0px" y="0px"
	 viewBox="0 0 1920 1080" style="enable-background:new 0 0 1920 1080;" xml:space="preserve">
<style type="text/css">
	.st0{fill:#FFFFFF;}
</style>
<g>
	<g>
		<path class="st0" d="M687,387c25,0,50,0,75,0c0,106.33,0,212.67,0,319c-21.67,0-43.33,0-65,0c0.72-0.33,1.43-0.88,2.17-0.95
			c7.75-0.73,15.56-1,23.23-2.17c5.84-0.89,12.3-0.58,16.8-5.68c0.74-1.26,1.87-2.43,2.16-3.78c3.28-15.19,8.11-30.29,9.2-45.65
			c1.36-19.17-0.47-38.56-0.77-57.86c-0.33-21.64-0.48-43.28-0.69-64.92c0-0.27,0.33-0.53,0.51-0.8c7.84,0.37,9.29,0.19,9.8-0.71
			c-3.92-0.64-8.06-1.32-13.37-2.19c0.75,26.87,0.42,53.22,2.47,79.38c2.57,32.8,0.83,64.82-9.8,96.11
			c-2.96,1.05-5.84,2.53-8.89,3.08c-26.25,4.8-52.69,4.72-79.15,2.26c-6.26-0.58-12.53-1.82-18.58-3.52
			c-2.28-0.64-5.04-3.14-5.71-5.36c-6.86-22.56-11.5-45.49-10.14-69.29c1.13-19.79,2.29-39.58,2.92-59.39
			c0.46-14.28,0.09-28.59,0.09-43.43c-4.31,0.92-7.97,1.71-11.59,2.49c-1.5-4.4-1.06-5.81,2.31-7.43c1.35-0.65,2.73-1.35,4.17-1.65
			c4.21-0.87,5.27-3.37,5.13-7.49c-0.31-9.15-0.06-18.33-0.13-27.49c-0.02-1.79-0.34-3.61-0.79-5.36
			c-5.01-19.73-4.02-38.85,5.35-57.25c2.14-4.21,5.03-6.28,9.95-6.86c7.69-0.9,13.8-4.53,16.01-12.86c0.37-1.38,2.19-2.93,3.65-3.38
			c19.8-6.03,39.67-6.12,59.47-0.01c1.44,0.44,3.18,2.05,3.55,3.44c2.23,8.33,8.36,11.94,16.05,12.81c4.95,0.56,7.75,2.74,9.94,6.88
			c9.03,17.02,9.49,35.05,6.52,53.5c-0.42,2.59-1.89,5.09-1.95,7.65c-0.24,10.33,0,20.66-0.2,30.99c-0.06,2.94,1.22,4.06,3.7,4.97
			c3.25,1.2,6.34,2.81,9.5,4.24c-1.16-1.71-2.7-3.49-4.59-4.03c-5.51-1.58-7.28-5.03-6.35-10.39c0.2-1.13-0.01-2.33,0.03-3.49
			c0.31-8.95-0.35-18.07,1.19-26.81c2.26-12.83,2.58-25.58,0.28-38.19c-4.63-25.36-20.45-40.2-45.45-45.44
			C699.07,388.71,693.01,387.97,687,387z M638.64,446.95c-0.48,0.39-0.96,0.77-2.43,1.96c4.78-2.48,8.33-4.33,11.54-5.99
			c-3.33-1.71-3.55-1.62-9.33,4.08c2.39-5.89,3.22-13.21,13.1-12.23c-0.33-0.46-0.67-0.92-1-1.39c-1.94,0-3.87,0-7.04,0
			c3.92-2.64,6.61-4.8,10.32-1.91c-3.05,10.52-6.06,20.89-9.07,31.25c0.14,0.03,0.29,0.05,0.43,0.08
			c7.84-22.45,15.68-44.91,23.64-67.7c-12.95,1.86-20.93,9.01-25.73,20.56c-8.58,20.66-11.27,42.34-11.91,64.43
			c-0.02,0.76,0.33,1.54,0.71,3.15c1.05-11.09,1.71-21.21,3.04-31.24c2.02-15.26,5.52-30.13,13.66-43.51
			c4.09-6.72,10.37-9.81,18.84-11.67c-4.46,11.34-8.56,21.77-12.53,31.88c-2.87-0.28-5.33-0.52-9.3-0.9
			c3.9-1.41,6.52-2.35,9.53-3.43c-3.77-2.87-6.94-1.65-9.35,1.05C640.32,431.48,638.28,438.86,638.64,446.95z M727.43,447
			c-0.83-4.67-1.12-9.52-2.66-13.93c-1.15-3.29-3.54-6.39-6.07-8.87c-2.53-2.48-5.05-1.87-6.99,0.41c2.39,0.91,4.92,1.86,8.51,3.22
			c-3.99,0.39-6.5,0.63-9.08,0.88c-4.03-10.38-8.07-20.77-12.42-31.99c9.55,2.26,16.13,6.35,20.25,14.2
			c8.13,15.49,11.36,32.25,13.24,49.37c0.8,7.33,1.1,14.71,1.63,22.07c0.85-1.23,1.13-2.47,1-3.66c-1.45-13.05-2.46-26.17-4.62-39.1
			c-1.96-11.68-5.71-22.96-12.38-32.99c-4.87-7.32-12.35-9.87-20.64-11.61c8.02,23.03,15.83,45.45,23.64,67.87
			c0.16-0.04,0.32-0.08,0.47-0.13c-3.04-10.46-6.09-20.93-9.65-33.2c4.08,1.07,6.87,1.81,9.66,2.54c-0.11,0.3-0.22,0.6-0.33,0.9
			c-1.86,0.19-3.73,0.37-4.54,0.46c2.86,2.16,6.19,4.07,8.68,6.77c1.52,1.65,1.75,4.5,2.56,6.81c-6.1-5.9-6.74-6.12-9.24-4.04
			c3.22,1.68,6.75,3.52,10.27,5.36c0.08-0.15,0.15-0.29,0.23-0.44C728.42,447.6,727.92,447.3,727.43,447z M683.01,529.3
			c10.49,0,20.99,0.01,31.48,0c9.44-0.01,13.55-3.28,15.55-12.63c1.22-5.69,1.92-11.5,3.32-17.14c2.57-10.37-1.45-18.05-9.72-23.63
			c-4.35-2.93-9.29-5.29-14.29-6.9c-13.57-4.37-27.56-4.23-41.54-2.51c-9.36,1.15-18.25,3.92-25.94,9.6
			c-6.68,4.94-10.98,11.35-9.79,20.03c0.99,7.24,2.43,14.45,4.13,21.56c2.1,8.78,6.13,11.63,15.31,11.63
			C662.02,529.31,672.51,529.3,683.01,529.3z M683.13,628.05c-9.83,0-19.66-0.07-29.49,0.02c-7.7,0.07-11.06,3.9-10.02,11.4
			c0.96,6.92,2.32,13.79,3.14,20.73c0.68,5.76,3.25,10.21,8.25,12.93c18.52,10.11,37.18,10.16,55.76,0.12
			c4.62-2.5,7.51-6.46,8.3-11.82c1.06-7.25,2.28-14.47,3.29-21.72c1.09-7.79-2.26-11.6-10.23-11.65
			C702.46,627.99,692.79,628.05,683.13,628.05z M726.93,623.14c5.61-1.95,8.97-5.46,10.2-10.21c1.53-5.89,2.81-12.04,2.88-18.09
			c0.31-25.79,0.14-51.59,0.11-77.39c0-1.36-0.26-2.72-0.4-4.09c-0.59-0.02-1.17-0.03-1.76-0.05
			C724.03,548.62,724.14,585.44,726.93,623.14z M638.55,623.21c5.29-35.92-0.21-95.54-12.6-110.63c0,2.77,0,4.66,0,6.56
			c-0.02,22.63-0.12,45.26-0.03,67.89c0.03,6.47,0.18,13,1.02,19.4C627.87,613.56,630.92,619.71,638.55,623.21z M638.82,638.26
			c-2.05,1.9-3.51,3.25-4.98,4.61c0.87,0.89,2.07,2.7,2.55,2.52c2.18-0.78,4.17-2.13,6.22-3.27
			C641.63,641.12,640.64,640.11,638.82,638.26z M727.9,638.34c-2.17,1.63-3.33,2.5-4.49,3.37c2.07,1.28,4.07,2.71,6.28,3.7
			c0.42,0.19,2.45-1.94,2.36-2.06C730.95,641.75,729.61,640.32,727.9,638.34z M634.23,639.21c2.73-1.36,4.96-2.48,7.2-3.59
			c-0.99-0.84-2.01-2.42-2.97-2.38C635.93,633.34,632.77,633.46,634.23,639.21z M731.74,639.25c1.52-5.74-1.62-5.91-4.16-6.01
			c-0.98-0.04-2.01,1.51-3.02,2.34C726.79,636.72,729.02,637.86,731.74,639.25z"/>
		<path class="st0" d="M672,706c-22.62,0-45.24,0-68,0c0-61,0-122,0-183c3.61,6.13,8.45,0.18,13.01,1.39c0,1.52,0.03,3.16,0,4.8
			c-0.75,31.74-1.07,63.49-2.41,95.21c-0.98,23.34,2.61,45.81,9.22,68.03c1.4,4.72,3.91,7.7,8.57,8.48
			c9.11,1.53,18.25,2.82,27.41,4.06C663.84,705.51,667.93,705.67,672,706z"/>
		<path class="st0" d="M604,518c0-43.67,0-87.33,0-131c23.67,0,47.33,0,71,0c-5.65,1-11.37,1.7-16.94,3.06
			c-26.78,6.53-43.79,27.86-44.06,55.3c-0.1,10.73,0.13,21.28,2.47,32.06c2.18,10.01,0.58,20.87,0.39,31.35
			c-0.02,1.14-1.59,2.54-2.78,3.31C610.82,514.19,607.38,516.04,604,518z"/>
		<path d="M604,518c3.38-1.96,6.82-3.81,10.09-5.94c1.18-0.77,2.75-2.17,2.78-3.31c0.2-10.48,1.79-21.33-0.39-31.35
			c-2.34-10.78-2.58-21.33-2.47-32.06c0.27-27.44,17.27-48.76,44.06-55.3c5.56-1.36,11.29-2.05,16.94-3.06c4,0,8,0,12,0
			c6.01,0.97,12.07,1.71,18.02,2.96c25,5.24,40.82,20.08,45.45,45.44c2.3,12.61,1.98,25.36-0.28,38.19
			c-1.54,8.74-0.88,17.86-1.19,26.81c-0.04,1.17,0.16,2.36-0.03,3.49c-0.94,5.36,0.84,8.81,6.35,10.39
			c1.89,0.54,3.43,2.32,4.59,4.03c-3.16-1.43-6.26-3.04-9.5-4.24c-2.47-0.91-3.75-2.03-3.7-4.97c0.2-10.33-0.04-20.66,0.2-30.99
			c0.06-2.56,1.53-5.06,1.95-7.65c2.97-18.45,2.51-36.47-6.52-53.5c-2.2-4.14-4.99-6.32-9.94-6.88
			c-7.69-0.87-13.82-4.48-16.05-12.81c-0.37-1.39-2.11-3-3.55-3.44c-19.8-6.11-39.67-6.02-59.47,0.01c-1.46,0.44-3.28,2-3.65,3.38
			c-2.21,8.33-8.32,11.96-16.01,12.86c-4.92,0.58-7.8,2.65-9.95,6.86c-9.37,18.4-10.36,37.53-5.35,57.25
			c0.44,1.74,0.77,3.57,0.79,5.36c0.08,9.16-0.18,18.34,0.13,27.49c0.14,4.12-0.91,6.62-5.13,7.49c-1.44,0.3-2.82,1-4.17,1.65
			c-3.37,1.62-3.81,3.02-2.31,7.43c3.62-0.78,7.28-1.56,11.59-2.49c0,14.84,0.37,29.15-0.09,43.43c-0.64,19.81-1.8,39.6-2.92,59.39
			c-1.36,23.81,3.29,46.73,10.14,69.29c0.68,2.22,3.43,4.72,5.71,5.36c6.05,1.71,12.32,2.94,18.58,3.52
			c26.46,2.46,52.89,2.53,79.15-2.26c3.05-0.56,5.93-2.03,8.89-3.08c0.16,0.14,0.32,0.28,0.48,0.43c-4.5,5.1-10.97,4.79-16.8,5.68
			c-7.68,1.17-15.49,1.44-23.23,2.17c-0.75,0.07-1.45,0.62-2.17,0.95c-8.33,0-16.67,0-25,0c-4.07-0.33-8.16-0.49-12.21-1.04
			c-9.15-1.23-18.3-2.53-27.41-4.06c-4.66-0.78-7.17-3.76-8.57-8.48c-6.61-22.22-10.2-44.69-9.22-68.03
			c1.33-31.71,1.66-63.47,2.41-95.21c0.04-1.64,0-3.28,0-4.8c-4.56-1.21-9.39,4.74-13.01-1.39C604,521.33,604,519.67,604,518z"/>
		<path d="M683.01,529.3c-10.49,0-20.99,0-31.48,0c-9.18,0-13.21-2.85-15.31-11.63c-1.7-7.11-3.14-14.32-4.13-21.56
			c-1.19-8.67,3.11-15.09,9.79-20.03c7.69-5.68,16.57-8.45,25.94-9.6c13.98-1.72,27.97-1.86,41.54,2.51c5,1.61,9.94,3.97,14.29,6.9
			c8.27,5.58,12.28,13.27,9.72,23.63c-1.4,5.64-2.1,11.45-3.32,17.14c-2,9.35-6.11,12.62-15.55,12.63
			C703.99,529.31,693.5,529.3,683.01,529.3z"/>
		<path d="M683.13,628.05c9.66,0,19.33-0.05,28.99,0.02c7.97,0.06,11.32,3.87,10.23,11.65c-1.01,7.25-2.22,14.48-3.29,21.72
			c-0.79,5.36-3.67,9.32-8.3,11.82c-18.57,10.03-37.23,9.98-55.76-0.12c-5-2.73-7.56-7.17-8.25-12.93
			c-0.82-6.94-2.18-13.81-3.14-20.73c-1.04-7.5,2.32-11.33,10.02-11.4C663.47,627.98,673.3,628.05,683.13,628.05z"/>
		<path d="M726.93,623.14c-2.8-37.7-2.91-74.51,11.03-109.83c0.59,0.02,1.17,0.03,1.76,0.05c0.14,1.36,0.4,2.72,0.4,4.09
			c0.03,25.8,0.2,51.6-0.11,77.39c-0.07,6.05-1.34,12.2-2.88,18.09C735.9,617.68,732.54,621.19,726.93,623.14z"/>
		<path d="M638.55,623.21c-7.63-3.5-10.68-9.65-11.61-16.79c-0.84-6.4-1-12.93-1.02-19.4c-0.09-22.63,0.01-45.26,0.03-67.89
			c0-1.89,0-3.79,0-6.56C638.34,527.67,643.85,587.29,638.55,623.21z"/>
		<path d="M727.66,447.03c-0.81-2.31-1.03-5.16-2.56-6.81c-2.49-2.7-5.82-4.61-8.68-6.77c0.81-0.08,2.68-0.27,4.54-0.46
			c0.11-0.3,0.22-0.6,0.33-0.9c-2.79-0.73-5.58-1.47-9.66-2.54c3.57,12.27,6.61,22.73,9.65,33.2c-0.16,0.04-0.32,0.08-0.47,0.13
			c-7.81-22.42-15.62-44.84-23.64-67.87c8.29,1.74,15.77,4.28,20.64,11.61c6.67,10.03,10.42,21.31,12.38,32.99
			c2.17,12.93,3.17,26.06,4.62,39.1c0.13,1.2-0.15,2.44-1,3.66c-0.53-7.36-0.82-14.74-1.63-22.07
			c-1.88-17.12-5.11-33.89-13.24-49.37c-4.12-7.85-10.69-11.94-20.25-14.2c4.36,11.22,8.39,21.61,12.42,31.99
			c2.58-0.25,5.09-0.5,9.08-0.88c-3.59-1.36-6.11-2.31-8.51-3.22c1.93-2.28,4.46-2.89,6.99-0.41c2.53,2.48,4.92,5.59,6.07,8.87
			c1.54,4.42,1.83,9.27,2.67,13.93C727.43,447,727.66,447.03,727.66,447.03z"/>
		<path d="M638.64,446.95c-0.35-8.08,1.68-15.46,7.11-21.54c2.41-2.7,5.59-3.92,9.35-1.05c-3.01,1.08-5.63,2.03-9.53,3.43
			c3.97,0.39,6.43,0.62,9.3,0.9c3.98-10.12,8.08-20.54,12.53-31.88c-8.47,1.86-14.75,4.95-18.84,11.67
			c-8.14,13.38-11.65,28.25-13.66,43.51c-1.33,10.03-1.98,20.15-3.04,31.24c-0.38-1.61-0.73-2.38-0.71-3.15
			c0.64-22.09,3.34-43.77,11.91-64.43c4.8-11.55,12.78-18.7,25.73-20.56c-7.96,22.8-15.8,45.25-23.64,67.7
			c-0.14-0.03-0.29-0.05-0.43-0.08c3.01-10.36,6.01-20.73,9.07-31.25c-3.71-2.89-6.4-0.73-10.32,1.91c3.16,0,5.1,0,7.04,0
			c0.33,0.46,0.67,0.92,1,1.39c-9.87-0.99-10.7,6.34-13.09,12.22C638.42,446.99,638.64,446.95,638.64,446.95z"/>
		<path d="M738.73,696.77c10.63-31.29,12.37-63.31,9.8-96.11c-2.05-26.16-1.72-52.51-2.47-79.38c5.31,0.87,9.45,1.55,13.37,2.19
			c-0.5,0.9-1.96,1.08-9.8,0.71c-0.18,0.27-0.51,0.53-0.51,0.8c0.2,21.64,0.36,43.28,0.69,64.92c0.29,19.3,2.13,38.69,0.77,57.86
			c-1.09,15.36-5.92,30.46-9.2,45.65c-0.29,1.35-1.42,2.53-2.16,3.78C739.05,697.06,738.89,696.92,738.73,696.77z"/>
		<path d="M638.82,638.26c1.82,1.85,2.81,2.86,3.8,3.86c-2.06,1.14-4.04,2.49-6.22,3.27c-0.49,0.17-1.68-1.63-2.55-2.52
			C635.31,641.51,636.77,640.16,638.82,638.26z"/>
		<path d="M727.9,638.34c1.72,1.98,3.06,3.41,4.15,5.01c0.08,0.12-1.94,2.25-2.36,2.06c-2.2-0.99-4.21-2.42-6.28-3.7
			C724.57,640.84,725.73,639.97,727.9,638.34z"/>
		<path d="M634.23,639.21c-1.46-5.75,1.7-5.88,4.23-5.97c0.96-0.04,1.98,1.54,2.97,2.38C639.19,636.74,636.96,637.85,634.23,639.21z
			"/>
		<path d="M731.74,639.25c-2.72-1.39-4.95-2.53-7.18-3.66c1.01-0.83,2.04-2.38,3.02-2.34C730.11,633.34,733.25,633.5,731.74,639.25z
			"/>
		<path d="M638.64,446.95c0,0-0.22,0.04-0.22,0.04c5.78-5.7,6-5.78,9.33-4.07c-3.21,1.67-6.76,3.51-11.54,5.99
			C637.68,447.72,638.16,447.33,638.64,446.95z"/>
		<path d="M727.66,447.03c0,0-0.23-0.03-0.23-0.03c0.49,0.3,0.99,0.6,1.48,0.91c-0.08,0.15-0.15,0.29-0.23,0.44
			c-3.52-1.84-7.05-3.68-10.27-5.36C720.92,440.9,721.56,441.12,727.66,447.03z"/>
	</g>
</g>
</svg>
