<?xml version="1.0" encoding="utf-8"?>
<!-- Generator: Adobe Illustrator 26.1.0, SVG Export Plug-In . SVG Version: 6.00 Build 0)  -->
<svg version="1.1" id="Layer_1" xmlns="http://www.w3.org/2000/svg" xmlns:xlink="http://www.w3.org/1999/xlink" x="0px" y="0px"
	 viewBox="0 0 158 319" style="enable-background:new 0 0 158 319;" xml:space="preserve">
<style type="text/css">
	.st0{fill:#808080;}
	.st1{fill:#008800;}
	.st2{fill:#7B837B;}
	.st3{fill:#7E847E;}
	.st4{fill:#FCFCFC;}
	.st5{fill:#EFEFEF;}
	.st6{fill:#EEEEEE;}
	.st7{fill:#F0F0F0;}
	.st8{fill:#EDEDED;}
</style>
<g>
	<g>
		<path class="st0" d="M185.92,379.86c-70.62,0-141.24,0-211.86,0c0.06-1.83,0.18-3.65,0.18-5.48c0.01-143.27,0.01-286.54,0-429.81
			c0-1.83-0.12-3.65-0.18-5.48c70.62,0,141.24,0,211.86,0c-0.03,1.5-0.1,2.99-0.1,4.49c0,143.93,0,287.86,0,431.79
			C185.82,376.87,185.88,378.37,185.92,379.86z M80.04-2.82c0.01,0,0.01,0,0.02,0c0-1.5,0.04-3-0.01-4.5
			c-0.04-1.29,0.21-2.87-1.83-2.85c-1.81,0.01-2.1,1.27-2.09,2.73c0.02,3.16,0.02,6.33,0.02,9.49c0,1.34,0.48,2.28,1.95,2.37
			c1.58,0.09,1.95-0.93,1.95-2.25C80.04,0.51,80.04-1.15,80.04-2.82z M80.02,26.98c0-1.81,0.03-3.61-0.01-5.42
			c-0.02-1.07-0.4-1.96-1.66-2.01c-1.1-0.04-2.05,0.42-2.08,1.59c-0.1,3.77-0.09,7.55-0.07,11.33c0.01,1.26,0.96,1.59,2.01,1.68
			c1.25,0.11,1.79-0.59,1.81-1.75C80.04,30.59,80.03,28.79,80.02,26.98z M80.07,176.32c0-1.5,0.06-3-0.02-4.49
			c-0.07-1.22,0.42-2.87-1.74-2.86c-2.19,0.01-2.21,1.53-2.2,3.1c0.02,2.66-0.03,5.33,0.02,7.99c0.03,1.44-0.31,3.34,1.88,3.41
			c2.7,0.09,1.89-2.16,2.04-3.66C80.16,178.66,80.07,177.49,80.07,176.32z M80.3,206.16c-1.3-2.42,1.71-7.12-1.95-7.17
			c-4.32-0.07-1.88,4.72-2.05,7.24c-0.15,2.24-1.9,6.61,1.66,6.64C82.18,212.9,78.88,208.33,80.3,206.16z M80.05,355.8
			c0-2.24,0.01-4.04,0-5.85c-0.01-1.27-0.29-2.32-1.9-2.2c-1.4,0.1-2.02,0.88-2.01,2.26c0.01,1.81-0.27,3.66,0.03,5.41
			c0.4,2.34-1.65,6.59,1.76,6.64C82.11,362.11,78.96,357.58,80.05,355.8z M80.01-32.55c0.01,0,0.01,0,0.02,0
			c0-1.81,0.01-3.62,0-5.43c-0.01-1.11-0.39-1.88-1.69-1.91c-1.11-0.03-2.08,0.26-2.11,1.49c-0.08,3.78-0.07,7.57,0,11.35
			c0.02,1.11,0.77,1.77,1.94,1.77c1.22,0,1.79-0.71,1.83-1.84C80.05-28.93,80.01-30.74,80.01-32.55z M80.04,56.72
			c-0.01,0-0.02,0-0.02,0c0-1.82,0.04-3.64-0.01-5.45c-0.03-1.13-0.62-1.86-1.83-1.85c-1.18,0-1.91,0.68-1.93,1.8
			c-0.07,3.8-0.08,7.6,0,11.4c0.02,1.24,1,1.54,2.11,1.51c1.3-0.03,1.68-0.83,1.69-1.94C80.05,60.35,80.04,58.53,80.04,56.72z
			 M80.06,87.3c0-1.89,0.06-3.37-0.02-4.85c-0.07-1.4,0.29-3.28-2.02-3.14c-2.15,0.13-1.84,1.93-1.9,3.36
			c-0.06,1.48-0.3,3.02,0.04,4.42c0.54,2.27-1.89,6.49,1.81,6.49C82.26,93.59,78.85,89.07,80.06,87.3z M76.14,115.31
			c0,2.26-0.02,4.07,0.01,5.88c0.02,1.45,0.4,2.67,2.2,2.58c1.61-0.08,1.66-1.34,1.69-2.5c0.05-1.81,0.36-3.7-0.04-5.42
			c-0.52-2.24,2.05-6.38-1.85-6.43C74.09,109.37,77.15,113.67,76.14,115.31z M80.01,146.39c0.01,0,0.02,0,0.03,0
			c0-1.82,0.01-3.64,0-5.46c-0.01-1.11-0.36-1.89-1.67-1.96c-1.45-0.08-2.2,0.53-2.2,1.97c0,3.64-0.01,7.28,0.06,10.92
			c0.02,1.12,0.74,1.8,1.92,1.82c1.23,0.02,1.81-0.71,1.85-1.83C80.05,150.03,80.01,148.21,80.01,146.39z M80.06,235.89
			c0-1.49,0.04-2.97-0.01-4.46c-0.06-1.44,0.23-3.25-2.07-3.11c-1.83,0.11-1.83,1.6-1.84,2.94c-0.02,2.97-0.03,5.94,0,8.91
			c0.01,1.31-0.1,2.72,1.9,2.78c1.96,0.05,2.04-1.21,2.03-2.61C80.05,238.86,80.06,237.37,80.06,235.89z M80.06,325.59
			c0-2.08,0.01-3.72,0-5.36c-0.01-1.26-0.27-2.25-1.88-2.27c-1.54-0.02-2.01,0.83-2.03,2.15c-0.02,1.64-0.34,3.36,0.03,4.91
			c0.6,2.54-1.99,7.24,2.14,7.2C81.92,332.19,79.08,327.54,80.06,325.59z M80.03,266.28c0-2.29,0.03-4.11-0.01-5.93
			c-0.02-1.25-0.33-2.32-1.94-2.26c-1.56,0.06-1.88,1.12-1.91,2.36c-0.05,1.82-0.3,3.69,0,5.46c0.4,2.35-1.66,6.63,1.77,6.65
			C82.15,272.6,78.92,268.04,80.03,266.28z M80.06,295.13c0-1.32,0.06-2.64-0.01-3.96c-0.08-1.42,0.27-3.24-2.08-3.09
			c-1.87,0.12-1.81,1.63-1.82,2.94c-0.04,2.97-0.04,5.94,0,8.91c0.02,1.33,0.05,2.77,1.92,2.85c1.97,0.09,1.94-1.38,1.98-2.71
			C80.09,298.43,80.06,296.78,80.06,295.13z"/>
		<path class="st1" d="M-40.93,379.86c-6.99,0-13.98,0-20.99,0c0-145.76,0.01-291.53-0.09-437.29c0-3.04,0.67-3.69,3.61-3.55
			c5.81,0.28,11.64,0.08,17.47,0.08c0.12,2.32,0.35,4.64,0.35,6.95c0.02,142.29,0.02,284.57,0,426.86
			C-40.57,375.23-40.81,377.55-40.93,379.86z"/>
		<path class="st1" d="M200.91-60.9c5.66,0,11.33,0.09,16.99-0.05c1.74-0.05,2.34,0.31,2.03,2.06c-0.15,0.81-0.03,1.66-0.03,2.49
			c0,143.92-0.02,287.85,0.09,431.77c0,3.75-0.82,4.88-4.6,4.59c-4.8-0.38-9.65-0.09-14.48-0.09c-0.09-2.16-0.25-4.31-0.25-6.47
			c-0.01-142.61-0.01-285.21,0-427.82C200.66-56.59,200.82-58.74,200.91-60.9z"/>
		<path class="st2" d="M-40.93,379.86c0.12-2.32,0.35-4.64,0.35-6.95c0.02-142.29,0.02-284.57,0-426.86c0-2.32-0.23-4.64-0.35-6.95
			c2.66,0,5.33,0,7.99,0c-0.03,2.33-0.07,4.66-0.07,6.99c0,133.94,0,267.89,0,401.83c0,10.65,0.05,21.3,0.07,31.95
			C-35.6,379.86-38.26,379.86-40.93,379.86z"/>
		<path class="st3" d="M200.91-60.9c-0.09,2.16-0.25,4.31-0.25,6.47c-0.01,142.61-0.01,285.21,0,427.82c0,2.16,0.16,4.31,0.25,6.47
			c-2.66,0-5.33,0-7.99,0c0.05-1.66,0.14-3.32,0.14-4.99c0.01-143.6,0.01-287.2,0-430.79c0-1.66-0.09-3.32-0.14-4.99
			C195.58-60.9,198.24-60.9,200.91-60.9z"/>
		<path class="st4" d="M-32.93,379.86c-0.03-10.65-0.07-21.3-0.07-31.95c0-133.94,0-267.89,0-401.83c0-2.33,0.05-4.66,0.07-6.99
			c2.33,0,4.66,0,7,0c0.06,1.83,0.18,3.65,0.18,5.48c0.01,143.27,0.01,286.54,0,429.81c0,1.83-0.12,3.65-0.18,5.48
			C-28.27,379.86-30.6,379.86-32.93,379.86z"/>
		<path class="st4" d="M192.91-60.9c0.05,1.66,0.14,3.32,0.14,4.99c0.01,143.6,0.01,287.2,0,430.79c0,1.66-0.09,3.32-0.14,4.99
			c-2.33,0-4.66,0-7,0c-0.03-1.5-0.1-2.99-0.1-4.49c0-143.93,0-287.86,0-431.79c0-1.5,0.06-2.99,0.1-4.49
			C188.25-60.9,190.58-60.9,192.91-60.9z"/>
		<path class="st5" d="M80.04-2.82c0,1.67,0,3.33,0,5c0,1.32-0.37,2.34-1.95,2.25c-1.47-0.08-1.95-1.03-1.95-2.37
			c0.01-3.16,0-6.33-0.02-9.49c-0.01-1.47,0.28-2.72,2.09-2.73c2.04-0.01,1.79,1.56,1.83,2.85c0.05,1.5,0.01,3,0.01,4.5
			C80.06-2.82,80.05-2.82,80.04-2.82z"/>
		<path class="st6" d="M80.03,26.98c0,1.81,0.02,3.61,0,5.42c-0.02,1.16-0.56,1.86-1.81,1.75c-1.05-0.09-2.01-0.42-2.01-1.68
			c-0.02-3.78-0.03-7.55,0.07-11.33c0.03-1.17,0.99-1.63,2.08-1.59c1.26,0.05,1.64,0.93,1.66,2.01
			C80.05,23.37,80.02,25.17,80.03,26.98z"/>
		<path class="st6" d="M80.07,176.32c0,1.17,0.09,2.34-0.02,3.49c-0.14,1.5,0.66,3.75-2.04,3.66c-2.18-0.07-1.85-1.98-1.88-3.41
			c-0.05-2.66,0-5.33-0.02-7.99c-0.01-1.58,0.01-3.1,2.2-3.1c2.16-0.01,1.67,1.64,1.74,2.86C80.13,173.32,80.07,174.82,80.07,176.32
			z"/>
		<path class="st7" d="M80.3,206.16c-1.42,2.17,1.88,6.73-2.34,6.7c-3.56-0.03-1.81-4.4-1.66-6.64c0.17-2.52-2.28-7.3,2.05-7.24
			C82.01,199.04,79,203.74,80.3,206.16z"/>
		<path class="st6" d="M80.05,355.8c-1.09,1.78,2.05,6.31-2.13,6.25c-3.41-0.05-1.36-4.29-1.76-6.64c-0.3-1.75-0.02-3.6-0.03-5.41
			c-0.01-1.38,0.6-2.16,2.01-2.26c1.62-0.11,1.9,0.94,1.9,2.2C80.06,351.76,80.05,353.56,80.05,355.8z"/>
		<path class="st6" d="M80.01-32.55c0,1.81,0.04,3.62-0.01,5.43c-0.03,1.12-0.61,1.84-1.83,1.84c-1.17,0-1.92-0.66-1.94-1.77
			c-0.07-3.78-0.08-7.57,0-11.35c0.02-1.23,0.99-1.52,2.11-1.49c1.3,0.03,1.68,0.81,1.69,1.91c0.02,1.81,0,3.62,0,5.43
			C80.03-32.55,80.02-32.55,80.01-32.55z"/>
		<path class="st6" d="M80.04,56.72c0,1.82,0.01,3.64,0,5.45c-0.01,1.11-0.39,1.91-1.69,1.94c-1.11,0.03-2.09-0.27-2.11-1.51
			c-0.07-3.8-0.06-7.6,0-11.4c0.02-1.12,0.75-1.8,1.93-1.8c1.21,0,1.8,0.72,1.83,1.85c0.05,1.82,0.01,3.63,0.01,5.45
			C80.02,56.72,80.03,56.72,80.04,56.72z"/>
		<path class="st6" d="M80.06,87.3c-1.22,1.76,2.2,6.29-2.09,6.29c-3.69,0-1.27-4.22-1.81-6.49c-0.33-1.4-0.1-2.95-0.04-4.42
			c0.06-1.43-0.25-3.23,1.9-3.36c2.31-0.14,1.95,1.73,2.02,3.14C80.12,83.93,80.06,85.41,80.06,87.3z"/>
		<path class="st8" d="M76.14,115.31c1.01-1.64-2.06-5.94,2.01-5.89c3.9,0.05,1.33,4.19,1.85,6.43c0.4,1.72,0.09,3.61,0.04,5.42
			c-0.03,1.17-0.08,2.42-1.69,2.5c-1.8,0.09-2.18-1.13-2.2-2.58C76.12,119.38,76.14,117.57,76.14,115.31z"/>
		<path class="st6" d="M80.01,146.39c0,1.82,0.04,3.64-0.02,5.46c-0.03,1.12-0.61,1.86-1.85,1.83c-1.18-0.02-1.9-0.7-1.92-1.82
			c-0.08-3.64-0.06-7.28-0.06-10.92c0-1.45,0.75-2.05,2.2-1.97c1.31,0.07,1.66,0.85,1.67,1.96c0.01,1.82,0,3.64,0,5.46
			C80.03,146.39,80.02,146.39,80.01,146.39z"/>
		<path class="st5" d="M80.06,235.89c0,1.49-0.01,2.97,0,4.46c0.01,1.41-0.07,2.67-2.03,2.61c-2-0.06-1.89-1.47-1.9-2.78
			c-0.03-2.97-0.02-5.94,0-8.91c0.01-1.34,0.01-2.83,1.84-2.94c2.31-0.14,2.02,1.67,2.07,3.11
			C80.11,232.92,80.06,234.4,80.06,235.89z"/>
		<path class="st6" d="M80.06,325.59c-0.97,1.95,1.86,6.6-1.73,6.64c-4.14,0.04-1.55-4.66-2.14-7.2c-0.37-1.55-0.05-3.27-0.03-4.91
			c0.02-1.32,0.48-2.17,2.03-2.15c1.61,0.02,1.87,1.01,1.88,2.27C80.06,321.87,80.06,323.51,80.06,325.59z"/>
		<path class="st5" d="M80.03,266.28c-1.11,1.76,2.12,6.31-2.08,6.29c-3.43-0.02-1.38-4.3-1.77-6.65c-0.3-1.77-0.05-3.64,0-5.46
			c0.03-1.24,0.35-2.31,1.91-2.36c1.61-0.06,1.91,1.01,1.94,2.26C80.06,262.17,80.03,264,80.03,266.28z"/>
		<path class="st6" d="M80.06,295.13c0,1.65,0.03,3.3-0.01,4.95c-0.04,1.32-0.01,2.8-1.98,2.71c-1.87-0.09-1.9-1.53-1.92-2.85
			c-0.04-2.97-0.04-5.94,0-8.91c0.02-1.31-0.04-2.81,1.82-2.94c2.35-0.16,2.01,1.67,2.08,3.09
			C80.12,292.48,80.06,293.81,80.06,295.13z"/>
	</g>
</g>
</svg>
