<?xml version="1.0" encoding="utf-8"?>
<!-- Generator: Adobe Illustrator 26.1.0, SVG Export Plug-In . SVG Version: 6.00 Build 0)  -->
<svg version="1.1" id="Layer_1" xmlns="http://www.w3.org/2000/svg" xmlns:xlink="http://www.w3.org/1999/xlink" x="0px" y="0px"
	 viewBox="0 0 500 700" style="enable-background:new 0 0 500 700;" xml:space="preserve">
<style type="text/css">
	.st0{fill:#818181;}
	.st1{fill:#178A44;}
	.st2{fill:#FBFCFC;}
</style>
<g>
	<g>
		<path class="st0" d="M63.59,0.15c125.31,0,250.62,0,375.93,0c-0.08,2.64-0.24,5.27-0.24,7.91c-0.01,227.94-0.01,455.89,0,683.83
			c0,2.64,0.16,5.27,0.24,7.91c-125.31,0-250.62,0-375.93,0c0.14-3.16,0.39-6.32,0.39-9.48c0.02-226.9,0.02-453.8,0-680.7
			C63.98,6.47,63.72,3.31,63.59,0.15z M252.43,93.55c0-3.28-0.05-5.9,0.01-8.53c0.06-2.65-0.43-4.71-3.76-4.63
			c-3,0.07-4.16,1.58-4.05,4.48c0.1,2.62-0.54,5.4,0.12,7.84c1.05,3.86-3.74,11.23,4.16,10.98
			C255.72,103.46,250.71,96.44,252.43,93.55z M252.42,140.61c0-3.29-0.05-5.92,0.01-8.55c0.07-2.79-0.8-4.56-3.99-4.44
			c-3.2,0.12-3.85,2.08-3.8,4.76c0.05,2.36-0.56,4.9,0.1,7.06c1.22,3.94-3.77,11.22,3.65,11.48
			C256.49,151.21,250.3,143.45,252.42,140.61z M252.42,187.4c0-2.63-0.04-5.26,0.01-7.89c0.05-2.74-0.72-4.61-3.95-4.49
			c-2.62,0.1-3.79,1.42-3.78,3.96c0.01,5.52-0.02,11.04,0.02,16.57c0.02,3.03,2.33,3.04,4.44,3.13c2.29,0.09,3.32-1.08,3.26-3.38
			C252.35,192.66,252.4,190.03,252.42,187.4z M252.43,377.79c0-3.27-0.07-5.89,0.02-8.51c0.09-2.69-0.41-4.67-3.76-4.52
			c-2.89,0.14-4.27,1.37-4.07,4.4c0.17,2.61-0.52,5.39,0.14,7.83c1.05,3.86-3.72,11.24,4.17,10.97
			C255.66,387.73,250.75,380.7,252.43,377.79z M252.39,423.98c0-2.89-0.01-5.77,0-8.66c0.01-2.24-1.05-3.4-3.31-3.42
			c-2.27-0.01-4.32,0.38-4.35,3.26c-0.05,5.77-0.09,11.55,0.03,17.32c0.06,2.94,2.39,3,4.56,2.99c2.38-0.02,3.11-1.48,3.09-3.61
			C252.38,429.23,252.4,426.6,252.39,423.98z M252.37,660.11c0.01,0,0.02,0,0.03,0c0-2.63-0.06-5.26,0.02-7.88
			c0.08-2.73-1.32-3.8-3.86-3.69c-2.4,0.11-3.95,1.04-3.91,3.8c0.08,5.51,0.01,11.03,0.09,16.55c0.04,2.79,1.94,3.39,4.3,3.34
			c2.28-0.05,3.32-1.25,3.33-3.45C252.38,665.89,252.37,663,252.37,660.11z M252.41,46.28c0-3.57-0.09-6.46,0.02-9.34
			c0.11-2.84-1.44-3.55-3.9-3.61c-2.59-0.06-3.93,0.92-3.88,3.64c0.05,2.89-0.58,5.92,0.11,8.63c0.99,3.86-3.74,11.28,4.23,10.91
			C255.76,56.19,250.68,49.17,252.41,46.28z M252.43,234.63c0-2.36-0.02-4.72,0.01-7.08c0.03-2.84-0.23-5.3-4.11-5.09
			c-3.3,0.18-3.68,2.29-3.67,4.86c0.02,4.98,0.04,9.97,0,14.95c-0.02,2.61,1.11,3.85,3.78,3.77c2.38-0.07,4.09-0.66,4-3.53
			C252.34,239.88,252.41,237.25,252.43,234.63z M252.38,328.67c0.01,0,0.02,0,0.03,0c0-2.64-0.09-5.28,0.02-7.92
			c0.12-2.97-1.67-3.48-4.04-3.49c-2.08-0.01-3.68,0.52-3.68,3.01c0,5.81-0.05,11.61,0.04,17.42c0.05,2.84,2.05,3.28,4.4,3.25
			c2.41-0.04,3.19-1.45,3.21-3.56C252.4,334.48,252.38,331.57,252.38,328.67z M252.39,470.8c0.01,0,0.03,0,0.04,0
			c0-2.11,0.03-4.22-0.01-6.33c-0.05-2.62,0.35-5.49-3.74-5.5c-3.84-0.01-4.07,2.49-4.05,5.31c0.03,5.01,0.07,10.02,0.03,15.02
			c-0.02,3,1.82,3.36,4.17,3.27c2.05-0.08,3.62-0.54,3.56-3.08C252.34,476.6,252.39,473.7,252.39,470.8z M252.44,613.49
			c0-2.1,0-4.2,0-6.29c0-2.89,0.5-5.95-4.08-5.84c-4.78,0.12-3.58,3.57-3.69,6.2c-0.15,3.4-0.2,6.83,0.01,10.22
			c0.18,2.83-1.36,6.97,3.71,7.09c5.82,0.14,3.55-4.52,4.02-7.46C252.61,616.14,252.44,614.8,252.44,613.49z M252.42,281.68
			c0-2.36,0-4.72,0-7.08c-0.01-2.48-0.13-4.77-3.59-4.82c-3.09-0.04-4.19,1.5-4.18,4.34c0.03,4.98,0.02,9.96-0.01,14.94
			c-0.02,2.79,0.95,4.43,4.09,4.42c3.41-0.02,3.69-2.19,3.68-4.73C252.41,286.4,252.42,284.04,252.42,281.68z M252.37,518.43
			c0-2.9,0.02-5.81-0.01-8.71c-0.02-2.22-1.06-3.34-3.4-3.35c-2.43-0.01-4.22,0.61-4.23,3.41c-0.02,5.81-0.04,11.62,0.07,17.42
			c0.04,2.4,1.78,2.92,3.84,2.94c2.09,0.02,3.67-0.58,3.71-3C252.39,524.23,252.35,521.33,252.37,518.43z M252.43,566.15
			c0-2.37-0.02-4.73,0-7.1c0.02-2.8-0.11-5.31-4.05-5.15c-3.32,0.13-3.74,2.19-3.74,4.77c0.01,4.73,0.01,9.46,0,14.19
			c-0.01,2.6,0.47,4.64,3.76,4.77c3.94,0.16,4.04-2.39,4.02-5.18C252.42,570.36,252.43,568.25,252.43,566.15z"/>
		<path class="st1" d="M39.79,699.8c-13.2,0-26.41,0-39.66,0C0.14,468.42,0.16,237.04,0,5.65c0-4.84,1.09-5.8,5.73-5.64
			c11.34,0.4,22.71,0.13,34.06,0.13c-0.06,2.64-0.16,5.28-0.16,7.92c-0.01,227.94-0.01,455.88,0,683.81
			C39.63,694.52,39.74,697.16,39.79,699.8z"/>
		<path class="st1" d="M464.9,0.15c10.31,0,20.63,0.19,30.93-0.1c3.42-0.1,4.68,0.66,4,4.08c-0.2,1.02-0.03,2.11-0.03,3.17
			c0,228.46-0.03,456.91,0.15,685.37c0,5.95-1.3,7.67-7.3,7.29c-9.22-0.58-18.5-0.15-27.75-0.15c0.14-3.42,0.41-6.85,0.41-10.27
			c0.02-226.37,0.02-452.74,0-679.11C465.31,7,465.04,3.57,464.9,0.15z"/>
		<path class="st2" d="M63.59,0.15c0.14,3.16,0.39,6.32,0.39,9.48c0.02,226.9,0.02,453.8,0,680.7c0,3.16-0.26,6.32-0.39,9.48
			c-4.23,0-8.46,0-12.69,0c-0.06-2.38-0.17-4.75-0.17-7.13c-0.01-228.47-0.01-456.93,0-685.4c0-2.38,0.11-4.75,0.17-7.13
			C55.13,0.15,59.36,0.15,63.59,0.15z"/>
		<path class="st2" d="M439.52,699.8c-0.08-2.64-0.24-5.27-0.24-7.91c-0.01-227.94-0.01-455.89,0-683.83c0-2.64,0.16-5.27,0.24-7.91
			c4.23,0,8.46,0,12.69,0c0.11,2.9,0.31,5.8,0.31,8.7c0.01,227.42,0.01,454.84,0,682.26c0,2.9-0.2,5.8-0.31,8.7
			C447.98,699.8,443.75,699.8,439.52,699.8z"/>
		<path class="st0" d="M452.21,699.8c0.11-2.9,0.31-5.8,0.31-8.7c0.01-227.42,0.01-454.84,0-682.26c0-2.9-0.2-5.8-0.31-8.7
			c4.23,0,8.46,0,12.69,0c0.14,3.42,0.41,6.85,0.41,10.27c0.02,226.37,0.02,452.74,0,679.11c0,3.42-0.27,6.85-0.41,10.27
			C460.67,699.8,456.44,699.8,452.21,699.8z"/>
		<path class="st0" d="M50.9,0.15c-0.06,2.38-0.17,4.75-0.17,7.13c-0.01,228.47-0.01,456.93,0,685.4c0,2.38,0.11,4.75,0.17,7.13
			c-3.7,0-7.4,0-11.1,0c-0.06-2.64-0.16-5.28-0.16-7.92c-0.01-227.94-0.01-455.88,0-683.81c0-2.64,0.11-5.28,0.16-7.92
			C43.49,0.15,47.19,0.15,50.9,0.15z"/>
		<path class="st2" d="M252.43,93.55c-1.72,2.89,3.29,9.92-3.51,10.14c-7.9,0.26-3.11-7.11-4.16-10.98
			c-0.66-2.44-0.02-5.22-0.12-7.84c-0.11-2.9,1.05-4.41,4.05-4.48c3.33-0.08,3.82,1.99,3.76,4.63
			C252.38,87.65,252.43,90.27,252.43,93.55z"/>
		<path class="st2" d="M252.42,140.61c-2.12,2.83,4.07,10.59-4.02,10.31c-7.42-0.26-2.42-7.54-3.65-11.48
			c-0.67-2.15-0.06-4.69-0.1-7.06c-0.06-2.68,0.59-4.65,3.8-4.76c3.19-0.12,4.06,1.65,3.99,4.44
			C252.37,134.69,252.42,137.32,252.42,140.61z"/>
		<path class="st2" d="M252.41,187.4c-0.01,2.63-0.06,5.26,0.01,7.89c0.06,2.3-0.97,3.47-3.26,3.38c-2.12-0.09-4.42-0.1-4.44-3.13
			c-0.04-5.52-0.01-11.04-0.02-16.57c0-2.54,1.16-3.86,3.78-3.96c3.24-0.12,4.01,1.75,3.95,4.49
			C252.38,182.14,252.42,184.77,252.41,187.4z"/>
		<path class="st2" d="M252.43,377.79c-1.68,2.92,3.23,9.94-3.51,10.17c-7.88,0.27-3.12-7.11-4.17-10.97
			c-0.66-2.44,0.03-5.22-0.14-7.83c-0.19-3.03,1.18-4.27,4.07-4.4c3.35-0.16,3.85,1.83,3.76,4.52
			C252.36,371.89,252.43,374.52,252.43,377.79z"/>
		<path class="st2" d="M252.39,423.98c0.01,2.62-0.01,5.25,0.01,7.87c0.02,2.13-0.7,3.6-3.09,3.61c-2.17,0.01-4.49-0.04-4.56-2.99
			c-0.12-5.77-0.08-11.54-0.03-17.32c0.03-2.87,2.07-3.27,4.35-3.26c2.26,0.01,3.33,1.17,3.31,3.42
			C252.37,418.21,252.39,421.09,252.39,423.98z"/>
		<path class="st2" d="M252.37,660.11c0,2.89,0.01,5.78,0,8.67c-0.01,2.2-1.05,3.4-3.33,3.45c-2.36,0.05-4.26-0.55-4.3-3.34
			c-0.08-5.51,0-11.03-0.09-16.55c-0.04-2.76,1.51-3.69,3.91-3.8c2.54-0.11,3.94,0.97,3.86,3.69c-0.08,2.62-0.02,5.25-0.02,7.88
			C252.4,660.11,252.38,660.11,252.37,660.11z"/>
		<path class="st2" d="M252.41,46.28c-1.73,2.89,3.35,9.91-3.41,10.22c-7.98,0.37-3.24-7.05-4.23-10.91
			c-0.69-2.71-0.06-5.74-0.11-8.63c-0.05-2.71,1.3-3.7,3.88-3.64c2.45,0.06,4.01,0.77,3.9,3.61
			C252.32,39.82,252.41,42.72,252.41,46.28z"/>
		<path class="st2" d="M252.42,234.63c-0.01,2.62-0.08,5.25,0.01,7.87c0.09,2.87-1.61,3.46-4,3.53c-2.67,0.08-3.8-1.16-3.78-3.77
			c0.04-4.98,0.02-9.97,0-14.95c-0.01-2.57,0.37-4.68,3.67-4.86c3.88-0.21,4.14,2.25,4.11,5.09
			C252.4,229.91,252.43,232.27,252.42,234.63z"/>
		<path class="st2" d="M252.38,328.67c0,2.9,0.02,5.81-0.01,8.71c-0.02,2.1-0.8,3.52-3.21,3.56c-2.35,0.04-4.36-0.41-4.4-3.25
			c-0.09-5.81-0.04-11.61-0.04-17.42c0-2.49,1.6-3.02,3.68-3.01c2.36,0.01,4.16,0.53,4.04,3.49c-0.11,2.64-0.02,5.28-0.02,7.92
			C252.4,328.67,252.39,328.67,252.38,328.67z"/>
		<path class="st2" d="M252.39,470.8c0,2.9-0.05,5.8,0.02,8.7c0.06,2.54-1.51,3-3.56,3.08c-2.36,0.1-4.2-0.27-4.17-3.27
			c0.04-5.01,0-10.01-0.03-15.02c-0.02-2.83,0.21-5.32,4.05-5.31c4.08,0.01,3.69,2.87,3.74,5.5c0.04,2.11,0.01,4.22,0.01,6.33
			C252.42,470.8,252.4,470.8,252.39,470.8z"/>
		<path class="st2" d="M252.44,613.49c0,1.31,0.17,2.65-0.03,3.93c-0.47,2.94,1.8,7.6-4.02,7.46c-5.07-0.12-3.53-4.26-3.71-7.09
			c-0.21-3.4-0.16-6.82-0.01-10.22c0.11-2.63-1.08-6.08,3.69-6.2c4.58-0.11,4.08,2.94,4.08,5.84
			C252.44,609.3,252.44,611.4,252.44,613.49z"/>
		<path class="st2" d="M252.42,281.68c0,2.36-0.01,4.72,0,7.08c0.01,2.54-0.26,4.71-3.68,4.73c-3.14,0.02-4.11-1.63-4.09-4.42
			c0.03-4.98,0.03-9.96,0.01-14.94c-0.02-2.84,1.08-4.39,4.18-4.34c3.46,0.05,3.58,2.33,3.59,4.82
			C252.43,276.96,252.42,279.32,252.42,281.68z"/>
		<path class="st2" d="M252.36,518.43c-0.01,2.9,0.03,5.81-0.02,8.71c-0.04,2.42-1.62,3.02-3.71,3c-2.05-0.02-3.79-0.54-3.84-2.94
			c-0.1-5.81-0.09-11.61-0.07-17.42c0.01-2.8,1.8-3.42,4.23-3.41c2.35,0.01,3.38,1.13,3.4,3.35
			C252.39,512.62,252.37,515.52,252.36,518.43z"/>
		<path class="st2" d="M252.43,566.15c0,2.1-0.01,4.21,0,6.31c0.02,2.78-0.08,5.34-4.02,5.18c-3.29-0.13-3.77-2.17-3.76-4.77
			c0.02-4.73,0.01-9.46,0-14.19c-0.01-2.58,0.41-4.64,3.74-4.77c3.93-0.16,4.07,2.35,4.05,5.15
			C252.41,561.42,252.43,563.79,252.43,566.15z"/>
	</g>
</g>
</svg>
