<?xml version="1.0" encoding="utf-8"?>
<!-- Generator: Adobe Illustrator 24.1.2, SVG Export Plug-In . SVG Version: 6.00 Build 0)  -->
<svg version="1.1" id="Layer_1" xmlns="http://www.w3.org/2000/svg" xmlns:xlink="http://www.w3.org/1999/xlink" x="0px" y="0px"
	 viewBox="0 0 75 146.2" style="enable-background:new 0 0 75 146.2;" xml:space="preserve">
<style type="text/css">
	.st0{fill-rule:evenodd;clip-rule:evenodd;fill:#404041;}
	.st1{fill-rule:evenodd;clip-rule:evenodd;fill:url(#SVGID_1_);}
	.st2{fill-rule:evenodd;clip-rule:evenodd;fill:url(#SVGID_2_);}
	.st3{fill-rule:evenodd;clip-rule:evenodd;fill:url(#SVGID_3_);}
	.st4{fill-rule:evenodd;clip-rule:evenodd;fill:url(#SVGID_4_);}
	.st5{fill-rule:evenodd;clip-rule:evenodd;fill:#58595B;}
	.st6{fill-rule:evenodd;clip-rule:evenodd;fill:url(#SVGID_5_);}
	.st7{fill-rule:evenodd;clip-rule:evenodd;fill:#647178;}
	.st8{fill-rule:evenodd;clip-rule:evenodd;fill:url(#SVGID_6_);}
	.st9{fill-rule:evenodd;clip-rule:evenodd;fill:url(#SVGID_7_);}
	.st10{fill-rule:evenodd;clip-rule:evenodd;fill:#C7DAE4;}
	.st11{fill-rule:evenodd;clip-rule:evenodd;fill:#41444E;}
	.st12{fill-rule:evenodd;clip-rule:evenodd;fill:#2C2E37;}
	.st13{fill-rule:evenodd;clip-rule:evenodd;fill:#00003B;}
	.st14{fill-rule:evenodd;clip-rule:evenodd;fill:url(#SVGID_8_);}
	.st15{fill-rule:evenodd;clip-rule:evenodd;fill:url(#SVGID_9_);}
	.st16{fill-rule:evenodd;clip-rule:evenodd;fill:url(#SVGID_10_);}
	.st17{fill-rule:evenodd;clip-rule:evenodd;fill:url(#SVGID_11_);}
	.st18{fill-rule:evenodd;clip-rule:evenodd;fill:#8E9FA9;}
	.st19{fill-rule:evenodd;clip-rule:evenodd;fill:#94A6B0;}
	.st20{fill-rule:evenodd;clip-rule:evenodd;fill:#8598A3;}
	.st21{fill-rule:evenodd;clip-rule:evenodd;fill:#929497;}
	.st22{fill-rule:evenodd;clip-rule:evenodd;fill:url(#SVGID_12_);}
	.st23{fill-rule:evenodd;clip-rule:evenodd;fill:url(#SVGID_13_);}
	.st24{fill-rule:evenodd;clip-rule:evenodd;fill:url(#SVGID_14_);}
	.st25{fill-rule:evenodd;clip-rule:evenodd;fill:#00000F;}
	.st26{fill:#7E8A92;}
	.st27{fill-rule:evenodd;clip-rule:evenodd;fill:#FFFBD4;}
	.st28{fill-rule:evenodd;clip-rule:evenodd;fill:url(#SVGID_15_);}
	.st29{fill-rule:evenodd;clip-rule:evenodd;fill:#000081;}
</style>
<g>
	<g>
		<path class="st0" d="M11.8,17.7v18.6c0,0.5-0.4,1-0.9,1H9c-0.5,0-0.9-0.4-0.9-1V17.7c0-0.5,0.4-1,0.9-1h1.8
			C11.4,16.7,11.8,17.2,11.8,17.7L11.8,17.7z M66.9,17.7v18.6c0,0.5-0.4,1-0.9,1h-1.8c-0.5,0-0.9-0.4-0.9-1V17.7c0-0.5,0.4-1,0.9-1
			H66C66.5,16.7,66.9,17.2,66.9,17.7z"/>
		
			<linearGradient id="SVGID_1_" gradientUnits="userSpaceOnUse" x1="82.3037" y1="1426.1976" x2="82.3037" y2="1408.2889" gradientTransform="matrix(-1 0 0 1 92.2037 -1389.2847)">
			<stop  offset="0" style="stop-color:#404041"/>
			<stop  offset="0.27" style="stop-color:#808184"/>
			<stop  offset="0.54" style="stop-color:#A6A8AB"/>
			<stop  offset="1" style="stop-color:#231F20"/>
		</linearGradient>
		<path class="st1" d="M11.4,17.7v18.6c0,0.3-0.3,0.6-0.6,0.6H9c-0.3,0-0.6-0.3-0.6-0.6V17.7c0-0.3,0.3-0.6,0.6-0.6h1.8
			C11.2,17.1,11.4,17.4,11.4,17.7z"/>
		
			<linearGradient id="SVGID_2_" gradientUnits="userSpaceOnUse" x1="27.1037" y1="1426.1976" x2="27.1037" y2="1408.2889" gradientTransform="matrix(-1 0 0 1 92.2037 -1389.2847)">
			<stop  offset="0" style="stop-color:#404041"/>
			<stop  offset="0.27" style="stop-color:#808184"/>
			<stop  offset="0.54" style="stop-color:#A6A8AB"/>
			<stop  offset="1" style="stop-color:#231F20"/>
		</linearGradient>
		<path class="st2" d="M66.6,17.7v18.6c0,0.3-0.3,0.6-0.6,0.6h-1.8c-0.3,0-0.6-0.3-0.6-0.6V17.7c0-0.3,0.3-0.6,0.6-0.6H66
			C66.3,17.1,66.6,17.4,66.6,17.7z"/>
		<path class="st0" d="M10,103.3v20.1c0,0.6-0.4,1.1-0.9,1.1H7.2c-0.5,0-0.9-0.5-0.9-1.1v-20.1c0-0.6,0.4-1.1,0.9-1.1H9
			C9.5,102.3,10,102.7,10,103.3L10,103.3z M68.8,103.3v20.1c0,0.6-0.4,1.1-0.9,1.1H66c-0.5,0-0.9-0.5-0.9-1.1v-20.1
			c0-0.6,0.4-1.1,0.9-1.1h1.9C68.3,102.3,68.8,102.7,68.8,103.3z"/>
		
			<linearGradient id="SVGID_3_" gradientUnits="userSpaceOnUse" x1="84.1037" y1="1513.3575" x2="84.1037" y2="1494.0117" gradientTransform="matrix(-1 0 0 1 92.2037 -1389.2847)">
			<stop  offset="0" style="stop-color:#404041"/>
			<stop  offset="0.27" style="stop-color:#808184"/>
			<stop  offset="0.54" style="stop-color:#A6A8AB"/>
			<stop  offset="1" style="stop-color:#231F20"/>
		</linearGradient>
		<path class="st3" d="M9.6,103.3v20.1c0,0.4-0.3,0.7-0.6,0.7H7.2c-0.3,0-0.6-0.3-0.6-0.7v-20.1c0-0.4,0.3-0.7,0.6-0.7H9
			C9.3,102.6,9.6,102.9,9.6,103.3z"/>
		
			<linearGradient id="SVGID_4_" gradientUnits="userSpaceOnUse" x1="25.3037" y1="1513.3575" x2="25.3037" y2="1494.0117" gradientTransform="matrix(-1 0 0 1 92.2037 -1389.2847)">
			<stop  offset="0" style="stop-color:#404041"/>
			<stop  offset="0.27" style="stop-color:#808184"/>
			<stop  offset="0.54" style="stop-color:#A6A8AB"/>
			<stop  offset="1" style="stop-color:#231F20"/>
		</linearGradient>
		<path class="st4" d="M68.4,103.3v20.1c0,0.4-0.3,0.7-0.6,0.7H66c-0.3,0-0.6-0.3-0.6-0.7v-20.1c0-0.4,0.3-0.7,0.6-0.7h1.9
			C68.2,102.6,68.4,102.9,68.4,103.3z"/>
		<path class="st5" d="M64.9,14.2c0,1,0,1.9,0.1,2.9l0,0l0,0c-0.2,3.8-0.4,7.7-0.3,11.5c0,2.8,0.2,5.8,0.8,8.5l0,0l0,0
			c0.4,18.1,0.8,46.3,1.2,64.5l0,0l0,0c-0.3,7.5-0.7,15.1,0.5,22.6l0,0l0.1,4.1c0.1,4.5-10.2,15-14.7,15h-30
			c-4.5,0-14.8-10.5-14.7-15c0-1.4,0.1-2.8,0.1-4.1l0,0l0,0c1-7.5,1.2-14.9,0.5-22.4l0,0l0,0c0.4-18.1,0.7-46.3,1.2-64.5l0,0l0,0
			c0.4-2.8,0.6-5.6,0.7-8.4c0.1-3.9-0.1-7.9-0.3-11.8l0,0l0,0c0-0.9,0-1.8,0.1-2.7c0-0.6,0.1-1.1,0.3-1.7c1.2-4,6.1-6.2,9.7-7.4
			C25.6,3.5,32,2.9,37.7,2.9s12,0.6,17.4,2.4c3.6,1.2,8.5,3.4,9.7,7.4C64.8,13,64.9,13.6,64.9,14.2z"/>
		
			<linearGradient id="SVGID_5_" gradientUnits="userSpaceOnUse" x1="84.7501" y1="1462.3075" x2="25.4026" y2="1462.3075" gradientTransform="matrix(-1 0 0 1 92.2037 -1389.2847)">
			<stop  offset="0" style="stop-color:#778A95"/>
			<stop  offset="0.14" style="stop-color:#C1CFD6"/>
			<stop  offset="0.87" style="stop-color:#B4C2CA"/>
			<stop  offset="1" style="stop-color:#788B95"/>
		</linearGradient>
		<path class="st6" d="M64.6,14.2c0,1,0,1.9,0.1,2.9c-0.5,8.6-0.5,15.5,0.4,20.1c0.4,18.1,0.8,46.3,1.2,64.5
			c-0.3,7.6-0.7,15.1,0.5,22.7l0.1,4c0.1,4.4-10.1,14.7-14.4,14.7H22.6c-4.2,0-14.5-10.3-14.4-14.7c0-1.4,0.1-2.8,0.1-4.1
			c0.9-6.8,1.2-14.3,0.5-22.5C9.2,83.7,9.6,55.5,10,37.3c0.7-4.8,1-11.1,0.4-20.3c0-0.9,0-1.8,0.1-2.7C10.7-0.7,64.3-0.8,64.6,14.2z
			"/>
		<path class="st7" d="M10.1,100.2c0.2-9.3,0.4-18.5,0.7-27.8l0,0l0,0c0-0.3,0.2-0.6,0.4-0.8c1.2-0.9,3,1.2,3.6,2
			c0.4,0.6,0.8,1.3,1,2.1v0.1v0.1c0,3.2,0.2,6.5,0.2,9.7c0,5.2-0.6,11.5-4.6,15.2l-1.4,1.3L10.1,100.2z"/>
		
			<linearGradient id="SVGID_6_" gradientUnits="userSpaceOnUse" x1="76.9998" y1="1475.4369" x2="81.3387" y2="1475.4369" gradientTransform="matrix(-1 0 0 1 92.2037 -1389.2847)">
			<stop  offset="0" style="stop-color:#FFFFFF"/>
			<stop  offset="1" style="stop-color:#5CDDFF"/>
		</linearGradient>
		<path class="st8" d="M10.9,100.2c5.8-5.4,4.1-16.7,4.1-24.4c-0.4-2.1-3.3-4.4-3.5-3.4C11.3,81.9,11.1,90.8,10.9,100.2z"/>
		<path class="st7" d="M65.7,100.2c-0.2-9.3-0.4-18.5-0.7-27.8l0,0l0,0c0-0.3-0.2-0.6-0.4-0.8c-1.2-0.9-3,1.2-3.6,2
			c-0.4,0.6-0.8,1.3-1,2.1v0.1v0.1c0,3.2-0.2,6.5-0.2,9.7c0,5.2,0.6,11.5,4.6,15.2l1.4,1.3L65.7,100.2z"/>
		
			<linearGradient id="SVGID_7_" gradientUnits="userSpaceOnUse" x1="27.326" y1="1475.4369" x2="31.6642" y2="1475.4369" gradientTransform="matrix(-1 0 0 1 92.2037 -1389.2847)">
			<stop  offset="0" style="stop-color:#FFFFFF"/>
			<stop  offset="1" style="stop-color:#5CDDFF"/>
		</linearGradient>
		<path class="st9" d="M64.9,100.2c-5.8-5.4-4.1-16.7-4.1-24.4c0.4-2.1,3.3-4.4,3.5-3.4C64.4,81.9,64.7,90.8,64.9,100.2z"/>
		<path class="st10" d="M12.7,39.3c0.5-7,0.8-14,0.9-21c0-0.2,0-0.7-0.1-0.9c0-0.1-0.1-0.1-0.1-0.1c-0.1,0-0.2,0-0.3-0.1
			c-0.6-0.2-0.6-0.9-0.6-1.4c0-0.7,0.9-1.7,1.4-2.2c0.3-0.3,1.2-1.4,1.2-1.8c0-2.5,5.4-3.6,7.1-4c2.3-0.5,4.7-0.8,7.1-1
			c2.7-0.2,5.4-0.4,8.2-0.4c2.7,0,5.5,0.1,8.2,0.3c2.4,0.2,4.8,0.4,7.1,0.9C54.7,8,60,9.1,60,11.8c0,0.4,1,1.5,1.2,1.8
			c0.4,0.5,1.3,1.5,1.4,2.2c0,0.5,0,1.2-0.6,1.4c-0.1,0-0.2,0-0.3,0.1c-0.1,0-0.1,0-0.2,0.1c-0.1,0.2-0.1,0.7-0.1,0.9
			c0.1,7,0.4,14,0.9,21c0.3,4.5,0.6,21.4,0.9,25.8c0.1,1.8-1.3,3.6-3.1,3.5H60c-13.3-3.7-31.7-3.4-45.1,0h-0.1
			c-1.9,0.1-3.3-1.7-3.1-3.5C12.1,60.7,12.4,43.8,12.7,39.3z"/>
		<path class="st11" d="M13.9,18.3c0-2.4-1.2-0.3-1.1-2.5c0-1,2.6-3.1,2.6-4c-0.1-6.4,44.3-7.1,44.3,0c0,0.9,2.6,3.1,2.6,4
			c0,2.2-1.2,0.1-1.1,2.5c0.1,12.6,1,35.2,1.8,46.9c0.1,1.6-1.1,3.3-2.8,3.2c-13.3-3.7-31.9-3.4-45.2,0c-1.7,0.1-2.9-1.6-2.8-3.2
			C12.9,53.5,13.7,30.9,13.9,18.3z"/>
		<path class="st12" d="M58.4,14.3c0.4,19.9,2.3,39.9,3,50.1c0.1,1.6-1.1,2.3-2.6,1.8c-12.5-4.4-33.2-3.8-42.7,0
			c-1.5,0.6-2.7-0.2-2.6-1.8c0.8-10.2,2.7-30.2,3.1-50.1c6.6-2,13.6-3.2,20.9-3.2C44.8,11.2,51.9,12.3,58.4,14.3z"/>
		<path class="st13" d="M56.7,15.7C50.5,13.9,44,13,37.5,13s-13,0.9-19.2,2.7c-0.2,7.5-0.6,15-1.4,22.5c-0.5,5.4-1.2,21-1.6,26.4
			l0,0h0.1c3.5-1.4,7.5-2.1,11.2-2.6c4.6-0.6,9.3-0.7,13.9-0.5c6.2,0.2,12.9,1.1,18.8,3.1c0,0,0.1,0,0.2,0.1l0,0
			c-0.3-5.4-1-21-1.6-26.4C57.3,30.6,56.9,23.2,56.7,15.7z"/>
		<path class="st7" d="M62.6,128c0.2,4.2-8.4,13.1-11.3,13.1H23.6c-3.1-0.4-11.4-8.6-11.2-13.1c1.1-4.4,1.9-10.3,1.4-20.6
			c14.6,5.1,32.9,5,47.5,0C60.9,114.6,61.2,121.5,62.6,128z"/>
		
			<linearGradient id="SVGID_8_" gradientUnits="userSpaceOnUse" x1="80.1365" y1="1513.5576" x2="29.9025" y2="1513.5576" gradientTransform="matrix(-1 0 0 1 92.2037 -1389.2847)">
			<stop  offset="0" style="stop-color:#778A95"/>
			<stop  offset="0.14" style="stop-color:#C1CFD6"/>
			<stop  offset="0.87" style="stop-color:#B4C2CA"/>
			<stop  offset="1" style="stop-color:#788B95"/>
		</linearGradient>
		<path class="st14" d="M12.7,128c-0.1,4.3,8,12.3,11,12.7c7.1,0,20.6,0,27.7,0c3-0.4,11-8.4,11-12.7c-1.4-5.5-1.7-12.4-1.3-20.1
			c-14.2,5.9-32.8,5.9-46.9,0C14.7,117.2,13.9,123.1,12.7,128z"/>
		
			<linearGradient id="SVGID_9_" gradientUnits="userSpaceOnUse" x1="70.6213" y1="1514.9575" x2="39.184" y2="1514.9575" gradientTransform="matrix(-1 0 0 1 92.2037 -1389.2847)">
			<stop  offset="0" style="stop-color:#778A95"/>
			<stop  offset="0.14" style="stop-color:#C1CFD6"/>
			<stop  offset="0.87" style="stop-color:#B4C2CA"/>
			<stop  offset="1" style="stop-color:#788B95"/>
		</linearGradient>
		<path class="st15" d="M23.3,140.6c0.1,0,0.2,0.1,0.3,0.1c7.1,0,20.6,0,27.7,0c0.1,0,0.2,0,0.3-0.1c0.9-5.1,1.3-10.8,1.3-16.8
			c0-4.6-0.3-9-0.8-13.1c-9.5,2.2-20,2.2-29.4,0c-0.5,4.1-0.8,8.5-0.8,13.1C22,129.8,22.5,135.5,23.3,140.6z"/>
		<path class="st7" d="M61.8,105.5c0.2,0.9-0.4,1.8-1.3,2.1c-3.5,1-7.2,1.7-10.8,2.1c-4,0.5-8.1,0.7-12.1,0.8
			c-4.1,0-8.1-0.2-12.2-0.7c-3.7-0.4-7.4-1.1-10.9-2.2c-0.9-0.3-1.5-1.1-1.3-2.1c0.8-4.8,1.9-8,2.7-12.8c0.2-1,1.2-1.7,2.2-1.5
			c10.7,1.7,28,1.7,38.7,0c1-0.2,2,0.5,2.2,1.5C59.9,97.6,61,100.8,61.8,105.5z"/>
		
			<radialGradient id="SVGID_10_" cx="21.5848" cy="1455.8241" r="25.8213" gradientTransform="matrix(-1.0486 0 0 1.0486 62.0119 -1443.2708)" gradientUnits="userSpaceOnUse">
			<stop  offset="0" style="stop-color:#AEB0B3"/>
			<stop  offset="1" style="stop-color:#808184"/>
		</radialGradient>
		<path class="st16" d="M61,105.7c0.1,0.5-0.2,1-0.7,1.1c-12.9,3.7-32.6,4-45.5,0c-0.5-0.2-0.8-0.6-0.7-1.1
			c0.9-5.2,1.8-7.5,2.7-12.8c0.1-0.5,0.6-0.9,1.2-0.8c10.7,1.7,28.3,1.7,39,0c0.6-0.1,1.1,0.3,1.2,0.8
			C59.2,98.2,60.1,100.5,61,105.7z"/>
		
			<radialGradient id="SVGID_11_" cx="21.6981" cy="1456.1763" r="29.7388" gradientTransform="matrix(-1.0486 0 0 1.0486 62.0119 -1443.2708)" gradientUnits="userSpaceOnUse">
			<stop  offset="0" style="stop-color:#FFFFFF"/>
			<stop  offset="1" style="stop-color:#5CDDFF"/>
		</radialGradient>
		<path class="st17" d="M61,105.7c0,0.3,0,0.6-0.2,0.8c-12.8,3.7-32.5,3.9-45.3-0.1c-0.5-0.2-0.8-0.6-0.7-1.1
			c0.9-5.2,1.8-7.5,2.7-12.8c0-0.2,0.1-0.3,0.2-0.4c0.1,0,0.2,0,0.3,0c10.7,1.7,28.3,1.7,39,0c0.6-0.1,1.1,0.3,1.2,0.8
			C59.2,98.2,60.1,100.5,61,105.7z"/>
		<path class="st7" d="M72,96.9c0.2,0.7,0.3,1.4-0.1,2c-0.5,0.8-1.6,1.1-2.4,1.4c-1.2,0.3-2.4,0.6-3.5,0.9c-0.4,0.1-0.8,0.3-1.2,0.5
			l-0.3,0.1l-0.1-0.3c-0.2-0.8-0.5-1.7-0.7-2.5l-0.1-0.2l0.3-0.1c2.6-0.7,5.2-1.3,7.8-2l0.2-0.1L72,96.9z"/>
		<path class="st18" d="M71.8,97c1.2,3.3-3.6,2.9-7.1,4.5c-0.2-0.8-0.5-1.7-0.7-2.5C66.6,98.3,69.2,97.7,71.8,97z"/>
		<polygon class="st7" points="65.5,98.3 66.3,101.3 65.2,101.6 64.4,98.6 		"/>
		<polygon class="st19" points="65.3,98.6 66,101.1 65.4,101.3 64.7,98.8 		"/>
		<path class="st7" d="M3,96.9c-0.2,0.7-0.3,1.4,0.1,2c0.5,0.8,1.6,1.1,2.4,1.4c1.2,0.3,2.4,0.6,3.5,0.9c0.4,0.1,0.8,0.3,1.2,0.5
			l0.3,0.1l0.1-0.3c0.2-0.8,0.5-1.7,0.7-2.5l0.1-0.2l-0.3-0.1c-2.6-0.7-5.2-1.3-7.8-2l-0.2-0.1L3,96.9z"/>
		<path class="st18" d="M3.2,97c-1.2,3.3,3.6,2.9,7.1,4.5c0.2-0.8,0.5-1.7,0.7-2.5C8.4,98.3,5.8,97.7,3.2,97z"/>
		<polygon class="st7" points="9.5,98.3 8.7,101.3 9.8,101.6 10.6,98.6 		"/>
		<polygon class="st20" points="9.7,98.6 9,101.1 9.6,101.3 10.3,98.8 		"/>
		<path class="st21" d="M64.8,73.9c0,0.4,0.1,2.2-0.3,2.2h-0.4L64,72.8C64.6,72.7,64.8,73.3,64.8,73.9z"/>
		
			<linearGradient id="SVGID_12_" gradientUnits="userSpaceOnUse" x1="27.7881" y1="1462.0983" x2="27.7343" y2="1465.1885" gradientTransform="matrix(-1 0 0 1 92.2037 -1389.2847)">
			<stop  offset="0" style="stop-color:#D0D2D3"/>
			<stop  offset="0.11" style="stop-color:#F1F1F2"/>
			<stop  offset="0.68" style="stop-color:#F1F1F2"/>
			<stop  offset="1" style="stop-color:#D0D2D3"/>
		</linearGradient>
		<path class="st22" d="M64.2,72.9c0.4,0,0.5,0.7,0.5,1c0,0.4,0.1,2-0.2,2c-0.1,0-0.1,0-0.3,0C64.3,74.9,64.2,73.9,64.2,72.9z"/>
		<path class="st21" d="M10.1,73.9c0,0.4-0.1,2.2,0.3,2.2h0.4l0.1-3.3C10.4,72.7,10.2,73.3,10.1,73.9z"/>
		
			<linearGradient id="SVGID_13_" gradientUnits="userSpaceOnUse" x1="81.6708" y1="1465.0543" x2="81.6172" y2="1461.9878" gradientTransform="matrix(-1 0 0 1 92.2037 -1389.2847)">
			<stop  offset="0" style="stop-color:#D0D2D3"/>
			<stop  offset="0.11" style="stop-color:#F1F1F2"/>
			<stop  offset="0.68" style="stop-color:#F1F1F2"/>
			<stop  offset="1" style="stop-color:#D0D2D3"/>
		</linearGradient>
		<path class="st23" d="M10.8,72.9c-0.4,0-0.5,0.7-0.5,1c0,0.4-0.1,2,0.2,2c0.1,0,0.1,0,0.3,0C10.7,74.9,10.7,73.9,10.8,72.9z"/>
		
			<linearGradient id="SVGID_14_" gradientUnits="userSpaceOnUse" x1="76.3397" y1="1472.3075" x2="31.7208" y2="1472.3075" gradientTransform="matrix(-1 0 0 1 92.2037 -1389.2847)">
			<stop  offset="0" style="stop-color:#778A95"/>
			<stop  offset="0.2676" style="stop-color:#C1CFD6"/>
			<stop  offset="0.7647" style="stop-color:#B4C2CA"/>
			<stop  offset="1" style="stop-color:#788B95"/>
		</linearGradient>
		<path class="st24" d="M53.6,91.3c-10.5,0.8-21.8,0.8-32.3,0c-6-0.5-5.1-0.3-4.6-3.9c0.4-3,0.1-6.2,0.2-9.3c0-5.2,41.1-5.2,41.1,0
			c0,3.3-0.3,6.7,0.3,9.9C58.9,91,59.1,90.9,53.6,91.3z"/>
		<path class="st25" d="M25.3,142.7c0.1,0,0.2,0,0.3,0h23.7c0.1,0,0.2,0,0.3,0v-0.2c-0.1,0-0.2,0-0.3,0H25.7c-0.1,0-0.2,0-0.3,0v0.2
			H25.3z M26.5,142.2c0.1,0,0.2,0,0.3,0h21.4c0.1,0,0.2,0,0.3,0V142c-0.1,0-0.2,0-0.3,0H26.8c-0.1,0-0.2,0-0.3,0V142.2z"/>
		<g>
			<g>
				<path class="st26" d="M52.6,89.8c0,0.3,2.7,0.3,2.7,0c-0.7-4.3-1-8.7-0.9-13c0-0.4-2.7-0.3-2.7,0C52.6,81.2,52.9,85.5,52.6,89.8
					z"/>
			</g>
			<g>
				<path class="st26" d="M19.8,89.8c-0.1,0.4,2.7,0.4,2.7,0c-0.4-4.2,0-8.6,0.9-13c0.1-0.4-2.6-0.4-2.7,0
					C20.8,81.1,20.5,85.4,19.8,89.8z"/>
			</g>
		</g>
		<path class="st7" d="M21.6,143.3c-2,0.4-4.7-1.5-6.1-2.7c-1.3-1-3.6-3.2-4.1-4.9l-0.1-0.2l0.9-0.5l0.2,0.2
			c2.6,2.8,5.8,5.2,9.3,6.8l0.1,0.1l0.1,1.2L21.6,143.3z"/>
		<path class="st27" d="M21.6,143l-0.1-0.7c-1.1-0.5-5.2-2.4-9.4-6.9l-0.5,0.3C12.4,138,18.6,143.6,21.6,143z"/>
		<path class="st7" d="M53.4,143.3c2,0.4,4.7-1.5,6.1-2.7c1.3-1,3.6-3.2,4.1-4.9l0.1-0.2l-0.9-0.5l-0.2,0.2
			c-2.6,2.8-5.8,5.2-9.3,6.8l-0.1,0.1l-0.1,1.2L53.4,143.3z"/>
		<path class="st27" d="M53.4,143l0.1-0.7c1.1-0.5,5.2-2.4,9.4-6.9l0.5,0.3C62.6,138,56.4,143.6,53.4,143z"/>
		<path class="st7" d="M21.6,142.4c-2,0.4-4.7-1.6-6.1-2.8c-1.3-1.1-3.6-3.4-4.1-5.1l-0.1-0.2l0.9-0.5l0.2,0.2
			c2.6,3,5.8,5.4,9.3,7.2l0.1,0.1l0.1,1.2L21.6,142.4z"/>
		<path class="st27" d="M21.6,142.1l-0.1-0.8c-1.1-0.5-5.2-2.6-9.4-7.2l-0.5,0.3C12.4,136.9,18.6,142.8,21.6,142.1z"/>
		<path class="st7" d="M53.4,142.4c2,0.4,4.7-1.6,6.1-2.8c1.3-1.1,3.6-3.4,4.1-5.1l0.1-0.2l-0.9-0.5l-0.2,0.2
			c-2.6,3-5.8,5.4-9.3,7.2l-0.1,0.1l-0.1,1.2L53.4,142.4z"/>
		<path class="st27" d="M53.4,142.1l0.1-0.8c1.1-0.5,5.2-2.6,9.4-7.2l0.5,0.3C62.6,136.9,56.4,142.8,53.4,142.1z"/>
		<path class="st7" d="M59.5,69.8c0.6,0.1,1.2,0.3,1.2,1c0,0.2,0,0.3-0.1,0.5c-0.7,1.3-1.5,2.4-2.1,3.7c-0.3,0.6-1.4,0.8-1.9,0.6
			c-8.2-3-29.7-2.9-38,0h-0.1h-0.1c-0.6,0-1.4-0.1-1.7-0.6c-0.7-1.3-1.5-2.4-2.1-3.7c-0.1-0.2-0.1-0.3-0.1-0.5
			c0.1-0.6,0.6-0.7,1.1-0.9c3.1-1,6.6-1.6,9.8-1.9c4.1-0.4,8.2-0.6,12.2-0.6c4.1,0,8.2,0.2,12.2,0.6C52.9,68.3,56.4,68.9,59.5,69.8z
			"/>
		
			<linearGradient id="SVGID_15_" gradientUnits="userSpaceOnUse" x1="54.4219" y1="1464.3231" x2="55.1444" y2="1456.1945" gradientTransform="matrix(-1 0 0 1 92.2037 -1389.2847)">
			<stop  offset="0" style="stop-color:#FFFFFF"/>
			<stop  offset="1" style="stop-color:#5CDDFF"/>
		</linearGradient>
		<path class="st28" d="M57.7,74.6c0.7-1.3,1.4-2.3,2.1-3.7c0.1-0.1-0.2-0.2-0.6-0.3c-10.1-3.3-33.5-3.4-43.6,0
			c-0.3,0.1-0.6,0.2-0.6,0.3c0.7,1.4,1.4,2.3,2.1,3.7c0.1,0.1,0.5,0.2,1,0.2c8.4-2.9,30.1-3.1,38.5,0C57.1,74.9,57.7,74.7,57.7,74.6
			z"/>
		<path class="st29" d="M49.3,59.7c-0.3-4.8-0.5-20.3-0.5-26s0.2-11.1,0.5-15.9c0.3,4.8,0.5,10.2,0.5,15.9
			C49.9,39.4,49.7,54.9,49.3,59.7L49.3,59.7z M41.4,59.7c-0.3-4.8-0.5-20.3-0.5-26s0.2-11.1,0.5-15.9c0.3,4.8,0.5,10.2,0.5,15.9
			C42,39.4,41.8,54.9,41.4,59.7L41.4,59.7z M33.6,59.7c-0.3-4.8-0.5-20.3-0.5-26s0.2-11.1,0.5-15.9c0.3,4.8,0.5,10.2,0.5,15.9
			S33.9,54.9,33.6,59.7L33.6,59.7z M25.7,59.7c-0.3-4.8-0.5-20.3-0.5-26s0.2-11.1,0.5-15.9c0.3,4.8,0.5,10.2,0.5,15.9
			S26,54.9,25.7,59.7z"/>
	</g>
</g>
</svg>
