<?xml version="1.0" encoding="utf-8"?>
<!-- Generator: Adobe Illustrator 24.1.2, SVG Export Plug-In . SVG Version: 6.00 Build 0)  -->
<svg version="1.1" id="Layer_1" xmlns="http://www.w3.org/2000/svg" xmlns:xlink="http://www.w3.org/1999/xlink" x="0px" y="0px"
	 viewBox="0 0 75 145" style="enable-background:new 0 0 75 145;" xml:space="preserve">
<style type="text/css">
	.st0{fill-rule:evenodd;clip-rule:evenodd;fill:#404041;}
	.st1{fill-rule:evenodd;clip-rule:evenodd;fill:url(#SVGID_1_);}
	.st2{fill-rule:evenodd;clip-rule:evenodd;fill:url(#SVGID_2_);}
	.st3{fill-rule:evenodd;clip-rule:evenodd;fill:url(#SVGID_3_);}
	.st4{fill-rule:evenodd;clip-rule:evenodd;fill:url(#SVGID_4_);}
	.st5{fill-rule:evenodd;clip-rule:evenodd;fill:#630000;}
	.st6{fill-rule:evenodd;clip-rule:evenodd;fill:url(#SVGID_5_);}
	.st7{fill-rule:evenodd;clip-rule:evenodd;fill:url(#SVGID_6_);}
	.st8{fill-rule:evenodd;clip-rule:evenodd;fill:#810000;}
	.st9{fill-rule:evenodd;clip-rule:evenodd;fill:url(#SVGID_7_);}
	.st10{fill-rule:evenodd;clip-rule:evenodd;fill:url(#SVGID_8_);}
	.st11{fill-rule:evenodd;clip-rule:evenodd;fill:url(#SVGID_9_);}
	.st12{fill-rule:evenodd;clip-rule:evenodd;fill:url(#SVGID_10_);}
	.st13{fill-rule:evenodd;clip-rule:evenodd;fill:#A30D11;}
	.st14{fill-rule:evenodd;clip-rule:evenodd;fill:url(#SVGID_11_);}
	.st15{fill-rule:evenodd;clip-rule:evenodd;fill:url(#SVGID_12_);}
	.st16{fill-rule:evenodd;clip-rule:evenodd;fill:url(#SVGID_13_);}
	.st17{fill-rule:evenodd;clip-rule:evenodd;fill:url(#SVGID_14_);}
	.st18{fill-rule:evenodd;clip-rule:evenodd;fill:url(#SVGID_15_);}
	.st19{fill-rule:evenodd;clip-rule:evenodd;fill:url(#SVGID_16_);}
	.st20{fill-rule:evenodd;clip-rule:evenodd;fill:url(#SVGID_17_);}
	.st21{fill-rule:evenodd;clip-rule:evenodd;fill:#929497;}
	.st22{fill-rule:evenodd;clip-rule:evenodd;fill:url(#SVGID_18_);}
	.st23{fill-rule:evenodd;clip-rule:evenodd;fill:url(#SVGID_19_);}
	.st24{fill-rule:evenodd;clip-rule:evenodd;fill:url(#SVGID_20_);}
	.st25{fill-rule:evenodd;clip-rule:evenodd;fill:url(#SVGID_21_);}
	.st26{fill-rule:evenodd;clip-rule:evenodd;fill:url(#SVGID_22_);}
	.st27{fill-rule:evenodd;clip-rule:evenodd;fill:#AA0F14;}
	.st28{fill-rule:evenodd;clip-rule:evenodd;fill:url(#SVGID_23_);}
	.st29{fill-rule:evenodd;clip-rule:evenodd;fill:#B01117;}
	.st30{fill-rule:evenodd;clip-rule:evenodd;fill:url(#SVGID_24_);}
	.st31{fill-rule:evenodd;clip-rule:evenodd;fill:url(#SVGID_25_);}
	.st32{fill-rule:evenodd;clip-rule:evenodd;fill:url(#SVGID_26_);}
	.st33{fill-rule:evenodd;clip-rule:evenodd;fill:url(#SVGID_27_);}
	.st34{fill-rule:evenodd;clip-rule:evenodd;fill:url(#SVGID_28_);}
	.st35{fill-rule:evenodd;clip-rule:evenodd;fill:#FFFBD4;}
</style>
<g>
	<g>
		<path class="st0" d="M13.3,19.6v19c0,0.6-0.4,1-1,1h-2c-0.6,0-1-0.4-1-1v-19c0-0.6,0.4-1,1-1h2C12.8,18.6,13.3,19.1,13.3,19.6z"/>
		
			<linearGradient id="SVGID_1_" gradientUnits="userSpaceOnUse" x1="-44.9999" y1="1782.674" x2="-44.9999" y2="1764.4082" gradientTransform="matrix(-1 0 0 1 -33.6499 -1743.4769)">
			<stop  offset="0" style="stop-color:#404041"/>
			<stop  offset="0.27" style="stop-color:#808184"/>
			<stop  offset="0.54" style="stop-color:#A6A8AB"/>
			<stop  offset="1" style="stop-color:#231F20"/>
		</linearGradient>
		<path class="st1" d="M12.9,19.6v19c0,0.4-0.3,0.6-0.6,0.6h-2c-0.4,0-0.6-0.3-0.6-0.6v-19c0-0.4,0.3-0.6,0.6-0.6h2
			C12.6,19,12.9,19.3,12.9,19.6z"/>
		<path class="st0" d="M65.6,19.6v19c0,0.6-0.4,1-1,1h-2c-0.6,0-1-0.4-1-1v-19c0-0.6,0.4-1,1-1h2C65.2,18.6,65.6,19.1,65.6,19.6z"/>
		
			<linearGradient id="SVGID_2_" gradientUnits="userSpaceOnUse" x1="-97.3999" y1="1782.674" x2="-97.3999" y2="1764.4082" gradientTransform="matrix(-1 0 0 1 -33.6499 -1743.4769)">
			<stop  offset="0" style="stop-color:#404041"/>
			<stop  offset="0.27" style="stop-color:#808184"/>
			<stop  offset="0.54" style="stop-color:#A6A8AB"/>
			<stop  offset="1" style="stop-color:#231F20"/>
		</linearGradient>
		<path class="st2" d="M65.3,19.6v19c0,0.4-0.3,0.6-0.6,0.6h-2c-0.3,0-0.6-0.3-0.6-0.6v-19c0-0.4,0.3-0.6,0.6-0.6h2
			C65,19,65.3,19.3,65.3,19.6z"/>
		<path class="st0" d="M11.8,99.6v19c0,0.6-0.4,1-1,1h-2c-0.6,0-1-0.4-1-1v-19c0-0.5,0.4-1,1-1h2C11.3,98.6,11.8,99.1,11.8,99.6z"/>
		
			<linearGradient id="SVGID_3_" gradientUnits="userSpaceOnUse" x1="-43.4999" y1="1862.6827" x2="-43.4999" y2="1844.4166" gradientTransform="matrix(-1 0 0 1 -33.6499 -1743.4769)">
			<stop  offset="0" style="stop-color:#404041"/>
			<stop  offset="0.27" style="stop-color:#808184"/>
			<stop  offset="0.54" style="stop-color:#A6A8AB"/>
			<stop  offset="1" style="stop-color:#231F20"/>
		</linearGradient>
		<path class="st3" d="M11.4,99.6v19c0,0.4-0.3,0.6-0.6,0.6h-2c-0.3,0-0.6-0.3-0.6-0.6v-19c0-0.4,0.3-0.6,0.6-0.6h2
			C11.1,99,11.4,99.3,11.4,99.6z"/>
		<path class="st0" d="M67.2,99.6v19c0,0.6-0.4,1-1,1h-2c-0.6,0-1-0.4-1-1v-19c0-0.5,0.4-1,1-1h2C66.8,98.6,67.2,99.1,67.2,99.6z"/>
		
			<linearGradient id="SVGID_4_" gradientUnits="userSpaceOnUse" x1="-98.8999" y1="1862.6827" x2="-98.8999" y2="1844.4166" gradientTransform="matrix(-1 0 0 1 -33.6499 -1743.4769)">
			<stop  offset="0" style="stop-color:#404041"/>
			<stop  offset="0.27" style="stop-color:#808184"/>
			<stop  offset="0.54" style="stop-color:#A6A8AB"/>
			<stop  offset="1" style="stop-color:#231F20"/>
		</linearGradient>
		<path class="st4" d="M66.8,99.6v19c0,0.4-0.3,0.6-0.6,0.6h-2c-0.4,0-0.6-0.3-0.6-0.6v-19c0-0.4,0.3-0.6,0.6-0.6h2
			C66.5,99,66.8,99.3,66.8,99.6z"/>
		<path class="st5" d="M63.5,16.1l2.4,112.5c0.1,4.9-11.1,12.9-16,12.9H25c-4.9,0-16.1-8-16-12.9l2.4-112.4
			C11.8-0.5,63.2-0.7,63.5,16.1z"/>
		
			<linearGradient id="SVGID_5_" gradientUnits="userSpaceOnUse" x1="-42.8933" y1="1815.9583" x2="-99.2337" y2="1815.9583" gradientTransform="matrix(-1 0 0 1 -33.6499 -1743.4769)">
			<stop  offset="0" style="stop-color:#570000"/>
			<stop  offset="6.462370e-02" style="stop-color:#980000"/>
			<stop  offset="0.4946" style="stop-color:#FF0000"/>
			<stop  offset="0.93" style="stop-color:#8D0006"/>
			<stop  offset="1" style="stop-color:#560000"/>
		</linearGradient>
		<path class="st6" d="M63.1,16.1l2.4,112.4c0.1,4.7-11,12.6-15.6,12.6H25c-4.6,0-15.7-7.8-15.6-12.6l2.4-112.4
			C12.2,0,62.8-0.2,63.1,16.1z"/>
		
			<linearGradient id="SVGID_6_" gradientUnits="userSpaceOnUse" x1="-71.1499" y1="1882.9758" x2="-71.1499" y2="1889.4401" gradientTransform="matrix(-1 0 0 1 -33.6499 -1743.4769)">
			<stop  offset="0" style="stop-color:#810000"/>
			<stop  offset="7.000000e-02" style="stop-color:#B01117"/>
			<stop  offset="0.5" style="stop-color:#EC1C24"/>
			<stop  offset="0.93" style="stop-color:#B01117"/>
			<stop  offset="1" style="stop-color:#810000"/>
		</linearGradient>
		<path class="st7" d="M50.2,141.1c-0.1,0-0.2,0-0.3,0H25c-0.1,0-0.2,0-0.3,0c0.6-0.9,1.7-1.6,2.9-1.6h19.6
			C48.5,139.5,49.6,140.2,50.2,141.1z"/>
		<path class="st8" d="M61.3,16.2c0,3.1,0,2.6,0.1,5.7v0.6l-0.6-0.3c-15.5-8-31.1-8-46.7,0l-0.5,0.3v-0.6c0-3.1,0-2.6,0.1-5.7
			c0-0.6,0.1-1.2,0.3-1.8c1.1-3.2,5.1-5.2,8.1-6.3c4.8-1.7,10.3-2.4,15.4-2.4S48.1,6.3,52.9,8c3,1.1,7,3,8.1,6.2
			C61.2,14.9,61.3,15.5,61.3,16.2z"/>
		
			<linearGradient id="SVGID_7_" gradientUnits="userSpaceOnUse" x1="-47.4999" y1="1757.5333" x2="-94.7286" y2="1757.5333" gradientTransform="matrix(-1 0 0 1 -33.6499 -1743.4769)">
			<stop  offset="0" style="stop-color:#570000"/>
			<stop  offset="6.462370e-02" style="stop-color:#980000"/>
			<stop  offset="0.4946" style="stop-color:#FF0000"/>
			<stop  offset="0.93" style="stop-color:#8D0006"/>
			<stop  offset="1" style="stop-color:#560000"/>
		</linearGradient>
		<path class="st9" d="M60.9,16.2c0-0.6-0.1-1.2-0.3-1.7c-1.1-3.1-5-5-7.9-6C48,6.8,42.4,6.2,37.4,6.2S26.8,6.9,22.1,8.6
			c-2.9,1-6.8,3-7.9,6.1c-0.2,0.5-0.3,1.1-0.3,1.6c0,3.5,0,2.1-0.1,5.7c15.7-8,31.4-8,47.1,0C61,18.3,61,19.7,60.9,16.2z"/>
		<path class="st8" d="M55.6,87c1,6.3,4.5,10.3,5.5,16.6c0.2,1.1-0.5,2.1-1.5,2.4c-14.7,4.6-29.5,4.8-44.2,0c-1-0.3-1.6-1.4-1.5-2.4
			c1-6.4,4.5-10.3,5.5-16.6c0.1-0.6,0.4-1.1,0.9-1.4s1.1-0.5,1.6-0.4c12,2.1,19.2,2.1,31.1,0c0.6-0.1,1.2,0,1.6,0.4
			C55.2,85.9,55.5,86.4,55.6,87z"/>
		<path class="st5" d="M13.4,104.6l0.4,0.2c16.5,6.1,30.7,6.1,47.2,0l0.5-0.2l1.6,22.6c0.2,3.5-8.9,11.5-13.2,11.5H25
			c-4.5-0.5-13.4-7.7-13.2-11.5L13.4,104.6z"/>
		
			<linearGradient id="SVGID_8_" gradientUnits="userSpaceOnUse" x1="-45.694" y1="1865.1333" x2="-96.4541" y2="1865.1333" gradientTransform="matrix(-1 0 0 1 -33.6499 -1743.4769)">
			<stop  offset="0" style="stop-color:#570000"/>
			<stop  offset="6.462370e-02" style="stop-color:#980000"/>
			<stop  offset="0.4946" style="stop-color:#FF0000"/>
			<stop  offset="0.93" style="stop-color:#8D0006"/>
			<stop  offset="1" style="stop-color:#560000"/>
		</linearGradient>
		<path class="st10" d="M61.2,105.1c-16.6,6.1-30.8,6.1-47.4,0l-1.6,22.1c-0.1,3.7,8.5,10.7,12.9,11.1c8.3,0,16.6,0,24.8,0
			c4.4-0.5,12.9-7.5,12.9-11.1L61.2,105.1z"/>
		
			<radialGradient id="SVGID_9_" cx="-92.4517" cy="1785.0731" r="30.198" gradientTransform="matrix(-1.0486 0 0 1.0486 -57.6135 -1796.9988)" gradientUnits="userSpaceOnUse">
			<stop  offset="0" style="stop-color:#AEB0B3"/>
			<stop  offset="1" style="stop-color:#808184"/>
		</radialGradient>
		<path class="st11" d="M54.6,87.1c1,6.3,4.5,10.3,5.5,16.6c0.1,0.6-0.3,1.2-0.8,1.3c-14.5,4.5-29.1,4.8-43.6,0
			c-0.6-0.2-0.9-0.7-0.8-1.3c1-6.4,4.5-10.3,5.5-16.6c0.1-0.3,0.2-0.6,0.5-0.8c0.3-0.2,0.6-0.3,0.9-0.2c12.1,2.1,19.4,2.1,31.5,0
			c0.3-0.1,0.6,0,0.9,0.2C54.4,86.5,54.6,86.8,54.6,87.1z"/>
		
			<radialGradient id="SVGID_10_" cx="-92.5515" cy="1785.3712" r="33.0289" gradientTransform="matrix(-1.0486 0 0 1.0486 -57.6135 -1796.9988)" gradientUnits="userSpaceOnUse">
			<stop  offset="0" style="stop-color:#808184"/>
			<stop  offset="1" style="stop-color:#231F20"/>
		</radialGradient>
		<path class="st12" d="M54.6,87.1c1,6.3,4.5,10.3,5.5,16.6c0.1,0.3,0,0.6-0.2,0.9c-14.4,4.3-28.7,4.6-43.1-0.2
			c-0.6-0.2-0.9-0.8-0.8-1.3c1-6.4,4.5-10.3,5.5-16.6c0-0.1,0.1-0.3,0.1-0.4h0.1c12.1,2.1,19.4,2.1,31.5,0c0.3-0.1,0.6,0,0.9,0.2
			C54.4,86.5,54.6,86.8,54.6,87.1z"/>
		<path class="st13" d="M16.8,23.2c6.4-8.5,34.9-8.5,41.4,0c1.4,1.3,0.8,5.1,0.5,6.7c-0.3,1.6-1,3.8-2.2,5l-0.9,0.9
			c-4.3-6-32-6-36.3,0l-0.9-0.9C16.3,32.6,14.9,25.1,16.8,23.2z"/>
		
			<radialGradient id="SVGID_11_" cx="-91.1417" cy="1754.0938" r="26.5334" gradientTransform="matrix(-1.0486 0 0 1.0486 -57.6135 -1796.9988)" gradientUnits="userSpaceOnUse">
			<stop  offset="0" style="stop-color:#808184"/>
			<stop  offset="1" style="stop-color:#231F20"/>
		</radialGradient>
		<path class="st14" d="M55.8,34.2c2-2.2,3.1-9.2,1.7-10.3c-6-8.1-34-8.1-39.9,0c-1.4,1.2-0.4,8.2,1.7,10.3
			C22.5,28.6,52.5,28.7,55.8,34.2z"/>
		<g>
			<path class="st8" d="M61.4,63.3c0.6,0,1-0.2,1.3-0.7l0.1-0.2v-0.3c-0.2-7.3-0.3-14.7-0.5-22v-0.5l-0.4-0.3
				c-0.4-0.3-0.9-0.4-1.4-0.4c0.7-0.4,1.2-0.9,1.6-1.5l0.1-0.2l-0.5-8.1c-5,3.4-4.6,9.2-4.6,11.7c0,6.9,0,13.7,0,20.6v1.9
				c0,4.4,0,8.8,0,13.2l0,0l0,0c0.2,4,0.5,8.5,1.7,12.3c0.6,2,1.5,4,3,5.5l1.7,1.7l-0.1-2.4c0-9.5-0.3-19-0.5-28.4l0,0l0,0
				C62.8,64.2,62.2,63.7,61.4,63.3z"/>
			
				<linearGradient id="SVGID_12_" gradientUnits="userSpaceOnUse" x1="-92.5964" y1="1794.5408" x2="-94.8281" y2="1794.5408" gradientTransform="matrix(-1 0 0 1 -33.6499 -1743.4769)">
				<stop  offset="0" style="stop-color:#403F3A"/>
				<stop  offset="1" style="stop-color:#8B8B83"/>
			</linearGradient>
			<path class="st15" d="M61.4,40.1c0.2,7.7,0.3,14.4,0.5,22c-0.4,0.7-2.8-0.4-3.7-0.7c0-6.9,0-13.7,0-20.6
				C59.1,40.3,60.6,39.5,61.4,40.1z"/>
			
				<linearGradient id="SVGID_13_" gradientUnits="userSpaceOnUse" x1="-92.3939" y1="1778.4333" x2="-94.399" y2="1778.4333" gradientTransform="matrix(-1 0 0 1 -33.6499 -1743.4769)">
				<stop  offset="0" style="stop-color:#231F20"/>
				<stop  offset="1" style="stop-color:#808184"/>
			</linearGradient>
			<path class="st16" d="M61,30.9l0.4,6.1c-0.6,1.1-2.3,1.7-3.2,2.1C58.2,35.6,58.5,33.4,61,30.9z"/>
			
				<linearGradient id="SVGID_14_" gradientUnits="userSpaceOnUse" x1="-92.7461" y1="1821.8333" x2="-95.4271" y2="1821.8333" gradientTransform="matrix(-1 0 0 1 -33.6499 -1743.4769)">
				<stop  offset="0" style="stop-color:#403F3A"/>
				<stop  offset="1" style="stop-color:#8B8B83"/>
			</linearGradient>
			<path class="st17" d="M61.9,65.2c0.2,10.9,0.5,17.5,0.7,28.4c-2-1.9-4-5.8-4.5-17.2c0-4.4,0-8.8,0-13.2
				C59.2,63.6,61.8,64,61.9,65.2z"/>
			<path class="st8" d="M13.5,63.3c-0.6,0-1-0.2-1.3-0.7l-0.1-0.2v-0.3c0.2-7.3,0.3-14.7,0.5-22v-0.5l0.4-0.3
				c0.4-0.3,0.9-0.4,1.4-0.4c-0.7-0.4-1.2-0.9-1.6-1.5l-0.1-0.2l0.5-8.1c5,3.4,4.6,9.2,4.6,11.7c0,6.9,0,13.7,0,20.6v1.9
				c0,4.4,0,8.8,0,13.2l0,0l0,0c-0.2,4-0.5,8.5-1.7,12.3c-0.6,2-1.5,4-3,5.5L11.4,96l0.1-2.4c0.2-9.5,0.5-18.9,0.7-28.4l0,0l0,0
				C12.2,64.2,12.8,63.7,13.5,63.3z"/>
			
				<linearGradient id="SVGID_15_" gradientUnits="userSpaceOnUse" x1="-47.512" y1="1794.5408" x2="-49.7432" y2="1794.5408" gradientTransform="matrix(-1 0 0 1 -33.6499 -1743.4769)">
				<stop  offset="0" style="stop-color:#403F3A"/>
				<stop  offset="1" style="stop-color:#8B8B83"/>
			</linearGradient>
			<path class="st18" d="M13.6,40.1c-0.2,7.7-0.3,14.4-0.5,22c0.4,0.7,2.8-0.4,3.7-0.7c0-6.9,0-13.7,0-20.6
				C15.9,40.3,14.3,39.5,13.6,40.1z"/>
			
				<linearGradient id="SVGID_16_" gradientUnits="userSpaceOnUse" x1="-47.9581" y1="1778.4333" x2="-49.8551" y2="1778.4333" gradientTransform="matrix(-1 0 0 1 -33.6499 -1743.4769)">
				<stop  offset="0" style="stop-color:#403F3A"/>
				<stop  offset="1" style="stop-color:#8B8B83"/>
			</linearGradient>
			<path class="st19" d="M14,30.9L13.6,37c0.6,1.1,2.3,1.7,3.2,2.1C16.7,35.6,16.5,33.4,14,30.9z"/>
			
				<linearGradient id="SVGID_17_" gradientUnits="userSpaceOnUse" x1="-46.9127" y1="1821.8333" x2="-49.5933" y2="1821.8333" gradientTransform="matrix(-1 0 0 1 -33.6499 -1743.4769)">
				<stop  offset="0" style="stop-color:#403F3A"/>
				<stop  offset="1" style="stop-color:#8B8B83"/>
			</linearGradient>
			<path class="st20" d="M13,65.2c-0.2,10.9-0.5,17.5-0.7,28.4c2-1.9,4-5.8,4.5-17.2c0-4.4,0-8.8,0-13.2C15.7,63.6,13.2,64,13,65.2z
				"/>
			<path class="st21" d="M63.4,66.8c0,0.5,0.1,2.5-0.3,2.5h-0.4l-0.1-3.8C63.2,65.5,63.4,66.2,63.4,66.8z"/>
			
				<linearGradient id="SVGID_18_" gradientUnits="userSpaceOnUse" x1="-96.6901" y1="1809.0898" x2="-96.7519" y2="1812.6332" gradientTransform="matrix(-1 0 0 1 -33.6499 -1743.4769)">
				<stop  offset="0" style="stop-color:#D0D2D3"/>
				<stop  offset="0.11" style="stop-color:#F1F1F2"/>
				<stop  offset="0.68" style="stop-color:#F1F1F2"/>
				<stop  offset="1" style="stop-color:#D0D2D3"/>
			</linearGradient>
			<path class="st22" d="M62.8,65.7c0.5,0,0.6,0.8,0.6,1.1c0,0.5,0.1,2.3-0.2,2.3c-0.1,0-0.1,0-0.3,0C62.8,68,62.8,66.9,62.8,65.7z"
				/>
			<path class="st21" d="M62.9,41.6c0,0.5,0.1,2.5-0.3,2.5h-0.4l-0.1-3.8C62.8,40.2,62.9,40.9,62.9,41.6z"/>
			
				<linearGradient id="SVGID_19_" gradientUnits="userSpaceOnUse" x1="-96.1909" y1="1783.838" x2="-96.2528" y2="1787.3815" gradientTransform="matrix(-1 0 0 1 -33.6499 -1743.4769)">
				<stop  offset="0" style="stop-color:#D0D2D3"/>
				<stop  offset="0.11" style="stop-color:#F1F1F2"/>
				<stop  offset="0.68" style="stop-color:#F1F1F2"/>
				<stop  offset="1" style="stop-color:#D0D2D3"/>
			</linearGradient>
			<path class="st23" d="M62.2,40.4c0.5,0,0.6,0.8,0.6,1.1c0,0.5,0.1,2.3-0.2,2.3c-0.1,0-0.1,0-0.3,0C62.3,42.7,62.3,41.6,62.2,40.4
				z"/>
			<path class="st21" d="M11.5,66.8c0,0.5-0.1,2.5,0.3,2.5h0.4l0.1-3.8C11.8,65.5,11.5,66.2,11.5,66.8z"/>
			
				<linearGradient id="SVGID_20_" gradientUnits="userSpaceOnUse" x1="-45.557" y1="1812.6333" x2="-45.6189" y2="1809.09" gradientTransform="matrix(-1 0 0 1 -33.6499 -1743.4769)">
				<stop  offset="0" style="stop-color:#D0D2D3"/>
				<stop  offset="0.11" style="stop-color:#F1F1F2"/>
				<stop  offset="0.68" style="stop-color:#F1F1F2"/>
				<stop  offset="1" style="stop-color:#D0D2D3"/>
			</linearGradient>
			<path class="st24" d="M12.2,65.7c-0.4,0-0.6,0.8-0.6,1.1c0,0.5-0.1,2.3,0.2,2.3c0.1,0,0.1,0,0.3,0C12.2,68,12.2,66.9,12.2,65.7z"
				/>
			<path class="st21" d="M12,41.6c0,0.5-0.1,2.5,0.3,2.5h0.4l0.1-3.8C12.3,40.2,12,40.9,12,41.6z"/>
			
				<linearGradient id="SVGID_21_" gradientUnits="userSpaceOnUse" x1="-46.0561" y1="1787.3818" x2="-46.118" y2="1783.8375" gradientTransform="matrix(-1 0 0 1 -33.6499 -1743.4769)">
				<stop  offset="0" style="stop-color:#D0D2D3"/>
				<stop  offset="0.11" style="stop-color:#F1F1F2"/>
				<stop  offset="0.68" style="stop-color:#F1F1F2"/>
				<stop  offset="1" style="stop-color:#D0D2D3"/>
			</linearGradient>
			<path class="st25" d="M12.7,40.4c-0.5,0-0.6,0.8-0.6,1.1c0,0.5-0.1,2.3,0.2,2.3c0.1,0,0.1,0,0.3,0C12.7,42.7,12.7,41.6,12.7,40.4
				z"/>
		</g>
		
			<linearGradient id="SVGID_22_" gradientUnits="userSpaceOnUse" x1="-51.8936" y1="1802.1583" x2="-90.3062" y2="1802.1583" gradientTransform="matrix(-1 0 0 1 -33.6499 -1743.4769)">
			<stop  offset="0" style="stop-color:#570000"/>
			<stop  offset="6.462370e-02" style="stop-color:#980000"/>
			<stop  offset="0.4946" style="stop-color:#FF0000"/>
			<stop  offset="0.93" style="stop-color:#8D0006"/>
			<stop  offset="1" style="stop-color:#560000"/>
		</linearGradient>
		<path class="st26" d="M56,36.6c0.2,18.7-0.1,35.4,0.6,45.6c0.1,1.5-1,2.8-2.6,3c-11,1.6-22.2,1.6-33.2,0c-1.6-0.2-2.7-1.5-2.6-3
			c0.7-10.3,0.3-26.9,0.6-45.6C18.8,29.2,56.1,29.2,56,36.6z"/>
		<path class="st27" d="M50.5,132c-0.6-2.9-1.2-6.3-1.7-9.8c-0.5-3.6-0.7-7-0.9-9.8c0.6,2.9,1.2,6.3,1.7,9.8
			C50.1,125.8,50.4,129.2,50.5,132L50.5,132z M24.4,132c0.6-2.9,1.2-6.3,1.7-9.8c0.5-3.6,0.7-7,0.9-9.8c-0.6,2.9-1.2,6.3-1.7,9.8
			C24.8,125.8,24.5,129.2,24.4,132z"/>
		<path class="st27" d="M24.2,65.4c0.4-3.9,0.7-8.4,0.7-13.2c0.1-4.8-0.1-9.4-0.4-13.3c-0.4,3.9-0.7,8.4-0.8,13.3
			C23.7,57,23.9,61.5,24.2,65.4L24.2,65.4z M50.8,65.4c-0.4-3.9-0.7-8.4-0.8-13.3c-0.1-4.8,0.1-9.4,0.4-13.3
			c0.4,3.9,0.7,8.4,0.7,13.3C51.2,57,51.1,61.5,50.8,65.4z"/>
		<path class="st8" d="M71.2,93.3c0.3,0.8,0.4,1.6-0.1,2.3c-0.5,0.9-1.7,1.3-2.7,1.6c-1.3,0.4-2.6,0.6-3.8,1.1
			c-0.5,0.2-0.9,0.3-1.3,0.5L63,99l-0.1-0.3c-0.3-1-0.5-1.9-0.8-2.9L62,95.5l0.3-0.1c2.8-0.8,5.7-1.5,8.5-2.3l0.3-0.1L71.2,93.3z"/>
		
			<linearGradient id="SVGID_23_" gradientUnits="userSpaceOnUse" x1="-100.9819" y1="1836.6819" x2="-98.6818" y2="1845.2657" gradientTransform="matrix(-1 0 0 1 -33.6499 -1743.4769)">
			<stop  offset="0" style="stop-color:#C37A14"/>
			<stop  offset="0.12" style="stop-color:#FBC409"/>
			<stop  offset="0.87" style="stop-color:#FBC409"/>
			<stop  offset="1" style="stop-color:#BF7214"/>
		</linearGradient>
		<path class="st28" d="M70.9,93.4c1.3,3.8-3.9,3.3-7.7,5.2c-0.3-1-0.5-1.9-0.8-2.9C65.3,94.9,68.1,94.2,70.9,93.4z"/>
		
			<rect x="63.4" y="94.9" transform="matrix(0.9659 -0.2589 0.2589 0.9659 -22.8508 19.8759)" class="st8" width="1.2" height="3.5"/>
		<rect x="63.7" y="95.2" transform="matrix(0.966 -0.2586 0.2586 0.966 -22.8398 19.8534)" class="st29" width="0.6" height="3"/>
		<g>
			
				<linearGradient id="SVGID_24_" gradientUnits="userSpaceOnUse" x1="-46.5403" y1="1839.4333" x2="-37.2012" y2="1839.4333" gradientTransform="matrix(-1 0 0 1 -33.6499 -1743.4769)">
				<stop  offset="0" style="stop-color:#C37A14"/>
				<stop  offset="0.12" style="stop-color:#FBC409"/>
				<stop  offset="0.87" style="stop-color:#FBC409"/>
				<stop  offset="1" style="stop-color:#BF7214"/>
			</linearGradient>
			<path class="st30" d="M3.7,93.3c-0.3,0.8-0.4,1.6,0.1,2.3c0.5,0.9,1.7,1.3,2.7,1.6c1.3,0.4,2.6,0.6,3.8,1.1
				c0.5,0.2,0.9,0.3,1.3,0.5l0.3,0.2l0.1-0.3c0.3-1,0.5-1.9,0.8-2.9l0.1-0.3l-0.3-0.1c-2.8-0.8-5.7-1.5-8.5-2.3L3.8,93L3.7,93.3z"/>
			
				<linearGradient id="SVGID_25_" gradientUnits="userSpaceOnUse" x1="-41.3531" y1="1836.6666" x2="-43.5031" y2="1845.2898" gradientTransform="matrix(-1 0 0 1 -33.6499 -1743.4769)">
				<stop  offset="0" style="stop-color:#C37A14"/>
				<stop  offset="0.12" style="stop-color:#FBC409"/>
				<stop  offset="0.87" style="stop-color:#FBC409"/>
				<stop  offset="1" style="stop-color:#BF7214"/>
			</linearGradient>
			<path class="st31" d="M4,93.4c-1.3,3.8,3.9,3.3,7.7,5.2c0.3-1,0.5-1.9,0.8-2.9C9.7,94.9,6.8,94.2,4,93.4z"/>
			
				<linearGradient id="SVGID_26_" gradientUnits="userSpaceOnUse" x1="-45.7159" y1="1840.2333" x2="-43.6397" y2="1840.2333" gradientTransform="matrix(-1 0 0 1 -33.6499 -1743.4769)">
				<stop  offset="0" style="stop-color:#C37A14"/>
				<stop  offset="0.12" style="stop-color:#FBC409"/>
				<stop  offset="0.87" style="stop-color:#FBC409"/>
				<stop  offset="1" style="stop-color:#BF7214"/>
			</linearGradient>
			<polygon class="st32" points="10.9,94.9 9.9,98.4 11.1,98.7 12,95.3 			"/>
			
				<linearGradient id="SVGID_27_" gradientUnits="userSpaceOnUse" x1="-45.3622" y1="1840.2333" x2="-43.9942" y2="1840.2333" gradientTransform="matrix(-1 0 0 1 -33.6499 -1743.4769)">
				<stop  offset="0" style="stop-color:#C37A14"/>
				<stop  offset="0.12" style="stop-color:#FBC409"/>
				<stop  offset="0.87" style="stop-color:#FBC409"/>
				<stop  offset="1" style="stop-color:#BF7214"/>
			</linearGradient>
			<polygon class="st33" points="11.1,95.3 10.3,98.2 10.9,98.3 11.7,95.5 			"/>
		</g>
		<path class="st8" d="M46.7,83.8H28.1c-2.5,0-4.6-2.1-4.6-4.6v-6.9c0-2.5,2.1-4.6,4.6-4.6h18.6c2.5,0,4.6,2.1,4.6,4.6v6.9
			C51.2,81.8,49.2,83.8,46.7,83.8z"/>
		
			<radialGradient id="SVGID_28_" cx="-91.6418" cy="1772.4783" r="26.6203" gradientTransform="matrix(-1.0486 0 0 1.0486 -57.6135 -1796.9988)" gradientUnits="userSpaceOnUse">
			<stop  offset="0" style="stop-color:#808184"/>
			<stop  offset="1" style="stop-color:#231F20"/>
		</radialGradient>
		<path class="st34" d="M46.7,82.8H28.1c-2,0-3.6-1.6-3.6-3.6v-6.9c0-2,1.6-3.6,3.6-3.6h18.6c2,0,3.6,1.6,3.6,3.6v6.9
			C50.3,81.2,48.7,82.8,46.7,82.8z"/>
		<path class="st8" d="M21.3,139.9c-1.8-0.5-3.7-1.6-5.1-2.7c-1.5-1.2-4.7-4-5.2-5.9l-0.3-0.9l1.7,1.1v0.1c0.3,0.5,1,1.3,1.5,1.7
			c0.8,0.9,1.7,1.7,2.7,2.4c1.1,0.9,2.3,1.9,3.6,2.5l0,0l2.9,2.2L21.3,139.9z"/>
		<path class="st35" d="M21.4,139.5l-1.4-1.1c-2.8-1.4-7.2-5.6-7.8-6.8l-0.8-0.5C11.9,133.3,17.4,138.5,21.4,139.5z"/>
		<path class="st8" d="M52,140.3l2.5-2.3l0,0c1.2-0.6,2.5-1.6,3.6-2.5c0.9-0.8,1.8-1.6,2.7-2.4c0.4-0.4,1.2-1.2,1.5-1.7l0.1-0.1
			l1.6-0.8l-0.2,0.7c-0.5,1.9-3.7,4.7-5.2,5.9c-1.5,1.1-3.3,2.3-5.1,2.7L52,140.3z"/>
		<path class="st35" d="M53.3,139.5l1.4-1.2c2.8-1.4,7.2-5.6,7.8-6.8l0.8-0.4C62.8,133.3,57.4,138.5,53.3,139.5z"/>
	</g>
</g>
</svg>
