<?xml version="1.0" encoding="utf-8"?>
<!-- Generator: Adobe Illustrator 24.1.2, SVG Export Plug-In . SVG Version: 6.00 Build 0)  -->
<svg version="1.1" id="Layer_1" xmlns="http://www.w3.org/2000/svg" xmlns:xlink="http://www.w3.org/1999/xlink" x="0px" y="0px"
	 viewBox="0 0 75 115.2" style="enable-background:new 0 0 75 115.2;" xml:space="preserve">
<style type="text/css">
	.st0{fill-rule:evenodd;clip-rule:evenodd;fill:#808184;}
	.st1{fill-rule:evenodd;clip-rule:evenodd;fill:#FFFBD4;}
	.st2{fill-rule:evenodd;clip-rule:evenodd;fill:#404041;}
	.st3{fill-rule:evenodd;clip-rule:evenodd;fill:url(#SVGID_1_);}
	.st4{fill-rule:evenodd;clip-rule:evenodd;fill:url(#SVGID_2_);}
	.st5{fill-rule:evenodd;clip-rule:evenodd;fill:url(#SVGID_3_);}
	.st6{fill-rule:evenodd;clip-rule:evenodd;fill:url(#SVGID_4_);}
	.st7{fill-rule:evenodd;clip-rule:evenodd;fill:#C15287;}
	.st8{fill-rule:evenodd;clip-rule:evenodd;fill:url(#SVGID_5_);}
	.st9{fill-rule:evenodd;clip-rule:evenodd;fill:url(#SVGID_6_);}
	.st10{fill-rule:evenodd;clip-rule:evenodd;fill:url(#SVGID_7_);}
	.st11{fill-rule:evenodd;clip-rule:evenodd;fill:url(#SVGID_8_);}
	.st12{fill-rule:evenodd;clip-rule:evenodd;fill:url(#SVGID_9_);}
	.st13{fill-rule:evenodd;clip-rule:evenodd;fill:url(#SVGID_10_);}
	.st14{fill-rule:evenodd;clip-rule:evenodd;fill:#929497;}
	.st15{fill-rule:evenodd;clip-rule:evenodd;fill:url(#SVGID_11_);}
	.st16{fill-rule:evenodd;clip-rule:evenodd;fill:url(#SVGID_12_);}
	.st17{fill-rule:evenodd;clip-rule:evenodd;fill:url(#SVGID_13_);}
	.st18{fill-rule:evenodd;clip-rule:evenodd;fill:url(#SVGID_14_);}
	.st19{fill-rule:evenodd;clip-rule:evenodd;fill:url(#SVGID_15_);}
	.st20{fill-rule:evenodd;clip-rule:evenodd;fill:url(#SVGID_16_);}
	.st21{fill-rule:evenodd;clip-rule:evenodd;fill:url(#SVGID_17_);}
	.st22{fill-rule:evenodd;clip-rule:evenodd;fill:#EA85B2;}
	.st23{fill-rule:evenodd;clip-rule:evenodd;fill:url(#SVGID_18_);}
</style>
<g>
	<g>
		<path class="st0" d="M58.2,5.2c-1.2-0.4-2.8-0.7-4.4-0.7c-0.4,0-1,0-1.6,0.1c2.9,0.9,6.1,1.9,9.9,3.2C61.9,6.6,59.2,5.6,58.2,5.2z
			"/>
		<path class="st1" d="M57.8,5.5c-1.7-0.5-3.6-0.8-5-0.7c2.6,0.8,5.4,1.7,8.6,2.8C61,6.9,59.8,6.1,57.8,5.5z"/>
		<path class="st0" d="M17.8,5.2c1.2-0.4,2.8-0.7,4.4-0.7c0.2,0,0.4,0,0.7,0c-2.6,0.8-5.5,1.8-8.9,2.9C14.5,6.4,16.8,5.5,17.8,5.2z"
			/>
		<path class="st1" d="M18.1,5.5c1.3-0.4,2.7-0.6,3.8-0.7c-2.1,0.7-4.4,1.4-7,2.3C15.5,6.6,16.6,6,18.1,5.5z"/>
		<path class="st2" d="M10.6,11.3v19.8c0,0.6-0.5,1-1,1H7.5c-0.6,0-1-0.5-1-1V11.3c0-0.6,0.5-1,1-1h2.1
			C10.2,10.3,10.6,10.7,10.6,11.3L10.6,11.3z M68.4,11.3v19.8c0,0.6-0.5,1-1,1h-2.1c-0.6,0-1-0.5-1-1V11.3c0-0.6,0.5-1,1-1h2.1
			C67.9,10.3,68.4,10.7,68.4,11.3z"/>
		
			<linearGradient id="SVGID_1_" gradientUnits="userSpaceOnUse" x1="-438.3774" y1="1353.9712" x2="-438.3774" y2="1334.9492" gradientTransform="matrix(-1 0 0 1 -429.7774 -1322.1882)">
			<stop  offset="0" style="stop-color:#404041"/>
			<stop  offset="0.27" style="stop-color:#808184"/>
			<stop  offset="0.54" style="stop-color:#A6A8AB"/>
			<stop  offset="1" style="stop-color:#231F20"/>
		</linearGradient>
		<path class="st3" d="M10.3,11.3v19.8c0,0.4-0.3,0.7-0.7,0.7H7.5c-0.4,0-0.7-0.3-0.7-0.7V11.3c0-0.4,0.3-0.7,0.7-0.7h2.1
			C10,10.6,10.3,10.9,10.3,11.3z"/>
		
			<linearGradient id="SVGID_2_" gradientUnits="userSpaceOnUse" x1="-496.0774" y1="1353.9712" x2="-496.0774" y2="1334.9492" gradientTransform="matrix(-1 0 0 1 -429.7774 -1322.1882)">
			<stop  offset="0" style="stop-color:#404041"/>
			<stop  offset="0.27" style="stop-color:#808184"/>
			<stop  offset="0.54" style="stop-color:#A6A8AB"/>
			<stop  offset="1" style="stop-color:#231F20"/>
		</linearGradient>
		<path class="st4" d="M68,11.3v19.8c0,0.4-0.3,0.7-0.7,0.7h-2.1c-0.4,0-0.7-0.3-0.7-0.7V11.3c0-0.4,0.3-0.7,0.7-0.7h2.1
			C67.8,10.6,68,10.9,68,11.3z"/>
		<path class="st2" d="M10.6,71.3v19.8c0,0.6-0.5,1-1,1H7.5c-0.6,0-1-0.5-1-1V71.3c0-0.6,0.5-1,1-1h2.1
			C10.2,70.2,10.6,70.7,10.6,71.3L10.6,71.3z M68.4,71.3v19.8c0,0.6-0.5,1-1,1h-2.1c-0.6,0-1-0.5-1-1V71.3c0-0.6,0.5-1,1-1h2.1
			C67.9,70.2,68.4,70.7,68.4,71.3z"/>
		
			<linearGradient id="SVGID_3_" gradientUnits="userSpaceOnUse" x1="-438.3774" y1="1413.9512" x2="-438.3774" y2="1394.9293" gradientTransform="matrix(-1 0 0 1 -429.7774 -1322.1882)">
			<stop  offset="0" style="stop-color:#404041"/>
			<stop  offset="0.27" style="stop-color:#808184"/>
			<stop  offset="0.54" style="stop-color:#A6A8AB"/>
			<stop  offset="1" style="stop-color:#231F20"/>
		</linearGradient>
		<path class="st5" d="M10.3,71.3v19.8c0,0.4-0.3,0.7-0.7,0.7H7.5c-0.4,0-0.7-0.3-0.7-0.7V71.3c0-0.4,0.3-0.7,0.7-0.7h2.1
			C10,70.6,10.3,70.9,10.3,71.3z"/>
		
			<linearGradient id="SVGID_4_" gradientUnits="userSpaceOnUse" x1="-496.0774" y1="1413.9512" x2="-496.0774" y2="1394.9293" gradientTransform="matrix(-1 0 0 1 -429.7774 -1322.1882)">
			<stop  offset="0" style="stop-color:#404041"/>
			<stop  offset="0.27" style="stop-color:#808184"/>
			<stop  offset="0.54" style="stop-color:#A6A8AB"/>
			<stop  offset="1" style="stop-color:#231F20"/>
		</linearGradient>
		<path class="st6" d="M68,71.3v19.8c0,0.4-0.3,0.7-0.7,0.7h-2.1c-0.4,0-0.7-0.3-0.7-0.7V71.3c0-0.4,0.3-0.7,0.7-0.7h2.1
			C67.8,70.6,68,70.9,68,71.3z"/>
		<g>
			<path class="st0" d="M61.5,106.7c-1.1,1-2.5,2-4,2.7c-0.7,0.3-2,0.8-3,0.5c2.4-1.3,4.6-3,5.7-4c1.1-1,3-2.7,4.3-4.6
				C65.2,102.9,62.7,105.7,61.5,106.7z"/>
			<path class="st1" d="M61.1,106.5c-2.3,2.1-4.9,3.4-6.2,3.2c2.2-1.2,4.3-2.8,5.3-3.7c1-0.9,2.7-2.5,4-4.1
				C64.2,102.9,63.2,104.7,61.1,106.5z"/>
			<path class="st0" d="M13.4,106.7c1.1,1,2.5,2,4,2.7c0.7,0.3,2,0.8,3,0.5c-2.4-1.3-4.6-3-5.7-4c-1.1-1-3-2.7-4.3-4.6
				C9.7,102.9,12.3,105.7,13.4,106.7z"/>
			<path class="st1" d="M13.8,106.5c2.3,2.1,4.9,3.4,6.2,3.2c-2.2-1.2-4.3-2.8-5.3-3.7c-1-0.9-2.7-2.5-4-4.1
				C10.7,102.9,11.9,104.7,13.8,106.5z"/>
		</g>
		<path class="st7" d="M65.8,11l0.6,59.2l0,0c-0.4,3.3-0.6,6.6-0.6,9.9c0,4.2,0.3,8.7,1.1,12.8l0,0C67.4,120,7.5,120,8,92.9l0,0
			c0.8-4.1,1.1-8.6,1.1-12.8c0-3.3-0.2-6.6-0.6-9.9l0,0l0.6-26.9L9.2,11c0-1.7,1.2-3.1,2.9-3.3c4.8-0.6,9.7-1.3,14.6-1.8
			c3.7-0.4,7.3-0.6,11-0.6c3.6,0,7.2,0.2,10.9,0.6c4.7,0.5,9.5,1.2,14.2,1.8C64.5,7.9,65.8,9.3,65.8,11z"/>
		
			<linearGradient id="SVGID_5_" gradientUnits="userSpaceOnUse" x1="-439.2825" y1="1381.4978" x2="-495.305" y2="1381.4978" gradientTransform="matrix(-1 0 0 1 -429.7774 -1322.1882)">
			<stop  offset="0" style="stop-color:#D26798"/>
			<stop  offset="7.000000e-02" style="stop-color:#F290BB"/>
			<stop  offset="0.51" style="stop-color:#F7BAD5"/>
			<stop  offset="0.91" style="stop-color:#F290BB"/>
			<stop  offset="1" style="stop-color:#CA5E90"/>
		</linearGradient>
		<path class="st8" d="M65.5,11l0.6,59.2c-0.4,2.9-0.6,6.3-0.6,9.9c0,5,0.4,9.5,1.1,12.8c0.6,26.7-58.9,26.7-58.3,0
			C9,89.6,9.4,85,9.4,80.1c0-3.6-0.2-7-0.6-9.9l0.1-3.8L9,62.6l0.1-3.8L9.2,55l0.1-3.8l0.1-3.8l0.1-3.8l0.1-32.3
			c0-1.6,1.1-2.8,2.7-3.1C35.4,4.8,39.8,4.8,62.8,8C64.3,8.2,65.4,9.4,65.5,11z"/>
		<path class="st7" d="M13.7,7.5c22.8-7.9,26.1-7.1,48.5,0.3L59.8,15c-0.4,1.3-1.7,2.9-3.7,2.4c-11.8-3.1-24-2.9-35.8,0
			c-2,0.5-3.2-1.1-3.7-2.4L13.7,7.5z"/>
		
			<linearGradient id="SVGID_6_" gradientUnits="userSpaceOnUse" x1="-467.7774" y1="1324.4501" x2="-467.7774" y2="1353.8219" gradientTransform="matrix(-1 0 0 1 -429.7774 -1322.1882)">
			<stop  offset="0" style="stop-color:#D26798"/>
			<stop  offset="0.22" style="stop-color:#F290BB"/>
			<stop  offset="0.51" style="stop-color:#F7BAD5"/>
			<stop  offset="0.78" style="stop-color:#F290BB"/>
			<stop  offset="1" style="stop-color:#CA5E90"/>
		</linearGradient>
		<path class="st9" d="M14.2,7.8L17,15c0.5,1.4,1.6,2.6,3.2,2.2c11.9-2.9,24.2-3.1,36,0c1.5,0.4,2.8-0.8,3.2-2.1l2.3-6.9
			c-4.4-1.6-8.9-3.1-13.4-4.3C45,3,41.6,2.4,38.1,2.3s-6.9,0.4-10.3,1.2C23.3,4.6,18.7,6.2,14.2,7.8z"/>
		<path class="st7" d="M62.4,77.1c3.9,47.2-53.9,47.2-50,0l0.5,0.2c17.2,6,31.9,6,49.1,0L62.4,77.1z"/>
		
			<linearGradient id="SVGID_7_" gradientUnits="userSpaceOnUse" x1="-492.1007" y1="1417.0731" x2="-443.4368" y2="1417.0731" gradientTransform="matrix(-1 0 0 1 -429.7774 -1322.1882)">
			<stop  offset="0" style="stop-color:#D26798"/>
			<stop  offset="0.22" style="stop-color:#F290BB"/>
			<stop  offset="0.51" style="stop-color:#F7BAD5"/>
			<stop  offset="0.78" style="stop-color:#F290BB"/>
			<stop  offset="1" style="stop-color:#CA5E90"/>
		</linearGradient>
		<path class="st10" d="M62.2,77.6c-17.3,6-32.1,6-49.4,0C9,123.6,65.8,123.6,62.2,77.6z"/>
		
			<linearGradient id="SVGID_8_" gradientUnits="userSpaceOnUse" x1="-449.5136" y1="1418.1731" x2="-485.295" y2="1418.1731" gradientTransform="matrix(-1 0 0 1 -429.7774 -1322.1882)">
			<stop  offset="0" style="stop-color:#D26798"/>
			<stop  offset="0.22" style="stop-color:#F290BB"/>
			<stop  offset="0.51" style="stop-color:#F7BAD5"/>
			<stop  offset="0.78" style="stop-color:#F290BB"/>
			<stop  offset="1" style="stop-color:#CA5E90"/>
		</linearGradient>
		<path class="st11" d="M19.8,103.9c9.4,10.8,25.8,10.8,35.2,0l-0.7-24c-11.6,3-22.3,3-33.9,0L19.8,103.9z"/>
		<path class="st7" d="M60,77.2c-14.8,3.8-29.7,4-44.5-0.1c-1-0.3-1.6-1.1-1.5-2c1-4.9,2.2-9.8,3.1-14.7c0.2-0.9,0.7-1.2,1.7-1.1
			c12.1,1.8,24.3,1.8,36.4,0c0.6-0.1,1.1,0,1.6,0.3s0.8,0.7,0.9,1.2c1,4.9,2.2,9.8,3.1,14.7C61,76.1,60.8,77,60,77.2z"/>
		
			<radialGradient id="SVGID_9_" cx="-464.2" cy="1359.3513" r="30.7788" gradientTransform="matrix(-1.0486 0 0 1.0486 -447.9307 -1374.9613)" gradientUnits="userSpaceOnUse">
			<stop  offset="0" style="stop-color:#9EA0A3"/>
			<stop  offset="1" style="stop-color:#67686B"/>
		</radialGradient>
		<path class="st12" d="M56.8,60.9c1,5.4,2.1,9.3,3.1,14.7c0.1,0.3,0,0.6-0.2,0.8c-14.6,3.8-29.3,4-43.9-0.1
			c-0.6-0.2-0.9-0.6-0.8-1.1c1-5.4,2.1-9.3,3.1-14.7c0-0.2,0.1-0.3,0.2-0.4c0.1,0,0.2,0,0.3,0c12.3,1.8,24.5,1.8,36.8,0
			c0.3,0,0.6,0,0.9,0.2C56.6,60.4,56.8,60.7,56.8,60.9z"/>
		
			<radialGradient id="SVGID_10_" cx="-464.7749" cy="1359.751" r="30.5606" gradientTransform="matrix(-1.0486 0 0 1.0486 -447.9307 -1374.9613)" gradientUnits="userSpaceOnUse">
			<stop  offset="0" style="stop-color:#FFFFFF"/>
			<stop  offset="1" style="stop-color:#5CDDFF"/>
		</radialGradient>
		<path class="st13" d="M56.8,60.9c1,5.4,2.1,9.3,3.1,14.7c0,0.2,0,0.4-0.1,0.6c-14.3,3.5-28.5,3.6-42.8-0.3
			c-0.6-0.2-0.9-0.6-0.8-1.1c1-5.4,2.1-9.3,3.1-14.6c12,1.7,24.1,1.7,36.1-0.1c0.3,0,0.6,0,0.9,0.2C56.6,60.4,56.8,60.7,56.8,60.9z"
			/>
		<path class="st14" d="M65,48.7c0,0.5,0.1,2.6-0.3,2.6h-0.4l-0.1-4C64.8,47.2,65,48,65,48.7z"/>
		
			<linearGradient id="SVGID_11_" gradientUnits="userSpaceOnUse" x1="-494.4062" y1="1369.6473" x2="-494.4719" y2="1373.4132" gradientTransform="matrix(-1 0 0 1 -429.7774 -1322.1882)">
			<stop  offset="0" style="stop-color:#D0D2D3"/>
			<stop  offset="0.11" style="stop-color:#F1F1F2"/>
			<stop  offset="0.68" style="stop-color:#F1F1F2"/>
			<stop  offset="1" style="stop-color:#D0D2D3"/>
		</linearGradient>
		<path class="st15" d="M64.3,47.5c0.5,0,0.6,0.9,0.6,1.2c0,0.5,0.1,2.5-0.2,2.5c-0.1,0-0.1,0-0.3,0C64.3,49.9,64.3,48.7,64.3,47.5z
			"/>
		<path class="st14" d="M9.9,48.7c0,0.5-0.1,2.6,0.3,2.6h0.4l0.1-4C10.1,47.2,9.9,48,9.9,48.7z"/>
		
			<linearGradient id="SVGID_12_" gradientUnits="userSpaceOnUse" x1="-440.0332" y1="1373.4233" x2="-440.1647" y2="1369.6592" gradientTransform="matrix(-1 0 0 1 -429.7774 -1322.1882)">
			<stop  offset="0" style="stop-color:#D0D2D3"/>
			<stop  offset="0.11" style="stop-color:#F1F1F2"/>
			<stop  offset="0.68" style="stop-color:#F1F1F2"/>
			<stop  offset="1" style="stop-color:#D0D2D3"/>
		</linearGradient>
		<path class="st16" d="M10.6,47.5c-0.5,0-0.6,0.9-0.6,1.2c0,0.5-0.1,2.5,0.2,2.5c0.1,0,0.1,0,0.3,0C10.5,49.9,10.6,48.7,10.6,47.5z
			"/>
		<path class="st7" d="M55.4,20.5l0.7,34.4c0,1.4-0.9,2.6-2.2,3c-10.9,2.6-22,2.7-32.9,0c-1.3-0.3-2.2-1.5-2.2-2.9l0.7-34.4
			c0-1.1,0.6-2.1,1.6-2.6c6-3,26.8-3.1,32.7-0.1C54.8,18.4,55.4,19.4,55.4,20.5z"/>
		
			<linearGradient id="SVGID_13_" gradientUnits="userSpaceOnUse" x1="-467.1816" y1="1338.1312" x2="-467.1816" y2="1382.3057" gradientTransform="matrix(-1 0 0 1 -429.7774 -1322.1882)">
			<stop  offset="0" style="stop-color:#D26798"/>
			<stop  offset="0.22" style="stop-color:#F290BB"/>
			<stop  offset="0.51" style="stop-color:#F7BAD5"/>
			<stop  offset="0.78" style="stop-color:#F290BB"/>
			<stop  offset="1" style="stop-color:#CA5E90"/>
		</linearGradient>
		<path class="st17" d="M55,20.5c0-1-0.5-1.8-1.4-2.3c-5.8-3-26.5-2.8-32.4,0.1c-0.9,0.4-1.4,1.3-1.4,2.3L19.1,55
			c0,1.2,0.7,2.3,1.9,2.6c10.8,2.7,21.9,2.6,32.7,0c1.2-0.3,2-1.4,1.9-2.6L55,20.5z"/>
		<path class="st7" d="M62.8,70.8c-1.4-1.2-2.3-4.1-2.8-6c-0.9-3.6-1.4-7.6-1.5-11.3l0,0l0,0c0-1.8,0.6-3.6,1.5-5.1
			c0.6-0.9,1.8-2.7,3-2c0.4,0.2,0.6,0.7,0.7,1.2v0.1v0.1c0.2,7.5,0.5,14.9,0.6,22.4v2.1L62.8,70.8z"/>
		
			<linearGradient id="SVGID_14_" gradientUnits="userSpaceOnUse" x1="-492.9255" y1="1380.7928" x2="-487.5104" y2="1380.7928" gradientTransform="matrix(-1 0 0 1 -429.7774 -1322.1882)">
			<stop  offset="0" style="stop-color:#FFFFFF"/>
			<stop  offset="1" style="stop-color:#5CDDFF"/>
		</linearGradient>
		<path class="st18" d="M63.2,70c-1.8-1.6-3.6-7.5-4-16.6c0-3.8,3.2-7.6,3.4-5.8C62.8,56.3,63,61.3,63.2,70z"/>
		<path class="st7" d="M58,43.3c0.1-1.9,0.2-3.7,0.4-5.6c0.3-2.6,1.3-10.2,2.8-14.4c0.7-1.9,1.5-2.6,2.8-3.8v2.1
			c-0.2,7.5-0.5,14.9-0.6,22.4v0.1v0.1C63.2,47.1,58.1,46.3,58,43.3L58,43.3L58,43.3z"/>
		
			<linearGradient id="SVGID_15_" gradientUnits="userSpaceOnUse" x1="-492.9168" y1="1355.5514" x2="-487.1087" y2="1355.5514" gradientTransform="matrix(-1 0 0 1 -429.7774 -1322.1882)">
			<stop  offset="0" style="stop-color:#FFFFFF"/>
			<stop  offset="1" style="stop-color:#5CDDFF"/>
		</linearGradient>
		<path class="st19" d="M63.2,21.6c-1.8,1.5-3.9,12.7-4.3,21.8c0,1.7,3.5,2.4,3.7,0.6C62.8,35.2,63,30.3,63.2,21.6z"/>
		<path class="st7" d="M12.2,70.8c1.4-1.2,2.3-4.1,2.8-6c0.9-3.6,1.4-7.6,1.5-11.3l0,0l0,0c0-1.8-0.6-3.6-1.5-5.1
			c-0.6-0.9-1.8-2.7-3-2c-0.4,0.2-0.6,0.7-0.7,1.2v0.1v0.1c-0.2,7.5-0.5,14.9-0.6,22.4l-0.1,2.1L12.2,70.8z"/>
		
			<linearGradient id="SVGID_16_" gradientUnits="userSpaceOnUse" x1="-441.5867" y1="1380.7928" x2="-447.0014" y2="1380.7928" gradientTransform="matrix(-1 0 0 1 -429.7774 -1322.1882)">
			<stop  offset="0" style="stop-color:#FFFFFF"/>
			<stop  offset="1" style="stop-color:#5CDDFF"/>
		</linearGradient>
		<path class="st20" d="M11.6,70c1.8-1.6,3.6-7.5,4-16.6c0-3.8-3.2-7.6-3.4-5.8C12.1,56.3,11.9,61.3,11.6,70z"/>
		<path class="st7" d="M16.8,43.3c-0.1-1.9-0.2-3.7-0.4-5.6c-0.2-2.1-0.9-7.4-1.9-11.5c-0.8-3.1-1.5-4.8-3.7-6.7l0.1,2.1
			c0.2,7.5,0.5,14.9,0.6,22.4v0.1v0.1C11.8,47.1,16.7,46.3,16.8,43.3L16.8,43.3L16.8,43.3z"/>
		
			<linearGradient id="SVGID_17_" gradientUnits="userSpaceOnUse" x1="-441.5949" y1="1355.5514" x2="-447.4039" y2="1355.5514" gradientTransform="matrix(-1 0 0 1 -429.7774 -1322.1882)">
			<stop  offset="0" style="stop-color:#FFFFFF"/>
			<stop  offset="1" style="stop-color:#5CDDFF"/>
		</linearGradient>
		<path class="st21" d="M11.6,21.6c1.8,1.5,3.9,12.7,4.3,21.8c0,1.7-3.5,2.4-3.7,0.6C12.1,35.2,11.9,30.3,11.6,21.6z"/>
		<path class="st7" d="M72.7,67.4c0.3,0.8,0.4,1.6-0.1,2.4c-0.5,0.9-1.8,1.4-2.8,1.7c-1.3,0.4-2.7,0.7-4,1.1
			c-0.5,0.2-0.9,0.3-1.4,0.6L64,73.4l-0.1-0.3c-0.3-1-0.5-2-0.8-3L63,69.8l0.3-0.1c2.9-0.8,5.9-1.6,8.8-2.4l0.3-0.1L72.7,67.4z"/>
		<path class="st22" d="M72.3,67.5c1.4,4-4.1,3.5-8,5.4c-0.3-1-0.5-2-0.8-3C66.4,69.1,69.3,68.3,72.3,67.5z"/>
		
			<rect x="64.5" y="69.2" transform="matrix(0.9659 -0.2589 0.2589 0.9659 -16.1867 19.2654)" class="st7" width="1.2" height="3.7"/>
		
			<rect x="64.8" y="69.5" transform="matrix(0.9659 -0.2589 0.2589 0.9659 -16.1864 19.2656)" class="st22" width="0.6" height="3.1"/>
		<path class="st7" d="M2.3,67.4C2,68.2,1.9,69,2.4,69.8c0.5,0.9,1.8,1.4,2.8,1.7c1.3,0.4,2.7,0.7,4,1.1c0.5,0.2,0.9,0.3,1.4,0.6
			l0.3,0.2l0.1-0.3c0.3-1,0.5-2,0.8-3l0.1-0.3l-0.3-0.1c-2.9-0.8-5.9-1.6-8.8-2.4l-0.4-0.2L2.3,67.4z"/>
		<path class="st22" d="M2.6,67.5c-1.4,4,4.1,3.5,8,5.4c0.3-1,0.5-2,0.8-3C8.5,69.1,5.5,68.3,2.6,67.5z"/>
		<rect x="8" y="70.5" transform="matrix(0.2589 -0.9659 0.9659 0.2589 -61.3448 62.174)" class="st7" width="3.7" height="1.2"/>
		<rect x="8.3" y="70.8" transform="matrix(0.2586 -0.966 0.966 0.2586 -61.3465 62.1968)" class="st22" width="3.1" height="0.6"/>
		<path class="st7" d="M55.8,10.5c0.4,0.1,0.9,0.3,1,0.8c0,0.2,0,0.2-0.1,0.4c-0.5,1-1.2,1.9-1.7,2.9c-0.2,0.5-1.1,0.6-1.6,0.5
			c-6.6-2.4-23.8-2.3-30.5,0h0h-0.1c-0.5,0-1.1,0-1.4-0.5c-0.5-1-1.2-1.9-1.7-2.9c-0.1-0.1-0.1-0.2-0.1-0.4c0.1-0.5,0.5-0.6,0.9-0.7
			c2.5-0.8,5.3-1.3,7.9-1.5c3.2-0.4,6.5-0.5,9.8-0.5s6.6,0.2,9.8,0.5C50.5,9.3,53.2,9.7,55.8,10.5z"/>
		
			<radialGradient id="SVGID_18_" cx="-463.5446" cy="1327.6356" r="10.5096" gradientTransform="matrix(-1.0486 0 0 1.0486 -447.9307 -1374.9613)" gradientUnits="userSpaceOnUse">
			<stop  offset="0" style="stop-color:#FFFFFF"/>
			<stop  offset="1" style="stop-color:#5CDDFF"/>
		</radialGradient>
		<path class="st23" d="M54.3,14.3c0.6-1.1,1.1-1.9,1.7-2.9c0.1-0.1-0.1-0.2-0.5-0.2c-8.1-2.6-26.9-2.7-35,0
			c-0.2,0.1-0.5,0.1-0.5,0.2c0.6,1.1,1.1,1.9,1.7,2.9c0.1,0.1,0.4,0.2,0.8,0.2c6.7-2.3,24.2-2.5,30.9,0
			C53.8,14.5,54.3,14.4,54.3,14.3z"/>
	</g>
</g>
</svg>
