<?xml version="1.0" encoding="utf-8"?>
<!-- Generator: Adobe Illustrator 24.1.2, SVG Export Plug-In . SVG Version: 6.00 Build 0)  -->
<svg version="1.1" id="Layer_1" xmlns="http://www.w3.org/2000/svg" xmlns:xlink="http://www.w3.org/1999/xlink" x="0px" y="0px"
	 viewBox="0 0 75 157.1" style="enable-background:new 0 0 75 157.1;" xml:space="preserve">
<style type="text/css">
	.st0{fill-rule:evenodd;clip-rule:evenodd;fill:#808184;}
	.st1{fill-rule:evenodd;clip-rule:evenodd;fill:#FFFBD4;}
	.st2{fill-rule:evenodd;clip-rule:evenodd;fill:#404041;}
	.st3{fill-rule:evenodd;clip-rule:evenodd;fill:url(#SVGID_1_);}
	.st4{fill-rule:evenodd;clip-rule:evenodd;fill:url(#SVGID_2_);}
	.st5{fill-rule:evenodd;clip-rule:evenodd;fill:url(#SVGID_3_);}
	.st6{fill-rule:evenodd;clip-rule:evenodd;fill:url(#SVGID_4_);}
	.st7{fill-rule:evenodd;clip-rule:evenodd;fill:#B26111;}
	.st8{fill-rule:evenodd;clip-rule:evenodd;fill:url(#SVGID_5_);}
	.st9{fill-rule:evenodd;clip-rule:evenodd;fill:#A4540D;}
	.st10{fill-rule:evenodd;clip-rule:evenodd;fill:url(#SVGID_6_);}
	.st11{fill-rule:evenodd;clip-rule:evenodd;fill:url(#SVGID_7_);}
	.st12{fill-rule:evenodd;clip-rule:evenodd;fill:url(#SVGID_8_);}
	.st13{fill-rule:evenodd;clip-rule:evenodd;fill:url(#SVGID_9_);}
	.st14{fill-rule:evenodd;clip-rule:evenodd;fill:url(#SVGID_10_);}
	.st15{fill-rule:evenodd;clip-rule:evenodd;fill:url(#SVGID_11_);}
	.st16{fill-rule:evenodd;clip-rule:evenodd;fill:url(#SVGID_12_);}
	.st17{fill-rule:evenodd;clip-rule:evenodd;fill:#E39F15;}
	.st18{fill-rule:evenodd;clip-rule:evenodd;fill:url(#SVGID_13_);}
	.st19{fill-rule:evenodd;clip-rule:evenodd;fill:#929497;}
	.st20{fill-rule:evenodd;clip-rule:evenodd;fill:url(#SVGID_14_);}
	.st21{fill-rule:evenodd;clip-rule:evenodd;fill:url(#SVGID_15_);}
	.st22{fill-rule:evenodd;clip-rule:evenodd;fill:#E8A813;}
	.st23{fill-rule:evenodd;clip-rule:evenodd;fill:url(#SVGID_16_);}
	.st24{fill-rule:evenodd;clip-rule:evenodd;fill:url(#SVGID_17_);}
	.st25{fill-rule:evenodd;clip-rule:evenodd;fill:url(#SVGID_18_);}
	.st26{fill-rule:evenodd;clip-rule:evenodd;fill:url(#SVGID_19_);}
	.st27{fill-rule:evenodd;clip-rule:evenodd;fill:url(#SVGID_20_);}
</style>
<g>
	<g>
		<g>
			<path class="st0" d="M14.7,149.1c1.2,0.8,2.6,1.6,4.2,2.1c0.7,0.2,2,0.6,3,0.2c-2.5-0.9-4.8-2.3-6-3.1s-3.2-2.2-4.8-3.7
				C10.6,145.9,13.6,148.2,14.7,149.1z"/>
			<path class="st1" d="M15,148.8c2.4,1.7,5.1,2.6,6.4,2.3c-2.3-0.9-4.5-2.2-5.6-2.9s-2.9-2-4.4-3.3C11.6,145.8,13,147.3,15,148.8z"
				/>
			<g>
				<path class="st0" d="M60.3,149.1c-1.2,0.8-2.6,1.6-4.2,2.1c-0.7,0.2-2,0.6-3,0.2c2.5-0.9,4.8-2.3,6-3.1s3.2-2.2,4.8-3.7
					C64.4,145.9,61.4,148.2,60.3,149.1z"/>
				<path class="st1" d="M60,148.8c-2.4,1.7-5.1,2.6-6.4,2.3c2.3-0.9,4.5-2.2,5.6-2.9c1.1-0.7,2.9-2,4.4-3.3
					C63.4,145.8,62.1,147.3,60,148.8z"/>
			</g>
		</g>
		<path class="st0" d="M12.9,6.7V5.8c0-1.3,1.1-2.4,2.4-2.4h44.4c1.3,0,2.4,1.1,2.4,2.4v0.9H12.9z"/>
		<g>
			<path class="st2" d="M10.1,20.8v21.5c0,0.6-0.5,1.1-1.1,1.1H6.7c-0.6,0-1.1-0.5-1.1-1.1V20.8c0-0.6,0.5-1.1,1.1-1.1H9
				C9.6,19.7,10.1,20.2,10.1,20.8L10.1,20.8z M69.4,20.8v21.5c0,0.6-0.5,1.1-1.1,1.1H66c-0.6,0-1.1-0.5-1.1-1.1V20.8
				c0-0.6,0.5-1.1,1.1-1.1h2.3C68.9,19.7,69.4,20.2,69.4,20.8z"/>
			<g>
				
					<linearGradient id="SVGID_1_" gradientUnits="userSpaceOnUse" x1="-470.6872" y1="1289.4744" x2="-470.6872" y2="1268.7972" gradientTransform="matrix(-1 0 0 1 -462.8372 -1246.4774)">
					<stop  offset="0" style="stop-color:#404041"/>
					<stop  offset="0.27" style="stop-color:#808184"/>
					<stop  offset="0.54" style="stop-color:#A6A8AB"/>
					<stop  offset="1" style="stop-color:#231F20"/>
				</linearGradient>
				<path class="st3" d="M9.7,20.8v21.5C9.7,42.7,9.4,43,9,43H6.7C6.3,43,6,42.7,6,42.2V20.8C6,20.4,6.3,20,6.7,20H9
					C9.4,20.1,9.7,20.4,9.7,20.8z"/>
				
					<linearGradient id="SVGID_2_" gradientUnits="userSpaceOnUse" x1="-529.9872" y1="1289.4744" x2="-529.9872" y2="1268.7972" gradientTransform="matrix(-1 0 0 1 -462.8372 -1246.4774)">
					<stop  offset="0" style="stop-color:#404041"/>
					<stop  offset="0.27" style="stop-color:#808184"/>
					<stop  offset="0.54" style="stop-color:#A6A8AB"/>
					<stop  offset="1" style="stop-color:#231F20"/>
				</linearGradient>
				<path class="st4" d="M69,20.8v21.5c0,0.4-0.3,0.7-0.7,0.7H66c-0.4,0-0.7-0.3-0.7-0.7V20.8c0-0.4,0.3-0.7,0.7-0.7h2.3
					C68.7,20.1,69,20.4,69,20.8z"/>
			</g>
		</g>
		<path class="st2" d="M12,114.4v18.8c0,0.5-0.4,1-1,1H9c-0.5,0-1-0.4-1-1v-18.8c0-0.5,0.4-1,1-1h2C11.5,113.4,12,113.9,12,114.4
			L12,114.4z M67,114.4v18.8c0,0.5-0.4,1-1,1h-2c-0.5,0-1-0.4-1-1v-18.8c0-0.5,0.4-1,1-1h2C66.5,113.4,67,113.9,67,114.4z"/>
		<g>
			
				<linearGradient id="SVGID_3_" gradientUnits="userSpaceOnUse" x1="-472.8372" y1="1380.3025" x2="-472.8372" y2="1362.1819" gradientTransform="matrix(-1 0 0 1 -462.8372 -1246.4774)">
				<stop  offset="0" style="stop-color:#404041"/>
				<stop  offset="0.27" style="stop-color:#808184"/>
				<stop  offset="0.54" style="stop-color:#A6A8AB"/>
				<stop  offset="1" style="stop-color:#231F20"/>
			</linearGradient>
			<path class="st5" d="M11.6,114.4v18.8c0,0.3-0.3,0.6-0.6,0.6H9c-0.3,0-0.6-0.3-0.6-0.6v-18.8c0-0.3,0.3-0.6,0.6-0.6h2
				C11.3,113.8,11.6,114.1,11.6,114.4z"/>
			
				<linearGradient id="SVGID_4_" gradientUnits="userSpaceOnUse" x1="-527.8372" y1="1380.3025" x2="-527.8372" y2="1362.1819" gradientTransform="matrix(-1 0 0 1 -462.8372 -1246.4774)">
				<stop  offset="0" style="stop-color:#404041"/>
				<stop  offset="0.27" style="stop-color:#808184"/>
				<stop  offset="0.54" style="stop-color:#A6A8AB"/>
				<stop  offset="1" style="stop-color:#231F20"/>
			</linearGradient>
			<path class="st6" d="M66.6,114.4v18.8c0,0.3-0.3,0.6-0.6,0.6h-2c-0.3,0-0.6-0.3-0.6-0.6v-18.8c0-0.3,0.3-0.6,0.6-0.6h2
				C66.3,113.8,66.6,114.1,66.6,114.4z"/>
		</g>
		<path class="st7" d="M64.5,83.8l0.6,29.6l0,0c-0.4,3.1-0.6,6.3-0.6,9.4c0,4,0.2,8.3,1,12.2l0,0l0.1,3.8c0.4,20-56.8,20-56.4,0
			l0.1-3.8l0,0c0.8-3.9,1-8.2,1-12.2c0-3.1-0.2-6.3-0.6-9.4l0,0l0.6-29.6l7-2.4h40.1L64.5,83.8z"/>
		
			<linearGradient id="SVGID_5_" gradientUnits="userSpaceOnUse" x1="-472.4962" y1="1363.8774" x2="-528.2004" y2="1363.8774" gradientTransform="matrix(-1 0 0 1 -462.8372 -1246.4774)">
			<stop  offset="0" style="stop-color:#C37A14"/>
			<stop  offset="0.1254" style="stop-color:#FBEC09"/>
			<stop  offset="0.8646" style="stop-color:#FBF209"/>
			<stop  offset="1" style="stop-color:#BF7214"/>
		</linearGradient>
		<path class="st8" d="M64.2,84.1l0.6,29.3c-0.4,2.7-0.6,6-0.6,9.4c0,4.7,0.4,9.1,1,12.2l0.1,3.7c0.4,19.6-56.1,19.6-55.7,0l0.1-3.7
			c0.6-3.2,1-7.5,1-12.2c0-3.5-0.2-6.7-0.6-9.4l0.1-3.7l0.1-3.7l0.1-3.7l0.1-3.7l0.1-3.7l0.1-3.7l0.1-3.7l0.1-3.7l6.7-2.3h6.6h6.7
			h6.7h6.6h6.7h6.7L64.2,84.1z"/>
		<path class="st9" d="M61.7,110.1c-1.5-1.2-2.6-3.9-3.1-5.7c-1-3.4-1.5-7.2-1.7-10.8l0,0l0,0c0-1.7,0.7-3.5,1.6-4.8
			c0.6-0.9,2-2.6,3.3-1.9c0.4,0.2,0.7,0.6,0.7,1.1l0,0V88c0.2,7.1,0.5,14.2,0.7,21.3l0.1,2L61.7,110.1z"/>
		
			<linearGradient id="SVGID_6_" gradientUnits="userSpaceOnUse" x1="-524.9595" y1="1344.9604" x2="-519.0223" y2="1344.9604" gradientTransform="matrix(-1 0 0 1 -462.8372 -1246.4774)">
			<stop  offset="0" style="stop-color:#FFFFFF"/>
			<stop  offset="1" style="stop-color:#5CDDFF"/>
		</linearGradient>
		<path class="st10" d="M62.2,109.4c-1.9-1.5-4-7.2-4.4-15.8c0-3.6,3.5-7.2,3.7-5.5C61.8,96.4,62,101.1,62.2,109.4z"/>
		<path class="st9" d="M11.8,109.4c0.2-7.1,0.5-14.2,0.7-21.3V88l0,0c0.1-0.5,0.3-0.9,0.7-1.1c1.3-0.7,2.7,1,3.3,1.9
			c0.9,1.4,1.6,3.2,1.6,4.8l0,0l0,0c-0.2,3.6-0.7,7.4-1.7,10.8c-0.5,1.8-1.5,4.5-3.1,5.7l-1.6,1.2L11.8,109.4z"/>
		
			<linearGradient id="SVGID_7_" gradientUnits="userSpaceOnUse" x1="-475.7204" y1="1344.9604" x2="-481.6563" y2="1344.9604" gradientTransform="matrix(-1 0 0 1 -462.8372 -1246.4774)">
			<stop  offset="0" style="stop-color:#FFFFFF"/>
			<stop  offset="1" style="stop-color:#5CDDFF"/>
		</linearGradient>
		<path class="st11" d="M12.8,109.4c1.9-1.5,4-7.2,4.4-15.8c0-3.6-3.5-7.2-3.7-5.5C13.2,96.4,13,101.1,12.8,109.4z"/>
		<path class="st7" d="M61.3,120l1.6,19.8l0,0c0.4,17.5-51.3,17.5-50.9,0l0,0l1.6-19.8l0.4,0.1c16.4,5.7,30.4,5.7,46.8,0L61.3,120z"
			/>
		
			<linearGradient id="SVGID_8_" gradientUnits="userSpaceOnUse" x1="-474.8047" y1="1382.9524" x2="-526.2434" y2="1382.9524" gradientTransform="matrix(-1 0 0 1 -462.8372 -1246.4774)">
			<stop  offset="0" style="stop-color:#C37A14"/>
			<stop  offset="0.1254" style="stop-color:#FBEC09"/>
			<stop  offset="0.8646" style="stop-color:#FBF209"/>
			<stop  offset="1" style="stop-color:#BF7214"/>
		</linearGradient>
		<path class="st12" d="M61,120.5c-16.5,5.7-30.6,5.7-47,0l-1.6,19.3c-0.4,17,50.6,17,50.2,0L61,120.5z"/>
		<g>
			
				<radialGradient id="SVGID_9_" cx="-500.381" cy="1357.6497" r="17.9141" gradientTransform="matrix(-1 0 0 1 -462.8372 -1246.4774)" gradientUnits="userSpaceOnUse">
				<stop  offset="0" style="stop-color:#FFFFFF"/>
				<stop  offset="1" style="stop-color:#5CDDFF"/>
			</radialGradient>
			<path class="st13" d="M59,119.7c-14.1,4.3-28.3,4.6-42.4-0.1c-1-0.3-1.6-1.3-1.4-2.3c0.9-5.6,2.1-11.1,3-16.7
				c0.1-0.3,0.2-0.6,0.4-0.9l0.2-0.3h0.4c0.2,0,0.4,0,0.6,0c11.5,2,23.2,2,34.7,0c0.6-0.1,1.1,0,1.6,0.4c0.5,0.3,0.8,0.8,0.8,1.4
				c0.9,5.6,2.1,11.1,3,16.7c0.1,0.6-0.1,1.2-0.4,1.6l-0.2,0.2L59,119.7z"/>
			
				<radialGradient id="SVGID_10_" cx="-490.121" cy="1325.2877" r="32.7372" gradientTransform="matrix(-1.0486 0 0 1.0486 -475.1504 -1300.3907)" gradientUnits="userSpaceOnUse">
				<stop  offset="0" style="stop-color:#FFFFFF"/>
				<stop  offset="1" style="stop-color:#5CDDFF"/>
			</radialGradient>
			<path class="st14" d="M56,101.3c1,6.1,2,10.6,3,16.7c0.1,0.3,0,0.7-0.2,0.9c-14,4.3-27.9,4.5-41.9-0.1c-0.5-0.2-0.9-0.7-0.8-1.3
				c1-6.1,2-10.6,3-16.7c0-0.2,0.1-0.4,0.2-0.5c0.1,0,0.2,0,0.3,0c11.7,2,23.4,2,35,0c0.3-0.1,0.6,0,0.9,0.2
				C55.8,100.7,55.9,101,56,101.3z"/>
			
				<radialGradient id="SVGID_11_" cx="-490.6675" cy="1325.5376" r="31.9043" gradientTransform="matrix(-1.0486 0 0 1.0486 -475.1504 -1300.3907)" gradientUnits="userSpaceOnUse">
				<stop  offset="0" style="stop-color:#FFFFFF"/>
				<stop  offset="1" style="stop-color:#5CDDFF"/>
			</radialGradient>
			<path class="st15" d="M56,101.3c1,6.1,2,10.6,3,16.7c0,0.3,0,0.5-0.1,0.7c-13.6,4-27.2,4.1-40.8-0.4c-0.6-0.2-0.9-0.7-0.8-1.3
				c1-6.1,2-10.5,3-16.6c11.5,1.9,22.9,1.9,34.4-0.1c0.3-0.1,0.6,0,0.9,0.2C55.8,100.7,55.9,101,56,101.3z"/>
		</g>
		<g>
			<g>
				<path class="st9" d="M71,110.7c0.3,0.7,0.4,1.6-0.1,2.3c-0.5,0.9-1.7,1.3-2.6,1.6c-1.3,0.4-2.5,0.6-3.8,1.1
					c-0.5,0.2-0.9,0.3-1.3,0.5l-0.3,0.2l-0.1-0.3c-0.3-1-0.5-1.9-0.8-2.9l-0.1-0.3l0.3-0.1c2.8-0.8,5.6-1.5,8.4-2.3l0.3-0.1
					L71,110.7z"/>
				
					<linearGradient id="SVGID_12_" gradientUnits="userSpaceOnUse" x1="-529.389" y1="1355.2042" x2="-529.389" y2="1364.5032" gradientTransform="matrix(-1 0 0 1 -462.8372 -1246.4774)">
					<stop  offset="0" style="stop-color:#FFDE7B"/>
					<stop  offset="0.43" style="stop-color:#FBC409"/>
					<stop  offset="1" style="stop-color:#BF7214"/>
				</linearGradient>
				<path class="st16" d="M70.7,110.8c1.3,3.8-3.9,3.3-7.7,5.1c-0.3-1-0.5-1.9-0.8-2.9C65.1,112.3,67.9,111.6,70.7,110.8z"/>
				
					<rect x="63.2" y="112.4" transform="matrix(0.9659 -0.259 0.259 0.9659 -27.375 20.415)" class="st9" width="1.2" height="3.5"/>
				
					<rect x="63.5" y="112.7" transform="matrix(0.966 -0.2587 0.2587 0.966 -27.346 20.3867)" class="st17" width="0.6" height="2.9"/>
			</g>
			<g>
				<path class="st9" d="M4,110.7c-0.3,0.7-0.4,1.6,0.1,2.3c0.5,0.9,1.7,1.3,2.6,1.6c1.3,0.4,2.5,0.6,3.8,1.1
					c0.5,0.2,0.9,0.3,1.3,0.5l0.3,0.2l0.1-0.3c0.3-1,0.5-1.9,0.8-2.9l0.1-0.3l-0.3-0.1c-2.8-0.8-5.6-1.5-8.4-2.3l-0.3,0L4,110.7z"/>
				
					<linearGradient id="SVGID_13_" gradientUnits="userSpaceOnUse" x1="-471.2353" y1="1355.2042" x2="-471.2353" y2="1364.5032" gradientTransform="matrix(-1 0 0 1 -462.8372 -1246.4774)">
					<stop  offset="0" style="stop-color:#FFDE7B"/>
					<stop  offset="0.43" style="stop-color:#FBC409"/>
					<stop  offset="1" style="stop-color:#BF7214"/>
				</linearGradient>
				<path class="st18" d="M4.3,110.8c-1.3,3.8,3.9,3.3,7.6,5.1c0.3-1,0.5-1.9,0.8-2.9C9.9,112.3,7.1,111.6,4.3,110.8z"/>
				
					<rect x="9.5" y="113.5" transform="matrix(0.2588 -0.9659 0.9659 0.2588 -101.8748 95.4373)" class="st9" width="3.5" height="1.2"/>
				
					<rect x="9.8" y="113.8" transform="matrix(0.259 -0.9659 0.9659 0.259 -101.8772 95.4268)" class="st17" width="2.9" height="0.6"/>
			</g>
		</g>
		<g>
			<path class="st19" d="M63.8,89.6c0,0.5,0.1,2.5-0.3,2.5h-0.4L63,88.2C63.5,88.2,63.8,88.9,63.8,89.6z"/>
			
				<linearGradient id="SVGID_14_" gradientUnits="userSpaceOnUse" x1="-526.2175" y1="1334.8114" x2="-526.2802" y2="1338.3994" gradientTransform="matrix(-1 0 0 1 -462.8372 -1246.4774)">
				<stop  offset="0" style="stop-color:#D0D2D3"/>
				<stop  offset="0.11" style="stop-color:#F1F1F2"/>
				<stop  offset="0.68" style="stop-color:#F1F1F2"/>
				<stop  offset="1" style="stop-color:#D0D2D3"/>
			</linearGradient>
			<path class="st20" d="M63.1,88.4c0.5,0,0.6,0.8,0.6,1.2c0,0.5,0.1,2.4-0.2,2.4c-0.1,0-0.1,0-0.3,0C63.1,90.7,63.1,89.6,63.1,88.4
				z"/>
			<path class="st19" d="M11.2,89.6c0,0.5-0.1,2.5,0.3,2.5h0.4l0.1-3.9C11.5,88.2,11.2,88.9,11.2,89.6z"/>
			
				<linearGradient id="SVGID_15_" gradientUnits="userSpaceOnUse" x1="-474.3588" y1="1338.4061" x2="-474.484" y2="1334.8199" gradientTransform="matrix(-1 0 0 1 -462.8372 -1246.4774)">
				<stop  offset="0" style="stop-color:#D0D2D3"/>
				<stop  offset="0.11" style="stop-color:#F1F1F2"/>
				<stop  offset="0.68" style="stop-color:#F1F1F2"/>
				<stop  offset="1" style="stop-color:#D0D2D3"/>
			</linearGradient>
			<path class="st21" d="M11.9,88.4c-0.5,0-0.6,0.8-0.6,1.2c0,0.5-0.1,2.4,0.2,2.4c0.1,0,0.1,0,0.3,0C11.9,90.7,11.9,89.6,11.9,88.4
				z"/>
		</g>
		<path class="st22" d="M50.2,149.6c-0.6-3.4-1.2-7.4-1.6-11.6c-0.4-4.2-0.7-8.2-0.8-11.6c0.6,3.4,1.2,7.4,1.6,11.6
			C49.8,142.1,50.1,146.1,50.2,149.6L50.2,149.6z M24.8,149.6c0.6-3.4,1.2-7.4,1.6-11.6c0.4-4.2,0.7-8.2,0.8-11.6
			c-0.6,3.4-1.2,7.4-1.6,11.6C25.2,142.1,24.9,146.1,24.8,149.6z"/>
		
			<linearGradient id="SVGID_16_" gradientUnits="userSpaceOnUse" x1="-500.3372" y1="1320.0328" x2="-500.3372" y2="1334.9797" gradientTransform="matrix(-1 0 0 1 -462.8372 -1246.4774)">
			<stop  offset="0" style="stop-color:#A8570F"/>
			<stop  offset="1" style="stop-color:#E39F15"/>
		</linearGradient>
		<path class="st23" d="M63.8,84.4c-17.5,1.7-35.1,1.7-52.6,0c-1.8,0-3.2-1.5-3.3-3.3L6.7,9.6c0-1.8,1.5-3.3,3.3-3.3h55
			c1.8,0,3.3,1.5,3.3,3.3c-0.4,23.8-0.8,47.6-1.2,71.5C67,82.9,65.6,84.4,63.8,84.4z"/>
		
			<linearGradient id="SVGID_17_" gradientUnits="userSpaceOnUse" x1="-469.3953" y1="1291.1338" x2="-531.7298" y2="1291.1338" gradientTransform="matrix(-1 0 0 1 -462.8372 -1246.4774)">
			<stop  offset="0" style="stop-color:#C37A14"/>
			<stop  offset="0.1254" style="stop-color:#FBEC09"/>
			<stop  offset="0.8646" style="stop-color:#FBF209"/>
			<stop  offset="1" style="stop-color:#BF7214"/>
		</linearGradient>
		<path class="st24" d="M8.3,81.1L7.1,9.6c0-1.6,1.3-2.9,2.9-2.9h55c1.6,0,2.9,1.3,2.9,2.9l-1.2,71.5C66.7,83.3,8.3,83.2,8.3,81.1z"
			/>
		
			<linearGradient id="SVGID_18_" gradientUnits="userSpaceOnUse" x1="-500.2872" y1="1316.6556" x2="-500.2872" y2="1330.1193" gradientTransform="matrix(-1 0 0 1 -462.8372 -1246.4774)">
			<stop  offset="0" style="stop-color:#A8570F"/>
			<stop  offset="1" style="stop-color:#E39F15"/>
		</linearGradient>
		<path class="st25" d="M57.6,81.1H17.4c-3.4,0-6.1-2.8-6.2-6.2l-1.2-59c-0.1-3.4,2.8-6.2,6.2-6.2h42.5c3.4,0,6.3,2.8,6.2,6.2
			l-1.2,59C63.7,78.3,61,81.1,57.6,81.1z"/>
		
			<linearGradient id="SVGID_19_" gradientUnits="userSpaceOnUse" x1="-472.7497" y1="1291.1274" x2="-528.3268" y2="1291.1274" gradientTransform="matrix(-1 0 0 1 -462.8372 -1246.4774)">
			<stop  offset="0" style="stop-color:#C37A14"/>
			<stop  offset="0.1254" style="stop-color:#FBEC09"/>
			<stop  offset="0.8646" style="stop-color:#FBF209"/>
			<stop  offset="1" style="stop-color:#BF7214"/>
		</linearGradient>
		<path class="st26" d="M57.6,79.3H17.4c-3.2,0-5.8-2.6-5.9-5.7l-1.2-57.8c-0.1-3.2,2.6-5.7,5.9-5.7h42.5c3.2,0,5.9,2.6,5.9,5.7
			l-1.2,57.8C63.4,76.7,60.8,79.3,57.6,79.3z"/>
		<path class="st22" d="M22,73.7c4.8-0.4,10.2-0.6,15.9-0.6s11.1,0.2,15.9,0.6c-4.8,0.4-10.2,0.6-15.9,0.6
			C32.2,74.3,26.8,74.1,22,73.7L22,73.7z M22,15.7c4.8-0.4,10.2-0.6,15.9-0.6s11.1,0.2,15.9,0.6c-4.8,0.4-10.2,0.6-15.9,0.6
			C32.2,16.2,26.8,16.1,22,15.7L22,15.7z M22,25.1c4.8-0.4,10.2-0.6,15.9-0.6s11.1,0.2,15.9,0.6c-4.8,0.4-10.2,0.6-15.9,0.6
			S26.8,25.5,22,25.1L22,25.1z M22,64.2c4.8-0.4,10.2-0.6,15.9-0.6s11.1,0.2,15.9,0.6c-4.8,0.4-10.2,0.6-15.9,0.6
			C32.2,64.9,26.8,64.6,22,64.2z"/>
		
			<linearGradient id="SVGID_20_" gradientUnits="userSpaceOnUse" x1="-500.3372" y1="1323.7001" x2="-500.3372" y2="1353.0176" gradientTransform="matrix(-1 0 0 1 -462.8372 -1246.4774)">
			<stop  offset="0" style="stop-color:#C37A14"/>
			<stop  offset="0.1254" style="stop-color:#FBEC09"/>
			<stop  offset="0.8646" style="stop-color:#FBF209"/>
			<stop  offset="1" style="stop-color:#BF7214"/>
		</linearGradient>
		<path class="st27" d="M58.5,85.1l-5.2,13.2c-10.4,2.1-21.2,2.1-31.6,0l-5.2-13.2C16.5,83.2,58.5,83.1,58.5,85.1z"/>
	</g>
</g>
</svg>
