<?xml version="1.0" encoding="utf-8"?>
<!-- Generator: Adobe Illustrator 26.0.0, SVG Export Plug-In . SVG Version: 6.00 Build 0)  -->
<svg version="1.1" id="Capa_1" xmlns="http://www.w3.org/2000/svg" xmlns:xlink="http://www.w3.org/1999/xlink" x="0px" y="0px"
	 viewBox="0 0 36 72" style="enable-background:new 0 0 36 72;" xml:space="preserve">
<style type="text/css">
	.st0{fill:#FF0000;}
	.st1{fill:url(#SVGID_1_);}
	.st2{fill:url(#SVGID_00000061462666564573369420000001713495305768756613_);}
	.st3{fill:url(#SVGID_00000048463897304049309240000008167748555256136859_);}
	.st4{fill:#990000;}
	.st5{fill:url(#SVGID_00000095322550680396507840000008392036286093097380_);}
	.st6{fill:url(#SVGID_00000183951802988666952200000003671217196975100296_);}
	.st7{fill:#810000;}
	.st8{fill:url(#SVGID_00000183210340016954271690000014869894218463096476_);}
	.st9{fill:url(#SVGID_00000178913988934823701610000006472000184759741613_);}
	.st10{fill:url(#SVGID_00000121238971195412669830000006072902899246178209_);}
	.st11{fill:url(#SVGID_00000011715168392569763590000009269446325722126763_);}
	.st12{fill:#900000;}
	.st13{fill:#A3A3A3;}
	.st14{fill:#DBDBDB;}
	.st15{fill:#B6B6B6;}
	.st16{fill:#D1D1D1;}
	.st17{fill:#F6F6F6;}
	.st18{fill:url(#SVGID_00000028296742845337446060000013520334026425193659_);}
	.st19{fill:url(#SVGID_00000021798751923152096040000011376124885757339820_);}
	.st20{fill:url(#SVGID_00000098919978262124665990000012069737468898447034_);}
	.st21{fill:url(#SVGID_00000075134246642514245140000002809414875584604300_);}
	.st22{fill:url(#SVGID_00000129897128867176478880000012743137529162287259_);}
	.st23{fill:url(#SVGID_00000151537024690241792480000001778065433843183767_);}
	.st24{fill:url(#SVGID_00000070835897087771563290000017658591253480288896_);}
	.st25{fill:url(#SVGID_00000069389627292397675660000016513461257566122898_);}
	.st26{fill:url(#SVGID_00000044169417891893499320000002143930903215200386_);}
	.st27{fill:#FFFFFF;}
	.st28{fill:#E9E9E9;}
	.st29{fill:#F2F2F2;}
	.st30{fill:url(#SVGID_00000046319275231952207910000009992688092863728796_);}
	.st31{fill:url(#SVGID_00000090975286730305832280000009393185383427423623_);}
	.st32{fill:#4D4D4D;}
	.st33{fill:url(#SVGID_00000103962464896617291270000002703692361780997558_);}
	.st34{fill:#FFC9FF;}
	.st35{fill:#FF87BD;}
	.st36{fill:url(#SVGID_00000054254520996787829940000017625381388411888529_);}
	.st37{fill:url(#SVGID_00000168079887738852382940000012783759886589275791_);}
	.st38{fill:url(#SVGID_00000153703867953425001210000017110940052505738144_);}
	.st39{fill:url(#SVGID_00000103946293837607566960000014656677323589228948_);}
	.st40{fill:url(#SVGID_00000067213921537650559050000016280996388916728745_);}
	.st41{fill:url(#SVGID_00000038414808269127150040000014502404346084462989_);}
	.st42{fill:url(#SVGID_00000117659182791546709520000008821486419515709338_);}
	.st43{fill:url(#SVGID_00000107547244709156488810000010481103916258396315_);}
	.st44{fill:#4C4C4C;}
	.st45{fill:#909090;}
	.st46{fill:url(#SVGID_00000070098790090426229790000005630877441498269613_);}
</style>
<g>
	<path d="M35.1,33.5c-0.5-0.6-1.2-1-1.8-1c0,0,0,0-0.1,0c-0.2,0-0.3,0-0.4,0.1c0-0.8,0-1.5,0.1-2.2c0,0,0-0.1,0-0.1
		c0-0.3,0.1-0.5,0.1-0.7c0,0,0,0,0,0c0-0.1,0.4-8.6,0.7-12.1c0-0.5,0.1-1,0.1-1.5c0.3-3.2,0.7-6.8-1.8-10.5c-0.1-0.2-1.6-2.6-6-3.6
		c-1.6-0.4-2.8-0.6-3.7-0.8c-0.1,0-0.2,0-0.3-0.1c-0.4-0.1-0.7-0.1-1-0.2c-0.1,0-0.2,0-0.2,0c-0.2,0-0.5-0.1-0.7-0.1
		c-0.1,0-0.1,0-0.2,0c0,0,0,0,0,0c-0.1,0-0.1,0-0.2,0c-0.1,0-0.3,0-0.4,0c-0.1,0-0.1,0-0.2,0c0,0,0,0,0,0c-0.1,0-0.1,0-0.2,0
		c0,0,0,0,0,0c-0.1,0-0.1,0-0.2,0c-0.2,0-0.4,0-0.6,0l0,0h-0.1c-0.4,0-0.7,0-1,0c-0.1,0-0.1,0-0.2,0l0,0c-0.1,0-0.1,0-0.2,0l0,0
		c0,0,0,0,0,0c-0.1,0-0.1,0-0.2,0c-0.1,0-0.3,0-0.4,0c-0.1,0-0.1,0-0.2,0c0,0,0,0,0,0c0,0,0,0,0,0c-0.1,0-0.1,0-0.2,0c0,0,0,0,0,0
		c-0.1,0-0.1,0-0.2,0c-0.2,0-0.3,0-0.5,0.1c-0.1,0-0.2,0-0.2,0l0,0c-0.1,0-0.2,0-0.2,0c0,0,0,0,0,0c-0.1,0-0.2,0-0.3,0
		c-1,0.2-2.2,0.4-4,0.9C5.4,2.7,4,5,3.9,5.3C1.4,9,1.8,12.6,2.1,15.8c0,0.5,0.1,1,0.1,1.5c0.3,3.5,0.7,12,0.7,12.1c0,0,0,0,0,0
		c0.2,1,0.3,1.9,0.2,3c0,0,0,0-0.1,0.1c-0.1,0-0.3-0.1-0.4-0.1c0,0,0,0,0,0c-0.7,0-1.3,0.4-1.8,1c-0.6,0.8-0.9,1.8-0.7,2.6
		c0,0.1,0.1,0.3,0.3,0.3c0.1,0,0.1,0,0.2,0c0.1,0,0.2,0,0.2-0.1c0,0,0.1,0,0.1,0c0.1,0,0.2-0.1,0.3-0.1C1.7,36,2.4,35.7,3,35.5
		c-0.1,0.5-0.1,1.1-0.2,1.7c-0.1,1.1-0.3,2.2-0.4,3.5c-0.1,1.6-0.3,4-0.4,6.9l0,0l0,0c-0.2,3.1-0.3,5.7-0.3,5.8c0,0,0,0,0,0.1
		c0.5,4.5,1.6,9.8,2.1,11.4c0,0.1,0,0.1,0.1,0.2c0,0,0,0,0,0c0,0,0,0,0,0c0,0,0,0,0,0l0,0l0,0c0,0,0,0,0,0.1l0,0l0,0c0,0,0,0,0,0.1
		l0,0c0,0,0,0,0,0l0,0l0,0c0,0,0,0,0,0.1l0,0l0,0l0,0l0,0l0,0c0,0,0,0,0,0l0,0l0,0c0,0,0,0,0,0.1l0,0l0,0c0,0,0,0,0,0l0,0
		c0,0,0,0,0,0.1l0,0l0,0l0,0l0,0l0,0l0,0c0,0,0,0,0,0.1l0,0l0,0l0,0c0,0,0,0,0,0l0,0l0,0l0,0.1l0,0c0,0,0,0,0,0l0,0l0,0c0,0,0,0,0,0
		c0,0,0,0,0,0c0,0,0,0,0,0l0,0l0,0l0,0l0,0l0,0l0,0l0,0l0,0l0,0l0,0l0,0l0,0l0,0l0,0l0,0c0,0,0,0,0,0l0,0l0,0c0,0,0.1,0.1,0.1,0.1
		l0,0c0,0,0,0,0,0c0,0,0.1,0.1,0.1,0.1l0,0c0,0,0.1,0.1,0.1,0.1c0.5,0.7,1,1.1,1,1.2c0,0,0,0,0,0c0,0,0.1,0,0.1,0.1l0,0l0,0l0,0
		c1.5,1.3,3.6,2.2,6.2,2.8c0.8,0.2,1.6,0.3,2.4,0.4c0.2,0,0.4,0,0.6,0.1l0,0l0.1,0l0,0c0.2,0,0.3,0,0.5,0l0,0l0,0l0,0l0.1,0l0,0
		c0.1,0,0.2,0,0.3,0l0,0l0,0l0,0l0.1,0l0,0l0,0l0,0l0.1,0l0,0l0,0c0.1,0,0.2,0,0.3,0l0,0c0,0,0,0,0,0c0.1,0,0.2,0,0.3,0
		c0.2,0,0.4,0,0.4,0c0.1,0,0.2,0,0.4,0c0.2,0,0.5,0,0.7,0l0,0c0,0,0.1,0,0.1,0c0,0,0,0,0,0c0.1,0,0.2,0,0.3,0l0,0l0.1,0l0,0
		c2.5-0.1,7.1-0.8,10-3.3l0,0l0,0l0,0l0,0c0,0,0,0,0,0c0,0,0.5-0.5,1-1.2l0,0l0,0c0,0,0.1-0.1,0.1-0.1l0,0l0,0l0,0l0,0l0,0l0.1-0.1
		l0,0l0,0l0,0l0,0l0,0l0,0l0,0l0,0c0,0,0,0,0,0c0,0,0,0,0,0l0,0l0,0l0,0l0,0l0,0l0,0l0,0l0,0l0,0l0,0l0,0l0,0l0,0l0,0
		c0,0,0-0.1,0.1-0.1l0,0l0,0l0,0c0,0,0-0.1,0.1-0.1l0,0l0,0l0,0l0,0c0,0,0-0.1,0-0.1l0,0l0,0l0-0.1l0,0c0,0,0,0,0,0l0,0l0,0
		c0,0,0,0,0-0.1l0,0l0,0l0,0l0,0c0,0,0,0,0-0.1l0,0l0,0l0,0l0,0l0,0c0,0,0,0,0,0c0,0,0,0,0-0.1l0,0l0,0l0,0l0,0l0,0c0,0,0-0.1,0-0.1
		l0,0l0,0c0,0,0,0,0,0l0,0c0-0.1,0-0.1,0.1-0.2c0.5-1.6,1.6-6.9,2.1-11.4c0,0,0,0,0-0.1c0-0.1-0.4-8.2-0.8-12.6
		c-0.1-1.3-0.2-2.4-0.4-3.5c-0.1-0.6-0.1-1.1-0.2-1.6c0.6,0.3,1.2,0.5,1.7,0.7c0.1,0,0.2,0.1,0.3,0.1c0,0,0.1,0,0.1,0
		c0.1,0,0.1,0.1,0.2,0.1c0.1,0,0.1,0,0.2,0c0.1-0.1,0.2-0.2,0.3-0.3C36,35.2,35.7,34.2,35.1,33.5z M16.5,0.4
		C16.5,0.4,16.5,0.4,16.5,0.4L16.5,0.4L16.5,0.4z"/>
	<g>
		<path class="st0" d="M33.2,40.7c-0.4-4.5-1.2-7.7-0.5-11.3c0,0,0.4-8.6,0.7-12.1c0.3-3.5,1.2-7.6-1.6-11.8c0,0-1.3-2.4-5.8-3.5
			c-4.4-1-5.7-1.2-8-1.2v0c0,0,0,0,0,0c0,0,0,0-0.1,0v0c-2.2,0-3.6,0.2-8,1.2c-4.5,1-5.8,3.5-5.8,3.5c-2.7,4.2-1.9,8.2-1.6,11.8
			c0.3,3.5,0.7,12.1,0.7,12.1c0.7,3.6-0.1,6.9-0.5,11.3C2.4,45.1,2,53.3,2,53.3c0.5,4.5,1.6,9.8,2,11.3c0.5,1.5,2.3,3.4,2.3,3.4
			c4,3.6,11.4,3.3,11.6,3.3c0.2,0,7.6,0.2,11.6-3.3c0,0,1.8-1.8,2.3-3.4c0.5-1.5,1.6-6.8,2-11.3C33.9,53.3,33.6,45.1,33.2,40.7z"/>
		<linearGradient id="SVGID_1_" gradientUnits="userSpaceOnUse" x1="9.1848" y1="64.423" x2="9.1848" y2="68.5554">
			<stop  offset="0" style="stop-color:#FF0000"/>
			<stop  offset="1" style="stop-color:#990000"/>
		</linearGradient>
		<path class="st1" d="M7.1,68c0,0-0.1-3.6-0.8-5l1.8-0.7c0,0,1.5,2.6,4,3.5v4.3C12.1,70.2,9.1,69.4,7.1,68z"/>
		
			<linearGradient id="SVGID_00000003101431605699161560000015445373047715614910_" gradientUnits="userSpaceOnUse" x1="26.8104" y1="64.423" x2="26.8104" y2="68.5554">
			<stop  offset="0" style="stop-color:#FF0000"/>
			<stop  offset="1" style="stop-color:#990000"/>
		</linearGradient>
		<path style="fill:url(#SVGID_00000003101431605699161560000015445373047715614910_);" d="M28.9,68c0,0,0.1-3.6,0.8-5l-1.8-0.7
			c0,0-1.5,2.6-4,3.5v4.3C23.9,70.2,26.9,69.4,28.9,68z"/>
		
			<linearGradient id="SVGID_00000138561650250415956870000007157803474741331354_" gradientUnits="userSpaceOnUse" x1="17.9922" y1="24.6081" x2="17.9922" y2="0.9948">
			<stop  offset="0" style="stop-color:#FF87BD"/>
			<stop  offset="1" style="stop-color:#FF0000"/>
		</linearGradient>
		<path style="fill:url(#SVGID_00000138561650250415956870000007157803474741331354_);" d="M33.9,53.3c0,0-0.4-8.2-0.8-12.6
			c-0.4-4.5-1.2-7.7-0.5-11.3c0,0,0.4-8.6,0.7-12.1c0.3-3.5,1.2-7.6-1.6-11.8c0,0-1.3-2.4-5.8-3.5c-4.4-1-5.7-1.2-8-1.2v0
			c0,0,0,0,0,0c0,0,0,0-0.1,0v0c-2.2,0-3.6,0.2-8,1.2c-4.5,1-5.8,3.5-5.8,3.5c-2.7,4.2-1.9,8.2-1.6,11.8c0.3,3.5,0.7,12.1,0.7,12.1
			c0.7,3.6-0.1,6.9-0.5,11.3C2.4,45.1,2,53.3,2,53.3c0.5,4.5,1.6,9.8,2,11.3c0.3,0.9,1,1.9,1.6,2.5c0.1-0.1,0.1-0.2,0.1-0.3
			c0-0.6-0.1-1.2-0.2-1.7c-0.2-0.9-0.6-2.8-1.1-4.7c-0.6-2.4-1.2-5-1.4-6.3c-0.3-2.2,0.2-5.9,0.2-6c0,0,0,0,0-0.1
			c0-3.2,0.5-8,0.8-10.3c0-0.2,0.1-0.4,0.1-0.6c0.2-1.9,0.2-3.2-0.1-7c-0.2-1.9-0.2-4.8-0.3-7.6c0-2.7-0.1-5.2-0.2-6.7
			c-0.3-2.9-0.3-4.2-0.1-5.4c0.1-1,0.9-2.7,1-2.9L6.1,5l3.6-2.2c3.7-1.1,8.1-1.2,8.2-1.2c0.1,0,4.6,0.1,8.2,1.2L29.8,5l1.7,2.5
			c0.1,0.2,0.9,1.9,1,2.9c0.1,1.2,0.2,2.6-0.1,5.4c-0.2,1.5-0.2,4-0.2,6.7c-0.1,2.8-0.1,5.7-0.3,7.6c-0.4,3.9-0.4,5.2-0.1,7
			c0,0.2,0,0.4,0.1,0.6c0.3,2.3,0.8,7,0.8,10.3c0,0,0,0,0,0.1c0,0,0.5,3.8,0.2,6c-0.2,1.2-0.8,3.9-1.4,6.3c-0.5,1.9-0.9,3.8-1.1,4.7
			c-0.1,0.6-0.2,1.2-0.2,1.8c0,0.1,0,0.2,0.1,0.3c0.6-0.7,1.4-1.7,1.6-2.6C32.4,63,33.5,57.8,33.9,53.3z"/>
		<path class="st4" d="M33.9,53.3c0,0-0.4-8.2-0.8-12.6c-0.4-4.5-1.2-7.7-0.5-11.3c0,0,0.4-8.6,0.7-12.1c0.3-3.5,1.2-7.6-1.6-11.8
			c0,0-1.3-2.4-5.8-3.5c-4.4-1-5.7-1.2-8-1.2v0c0,0,0,0,0,0c0,0,0,0-0.1,0v0c-2.2,0-3.6,0.2-8,1.2c-4.5,1-5.8,3.5-5.8,3.5
			c-2.7,4.2-1.9,8.2-1.6,11.8c0.3,3.5,0.7,12.1,0.7,12.1c0.7,3.6-0.1,6.9-0.5,11.3C2.4,45.1,2,53.3,2,53.3c0.5,4.5,1.6,9.8,2,11.3
			c0.2,0.8,0.8,1.6,1.3,2.2c0-0.5-0.1-1.1-0.2-1.7c-0.4-2.1-2.1-8.7-2.4-11C2.5,51.9,3,48.1,3,48.1c0-3.6,0.7-9.1,0.9-10.9
			c0.2-1.9,0.2-3.2-0.1-7c-0.4-3.8-0.2-11.3-0.5-14.3c-0.3-3-0.3-4.3-0.1-5.5c0.1-1.2,1.1-3.1,1.1-3.1l1.7-2.6l3.7-2.3
			C13.4,1.3,18,1.2,18,1.2c0,0,4.6,0,8.4,1.2l3.7,2.3l1.7,2.6c0,0,0.9,1.9,1.1,3.1c0.1,1.2,0.2,2.5-0.1,5.5
			c-0.3,3-0.2,10.5-0.5,14.3c-0.4,3.8-0.4,5.1-0.1,7c0.2,1.9,0.9,7.3,0.9,10.9c0,0,0.5,3.8,0.2,6.1c-0.3,2.3-2.1,8.9-2.4,11
			c-0.1,0.7-0.2,1.3-0.2,1.8c0.5-0.7,1.2-1.5,1.4-2.3C32.4,63,33.5,57.8,33.9,53.3z"/>
		
			<linearGradient id="SVGID_00000054227088445598175300000012089702299937946770_" gradientUnits="userSpaceOnUse" x1="6.3911" y1="17.1271" x2="12.5095" y2="19.9202">
			<stop  offset="0" style="stop-color:#FF0000"/>
			<stop  offset="1" style="stop-color:#990000"/>
		</linearGradient>
		<path style="fill:url(#SVGID_00000054227088445598175300000012089702299937946770_);" d="M6.1,27.6c0,0,3.8-3.1,5.4-3.5
			c0,0-0.9-11.3,0.2-14.3l0.2-0.7C11.9,9.1,5.7,12.3,6.1,27.6z"/>
		
			<linearGradient id="SVGID_00000168082232163635315440000015797744346089600430_" gradientUnits="userSpaceOnUse" x1="28.6859" y1="16.1856" x2="23.1735" y2="21.7637">
			<stop  offset="0" style="stop-color:#FF0000"/>
			<stop  offset="1" style="stop-color:#990000"/>
		</linearGradient>
		<path style="fill:url(#SVGID_00000168082232163635315440000015797744346089600430_);" d="M29.8,27.3c0,0-0.2-15.2-5.9-18.6
			c0,0,1.5,9,0.6,15.1l2.4,1.6L29.8,27.3z"/>
		<path class="st7" d="M4.2,30.6c0.3,0.2,0.6,0.3,1,0.5c0.1,0,0.1-0.1,0.1-0.1c-0.3-0.2-0.7-0.4-1-0.6c-0.2-0.1-0.5-0.3-0.8-0.4
			c0,0,0,0.1,0,0.1C3.7,30.3,4,30.5,4.2,30.6z M32.3,44.4C32.3,44.4,32.3,44.4,32.3,44.4C32.3,44.4,32.3,44.4,32.3,44.4
			C32.3,44.4,32.3,44.4,32.3,44.4C32.3,44.4,32.3,44.4,32.3,44.4c-0.4,0.4-0.6,1-0.5,1.5c0,0.3,0.3,0.6,0.6,0.5c0,0,0.1,0,0-0.1
			C32.4,45.7,32.4,45.1,32.3,44.4C32.4,44.5,32.4,44.5,32.3,44.4C32.4,44.4,32.4,44.4,32.3,44.4z M32.3,46.3c-0.7,0-0.4-1.2-0.1-1.6
			c0,0.2,0,0.5,0,0.7c0,0.2,0,0.5,0,0.7C32.3,46.1,32.3,46.3,32.3,46.3C32.4,46.3,32.4,46.3,32.3,46.3z M33.6,47.5
			c-0.1,0.1-0.1,0.2-0.2,0.3c-0.3,0.3-0.6,0.3-1.1,0.2c-0.6-0.2-1.2-0.5-1.7-0.8c-0.1,0-0.1,0.1-0.1,0.1c0.4,0.2,0.8,0.5,1.2,0.7
			c0,1.6-0.1,3.2-0.2,4.8c-0.2,3-0.5,6-1.1,8.9c-0.2,0.8-0.4,1.5-0.6,2.3c-0.5-0.2-1-0.5-1.5-0.7c-0.6-0.3-1.4-0.7-2.1-0.8
			c-0.1,0-0.1,0.1,0,0.1c0.3,0,0.6,0.2,0.9,0.3c0.4,0.2,0.8,0.3,1.2,0.5c0.5,0.2,1,0.4,1.4,0.7c-0.1,0.2-0.1,0.4-0.2,0.6
			c-0.3,1.1-0.5,2.3-0.3,3.4c0,0,0.1-0.1,0.1-0.1c-0.2-1.2,0.1-2.4,0.4-3.6c0-0.1,0.1-0.2,0.1-0.3c0,0,0,0,0-0.1c0.3-1,0.5-2,0.7-3
			c0.6-2.9,0.8-5.8,1-8.7c0.1-1.4,0.1-2.9,0.1-4.3c0.2,0.1,0.4,0.2,0.6,0.2c0.5,0.1,0.8-0.1,1.1-0.4C33.7,47.7,33.6,47.6,33.6,47.5z
			 M3.7,44.4C3.7,44.4,3.7,44.4,3.7,44.4C3.7,44.4,3.7,44.4,3.7,44.4C3.7,44.4,3.7,44.4,3.7,44.4C3.7,44.4,3.7,44.4,3.7,44.4
			c-0.1,0-0.1,0-0.1,0c0,0,0,0,0,0c0,0.6,0,1.2-0.1,1.9c0,0,0,0.1,0,0.1c0.4,0.1,0.6-0.2,0.6-0.5C4.3,45.4,4.1,44.8,3.7,44.4z
			 M3.7,46.3C3.6,46.3,3.6,46.3,3.7,46.3c0,0,0-0.2,0-0.3c0-0.2,0-0.5,0-0.7c0-0.2,0-0.5,0-0.7C4,45.1,4.4,46.3,3.7,46.3z M9.6,62.5
			c-0.7,0.1-1.4,0.5-2.1,0.8c-0.5,0.2-1,0.5-1.5,0.7c-0.2-0.8-0.4-1.5-0.6-2.3c-0.6-2.9-0.9-5.9-1.1-8.9c-0.1-1.6-0.2-3.2-0.2-4.8
			c0.4-0.2,0.8-0.4,1.2-0.7c0.1,0,0-0.2-0.1-0.1c-0.5,0.3-1.1,0.6-1.7,0.8c-0.4,0.2-0.7,0.2-1.1-0.2c-0.1-0.1-0.2-0.2-0.2-0.3
			c0,0.1,0,0.1,0,0.2c0.3,0.3,0.6,0.6,1.1,0.4C3.6,48.1,3.8,48,4,48c0,1.4,0.1,2.9,0.1,4.3c0.2,2.9,0.4,5.9,1,8.7c0.2,1,0.4,2,0.7,3
			c0,0,0,0,0,0.1c0,0.1,0.1,0.2,0.1,0.3c0.3,1.1,0.6,2.4,0.4,3.6c0,0,0.1,0.1,0.1,0.1c0.2-1.1,0-2.3-0.3-3.4
			c-0.1-0.2-0.1-0.4-0.2-0.6c0.5-0.2,0.9-0.5,1.4-0.7c0.4-0.2,0.8-0.4,1.2-0.5c0.3-0.1,0.6-0.2,0.9-0.3C9.7,62.6,9.7,62.4,9.6,62.5z
			 M30.8,31.1c0.3-0.2,0.6-0.4,1-0.5c0.2-0.1,0.5-0.3,0.8-0.4c0,0,0-0.1,0-0.1c-0.3,0.1-0.6,0.3-0.8,0.4c-0.3,0.2-0.7,0.4-1,0.6
			C30.7,31.1,30.8,31.2,30.8,31.1z"/>
		<g>
			
				<linearGradient id="SVGID_00000168835219633633173580000002279970920217721500_" gradientUnits="userSpaceOnUse" x1="17.9977" y1="69.5394" x2="17.9977" y2="64.7511">
				<stop  offset="0" style="stop-color:#FFFFFF"/>
				<stop  offset="1" style="stop-color:#A3A3A3"/>
			</linearGradient>
			<path style="fill:url(#SVGID_00000168835219633633173580000002279970920217721500_);" d="M12.4,65.1l0.2,5.7
				c1.9,0.4,3.7,0.5,4.7,0.5l-0.1-5.8L12.4,65.1z M18.9,65.5l-0.1,5.8c1,0,2.7-0.1,4.7-0.5l0.2-5.7L18.9,65.5z"/>
			
				<linearGradient id="SVGID_00000173876500087101854560000002970370567535960249_" gradientUnits="userSpaceOnUse" x1="17.8979" y1="14.4414" x2="17.8979" y2="-1.0385">
				<stop  offset="0" style="stop-color:#FFFFFF"/>
				<stop  offset="1" style="stop-color:#A3A3A3"/>
			</linearGradient>
			<path style="fill:url(#SVGID_00000173876500087101854560000002970370567535960249_);" d="M12.4,24.2l2.1,1.4l2.6-1.8v-23
				c-1.1,0-2.1,0.1-3.7,0.4C12.9,4.1,12.4,24.2,12.4,24.2z M22.4,1.2c-1.5-0.3-2.5-0.4-3.7-0.4v23l2.6,1.8l2.1-1.4
				C23.4,24.2,22.9,3.9,22.4,1.2z"/>
			
				<linearGradient id="SVGID_00000052072228207780008390000008298635528178040201_" gradientUnits="userSpaceOnUse" x1="8.0267" y1="31.2987" x2="8.0267" y2="12.4079">
				<stop  offset="0" style="stop-color:#FF0000"/>
				<stop  offset="1" style="stop-color:#FFBFFB"/>
			</linearGradient>
			<path style="fill:url(#SVGID_00000052072228207780008390000008298635528178040201_);" d="M9.6,3.7c0,0-3.9,2.4-4.7,7.4
				c-0.8,5.1-0.1,17.3-0.1,17.3s3-3.9,6.2-4.7c0,0-0.5-12.7,0.9-15.1c0,0-1.2,8-0.1,15.6l-2.1,1.1c0,0-3.8,2.1-5.3,5.4
				c0,0-0.7-8.4-0.3-16.2C4.5,6.8,8.1,4.9,9.6,3.7z"/>
			
				<linearGradient id="SVGID_00000055673028027745505120000012721840103737822089_" gradientUnits="userSpaceOnUse" x1="155.7044" y1="31.2985" x2="155.7044" y2="12.4077" gradientTransform="matrix(-1 0 0 1 183.5801 0)">
				<stop  offset="0" style="stop-color:#FF0000"/>
				<stop  offset="1" style="stop-color:#FFBFFB"/>
			</linearGradient>
			<path style="fill:url(#SVGID_00000055673028027745505120000012721840103737822089_);" d="M26.3,3.7c0,0,3.9,2.4,4.7,7.4
				c0.8,5.1,0.1,17.3,0.1,17.3s-3-3.9-6.2-4.7c0,0,0.5-12.7-0.9-15.1c0,0,1.2,8,0.1,15.6l2.1,1.1c0,0,3.8,2.1,5.3,5.4
				c0,0,0.7-8.4,0.3-16.2C31.4,6.8,27.8,4.9,26.3,3.7z"/>
		</g>
		<path class="st12" d="M10.2,8.3c0,0-3.8,5.2-3.7,16.1l-0.5,1c0,0-1.1-13.6,3-18.5L10.2,8.3z"/>
		<path class="st12" d="M25.7,8.3c0,0,3.8,5.2,3.7,16.1l0.5,1c0,0,1.1-13.6-3-18.5L25.7,8.3z"/>
		<g>
			<polygon class="st13" points="18.7,2.3 18.7,2.9 19.7,4.1 18.7,4.1 18.7,4.5 20.5,4.5 			"/>
			<polygon class="st13" points="16.2,4.1 17.1,3 17.1,2.4 15.4,4.5 17.1,4.5 17.1,4.1 			"/>
			<polygon class="st14" points="19.7,4.1 18.7,2.9 18.7,4.1 			"/>
			<polygon class="st14" points="16.2,4.1 17.1,4.1 17.1,3 			"/>
		</g>
		<g>
			<path class="st15" d="M4.1,7.4c0,0,4.1-4,5.6-5c0,0-1.9,0.2-3.9,1.6C3.8,5.4,4.1,7.4,4.1,7.4z"/>
			<path class="st16" d="M4.1,7.4c0,0,4.1-4,5.6-5c0,0-1.1,0.1-2.5,0.8c0.5-0.1,1-0.1,1-0.1C7,3.8,4.5,6.2,4.5,6.2
				C4.6,5.7,5,4.9,5.3,4.4C3.9,5.7,4.1,7.4,4.1,7.4z"/>
			<path class="st17" d="M4.1,7.4c0,0,4.1-4,5.6-5c0,0-0.2,0-0.5,0.1C8.2,3.2,4.9,6.2,4.1,7C4.1,7.2,4.1,7.4,4.1,7.4z"/>
		</g>
		<g>
			<path class="st15" d="M31.8,7.4c0,0-4.1-4-5.6-5c0,0,1.9,0.2,3.9,1.6C32.1,5.4,31.8,7.4,31.8,7.4z"/>
			<path class="st16" d="M31.8,7.4c0,0-4.1-4-5.6-5c0,0,1.1,0.1,2.5,0.8c-0.5-0.1-1-0.1-1-0.1c1.2,0.7,3.8,3.1,3.8,3.1
				c-0.1-0.5-0.5-1.4-0.8-1.8C32,5.7,31.8,7.4,31.8,7.4z"/>
			<path class="st17" d="M31.8,7.4c0,0-4.1-4-5.6-5c0,0,0.2,0,0.5,0.1c1,0.7,4.4,3.8,5.2,4.5C31.8,7.2,31.8,7.4,31.8,7.4z"/>
		</g>
		<g>
			<path d="M19.1,66c-0.2,0-0.3,0-0.3,0c0,0-0.1,0-0.1-0.1L18,63.5L17.2,66c0,0,0,0.1-0.1,0.1c0,0-0.1,0-0.3,0c-1.4,0-6-0.2-8-3.3
				c0,0-2.5-3.5-3.4-8.6C4.5,49,4.2,43.4,4.5,41.6c0.3-1.8,1-5.3,1.1-5.6l-0.6-3c0,0,0,0,0,0l-0.1-1.2c0,0,0,0,0,0
				c0-0.1,0.4-1.4,1.2-1.4c0.6,0,9.3,1.2,11.9,1.6c3.4-0.5,11.3-1.6,11.9-1.6c0.8,0,1.2,1.4,1.2,1.4c0,0,0,0,0,0L31,33c0,0,0,0,0,0
				l-0.6,3c0.1,0.3,0.8,3.8,1.1,5.6c0.3,1.8-0.1,7.4-0.9,12.6c-0.9,5.1-3.4,8.5-3.4,8.6C25.1,65.8,20.5,66,19.1,66L19.1,66z"/>
			<path class="st0" d="M31.3,41.6c-0.3-1.8-1.1-5.6-1.1-5.6l0.6-3l0.1-1.2c0,0-0.4-1.4-1.1-1.4c-0.6,0-9.3,1.2-11.9,1.6
				C15.3,31.6,6.6,30.4,6,30.4c-0.7,0-1.1,1.4-1.1,1.4L5,33l0.6,3c0,0-0.8,3.7-1.1,5.6C4.3,43.4,4.6,49,5.5,54.1
				c0.9,5.1,3.4,8.5,3.4,8.5c2.3,3.5,8.2,3.3,8.2,3.3l0.9-2.7l0.9,2.7c0,0,5.9,0.3,8.2-3.3c0,0,2.5-3.4,3.4-8.5
				C31.3,49,31.6,43.4,31.3,41.6z"/>
			
				<linearGradient id="SVGID_00000092430266736154516200000004389058405555833523_" gradientUnits="userSpaceOnUse" x1="11.5164" y1="42.3361" x2="2.4428" y2="34.3145">
				<stop  offset="0" style="stop-color:#FF0000"/>
				<stop  offset="1" style="stop-color:#FFBFFB"/>
			</linearGradient>
			<path style="fill:url(#SVGID_00000092430266736154516200000004389058405555833523_);" d="M16.3,43.9c0,6.4,0,11.6-3,11.6
				c-3,0-5.4-5.2-5.4-11.6s2.4-11.6,5.4-11.6C16.3,32.2,16.3,37.4,16.3,43.9z"/>
			
				<linearGradient id="SVGID_00000127746717051073598030000004960282740623877008_" gradientUnits="userSpaceOnUse" x1="23.8624" y1="42.5353" x2="32.6648" y2="31.8937">
				<stop  offset="0" style="stop-color:#FF0000"/>
				<stop  offset="1" style="stop-color:#FFBFFB"/>
			</linearGradient>
			<path style="fill:url(#SVGID_00000127746717051073598030000004960282740623877008_);" d="M19.6,43.9c0,6.4,0,11.6,3,11.6
				c3,0,5.4-5.2,5.4-11.6s-2.4-11.6-5.4-11.6C19.6,32.2,19.6,37.4,19.6,43.9z"/>
			
				<linearGradient id="SVGID_00000131355639916038763120000005290411435113821570_" gradientUnits="userSpaceOnUse" x1="17.9529" y1="47.9594" x2="17.9529" y2="55.9617">
				<stop  offset="0" style="stop-color:#FF0000"/>
				<stop  offset="1" style="stop-color:#A30000"/>
			</linearGradient>
			<path style="fill:url(#SVGID_00000131355639916038763120000005290411435113821570_);" d="M8.9,62.7c2.3,3.5,8.2,3.3,8.2,3.3
				l0.9-2.7l0.9,2.7c0,0,5.9,0.3,8.2-3.3c0,0,2.5-3.4,3.4-8.5c0.4-2.4,0.7-4.8,0.8-7H4.6c0.2,2.1,0.5,4.6,0.8,7
				C6.4,59.2,8.9,62.7,8.9,62.7z"/>
			
				<linearGradient id="SVGID_00000088123995569798316240000001777040408072436865_" gradientUnits="userSpaceOnUse" x1="7.1562" y1="42.5808" x2="7.1562" y2="55.8303">
				<stop  offset="0" style="stop-color:#FF0000"/>
				<stop  offset="1" style="stop-color:#FFBFFB"/>
			</linearGradient>
			<path style="fill:url(#SVGID_00000088123995569798316240000001777040408072436865_);" d="M8.3,59.7c0,0-1.4-4-1.8-8.4
				c-0.4-4.4-0.2-6.8-0.2-6.8L6,37l0.4-0.4c0,0,1.1-0.3,1.2,7C7.7,50.8,6,47.5,8.3,59.7z"/>
			
				<linearGradient id="SVGID_00000083090930274856602500000010226570335790506678_" gradientUnits="userSpaceOnUse" x1="28.8391" y1="42.5808" x2="28.8391" y2="55.8303">
				<stop  offset="0" style="stop-color:#FF0000"/>
				<stop  offset="1" style="stop-color:#FFBFFB"/>
			</linearGradient>
			<path style="fill:url(#SVGID_00000083090930274856602500000010226570335790506678_);" d="M27.7,59.7c0,0,1.4-4,1.8-8.4
				c0.4-4.4,0.2-6.8,0.2-6.8L30,37l-0.4-0.4c0,0-1.1-0.3-1.2,7C28.3,50.8,30,47.5,27.7,59.7z"/>
			
				<linearGradient id="SVGID_00000079456782079809838890000016724145996233504665_" gradientUnits="userSpaceOnUse" x1="7.6714" y1="49.4021" x2="7.6714" y2="63.8986">
				<stop  offset="0" style="stop-color:#FF0000"/>
				<stop  offset="1" style="stop-color:#FFBFFB"/>
			</linearGradient>
			<path style="fill:url(#SVGID_00000079456782079809838890000016724145996233504665_);" d="M5.5,54.1c0.9,5.1,3.4,8.5,3.4,8.5
				c0.4,0.6,0.9,1.1,1.5,1.5C7,60.3,5.5,53.3,5,50.7C5.1,51.8,5.3,53,5.5,54.1z"/>
			
				<linearGradient id="SVGID_00000053537704701941711070000004985819232608173991_" gradientUnits="userSpaceOnUse" x1="28.232" y1="49.4021" x2="28.232" y2="63.8983">
				<stop  offset="0" style="stop-color:#FF0000"/>
				<stop  offset="1" style="stop-color:#FFBFFB"/>
			</linearGradient>
			<path style="fill:url(#SVGID_00000053537704701941711070000004985819232608173991_);" d="M27,62.7c0,0,2.5-3.4,3.4-8.5
				c0.2-1.2,0.4-2.5,0.5-3.7c-0.4,2.4-1.9,9.7-5.4,13.7c0,0,0,0,0,0C26.1,63.8,26.6,63.3,27,62.7z"/>
			
				<linearGradient id="SVGID_00000149348046025590630930000007039998827093836440_" gradientUnits="userSpaceOnUse" x1="17.9868" y1="41.072" x2="17.9868" y2="56.2897">
				<stop  offset="0" style="stop-color:#FFFFFF"/>
				<stop  offset="1" style="stop-color:#A3A3A3"/>
			</linearGradient>
			<path style="fill:url(#SVGID_00000149348046025590630930000007039998827093836440_);" d="M24.2,34.8l-5.3-0.7v31.8
				c0.4,0,2.5,0,4.6-0.7C23.7,61.6,24.8,42.6,24.2,34.8z M12.4,65.2c2.3,0.8,4.6,0.7,4.6,0.7V34.1l-5.3,0.7
				C11.2,42.6,12.2,61.7,12.4,65.2z"/>
			<g>
				<g>
					
						<linearGradient id="SVGID_00000171708507155507923420000016437497492013698983_" gradientUnits="userSpaceOnUse" x1="14.6891" y1="40.5826" x2="14.6891" y2="47.0243">
						<stop  offset="0" style="stop-color:#DDDDDD"/>
						<stop  offset="1" style="stop-color:#A3A3A3"/>
					</linearGradient>
					<path style="fill:url(#SVGID_00000171708507155507923420000016437497492013698983_);" d="M14.6,51.1c0,0-2.6-8.4-1.6-13.5
						c0,0,2.8,0.8,3.3,6c0.5,5.2,0,7.4,0,7.4L14.6,51.1z"/>
					<path class="st27" d="M14.8,51.1c0,0-2.7-10.1-1.7-13.5c0,0,2.8,0.8,3.3,6c0.5,5.2,0,7.4,0,7.4L14.8,51.1z"/>
					<path class="st14" d="M13,37.6c-1,3.4,1.7,13.5,1.7,13.5l0.7,0C13,45.2,12.9,38.8,13,37.6C13,37.6,13,37.6,13,37.6z"/>
					<path class="st14" d="M16.4,43.7c-0.4-4.5-2.6-5.7-3.2-6c0.4,0.4,3,3.6,2.6,13.4l0.6,0C16.4,51.1,16.8,48.9,16.4,43.7z"/>
					<path class="st28" d="M13.8,38.3c0,0,1.6,2,2,6.7c0.4,4.7,0.2,5.7,0.2,5.7l0.3,0c0,0,0.3-4.8-0.3-7.9
						C15.4,39.8,13.8,38.3,13.8,38.3z"/>
					<path class="st29" d="M15.3,41.3c0,0,0.8,2.9,0.8,7.2C16.2,48.5,16.8,44.1,15.3,41.3z"/>
				</g>
				<g>
					
						<linearGradient id="SVGID_00000153664758515457793200000007785487949085107381_" gradientUnits="userSpaceOnUse" x1="387.3065" y1="40.5823" x2="387.3065" y2="47.024" gradientTransform="matrix(-1 0 0 1 408.5137 0)">
						<stop  offset="0" style="stop-color:#DDDDDD"/>
						<stop  offset="1" style="stop-color:#A3A3A3"/>
					</linearGradient>
					<path style="fill:url(#SVGID_00000153664758515457793200000007785487949085107381_);" d="M21.3,51.1c0,0,2.6-8.4,1.6-13.5
						c0,0-2.8,0.8-3.3,6c-0.5,5.2,0,7.4,0,7.4L21.3,51.1z"/>
					<path class="st27" d="M21.1,51.1c0,0,2.7-10.1,1.7-13.5c0,0-2.8,0.8-3.3,6c-0.5,5.2,0,7.4,0,7.4L21.1,51.1z"/>
					<path class="st14" d="M22.9,37.6c1,3.4-1.7,13.5-1.7,13.5l-0.7,0C22.9,45.2,23,38.8,22.9,37.6C22.9,37.6,22.9,37.6,22.9,37.6z"
						/>
					<path class="st14" d="M19.5,43.7c0.4-4.5,2.6-5.7,3.2-6c-0.4,0.4-3,3.6-2.6,13.4l-0.6,0C19.5,51.1,19.1,48.9,19.5,43.7z"/>
					<path class="st28" d="M22.1,38.3c0,0-1.6,2-2,6.7c-0.4,4.7-0.2,5.7-0.2,5.7l-0.3,0c0,0-0.3-4.8,0.3-7.9
						C20.5,39.8,22.1,38.3,22.1,38.3z"/>
					<path class="st29" d="M20.6,41.3c0,0-0.8,2.9-0.8,7.2C19.7,48.5,19.1,44.1,20.6,41.3z"/>
				</g>
			</g>
		</g>
		<g>
			<g>
				<path class="st27" d="M13.9,5.3l0.8-1c-0.5,0.1-1,0.2-1.4,0.4l0,1.2L13.9,5.3z"/>
				<path class="st4" d="M9.4,6.5C6.2,9.8,6.5,17.7,6.5,17.7c0.6-5.1,3.4-9,3.4-9l1.3-1.3l2-1.5l0-1.2C10.2,5.5,9.4,6.5,9.4,6.5z"/>
			</g>
			
				<linearGradient id="SVGID_00000007405721378278322160000000455815893944827009_" gradientUnits="userSpaceOnUse" x1="10.008" y1="5.4945" x2="6.5051" y2="16.1782">
				<stop  offset="0" style="stop-color:#C70000"/>
				<stop  offset="1" style="stop-color:#FF8CA3"/>
			</linearGradient>
			<path style="fill:url(#SVGID_00000007405721378278322160000000455815893944827009_);" d="M7,14.1c0,0,0.4-5,2.2-7.2
				c0.4-0.4,0.7-0.8,1.1-1.1C9.6,6.2,9.4,6.5,9.4,6.5C6.2,9.8,6.5,17.7,6.5,17.7c0.6-5.1,3.4-9,3.4-9l0.2-0.2L10,8.1
				C10,8.1,8.1,10.2,7,14.1z"/>
			<g>
				<path d="M9.8,8.7c0,0,2.4-0.6,2.9-1.3c0.5-0.8,1.2-2.1,1.2-2.1s-2.2,0.2-3.1,1C9.9,7.1,9.8,8.7,9.8,8.7z"/>
				<path class="st32" d="M11,6.6c0.7-0.6,2-0.9,2.7-1c0.1-0.2,0.2-0.3,0.2-0.3s-2.2,0.2-3.1,1C9.9,7.1,9.8,8.7,9.8,8.7
					s0.1,0,0.3-0.1C10.2,8.1,10.4,7.1,11,6.6z"/>
			</g>
		</g>
		<g>
			<g>
				<path class="st27" d="M22,5.3l-0.8-1c0.5,0.1,1,0.2,1.4,0.4l0,1.2L22,5.3z"/>
				<path class="st4" d="M26.5,6.5c3.2,3.3,2.9,11.2,2.9,11.2c-0.6-5.1-3.4-9-3.4-9l-1.3-1.3l-2-1.5l0-1.2
					C25.7,5.5,26.5,6.5,26.5,6.5z"/>
			</g>
			
				<linearGradient id="SVGID_00000083773429195464890600000017222755942134410155_" gradientUnits="userSpaceOnUse" x1="178.3189" y1="5.4945" x2="174.816" y2="16.1782" gradientTransform="matrix(-1 0 0 1 204.1855 0)">
				<stop  offset="0" style="stop-color:#C70000"/>
				<stop  offset="1" style="stop-color:#FF8CA3"/>
			</linearGradient>
			<path style="fill:url(#SVGID_00000083773429195464890600000017222755942134410155_);" d="M28.9,14.1c0,0-0.4-5-2.2-7.2
				c-0.4-0.4-0.7-0.8-1.1-1.1c0.7,0.4,0.9,0.7,0.9,0.7c3.2,3.3,2.9,11.2,2.9,11.2c-0.6-5.1-3.4-9-3.4-9l-0.2-0.2l0.1-0.3
				C25.9,8.1,27.8,10.2,28.9,14.1z"/>
			<g>
				<path d="M26,8.7c0,0-2.4-0.6-2.9-1.3C22.7,6.6,22,5.3,22,5.3s2.2,0.2,3.1,1C26,7.1,26,8.7,26,8.7z"/>
				<path class="st32" d="M24.9,6.6c-0.7-0.6-2-0.9-2.7-1C22.1,5.4,22,5.3,22,5.3s2.2,0.2,3.1,1C26,7.1,26,8.7,26,8.7
					s-0.1,0-0.3-0.1C25.7,8.1,25.5,7.1,24.9,6.6z"/>
			</g>
		</g>
		<g>
			<path d="M4.3,32.1C4.3,32.1,4.3,32,4.3,32.1C4.2,32,4.2,32,4.3,32.1c-0.1,0-0.1,0-0.1,0c0,0-0.6,0.5-1,0.9
				c-0.2-0.1-0.3-0.1-0.5-0.1c0,0,0,0,0,0c-0.5,0-1.1,0.3-1.5,0.9c-0.5,0.7-0.8,1.6-0.6,2.3c0,0,0,0.1,0.1,0.1c0,0,0,0,0,0
				c0,0,0,0,0,0c0,0,0,0,0.1,0c0,0,0,0,0,0c0,0,0,0,0,0c0.1,0,0.2-0.1,0.3-0.1c0.8-0.3,2.3-0.9,2.7-1.3c0,0,0,0,0,0c0,0,0,0,0-0.1
				l0.7,0c0,0,0.1,0,0.1-0.1C4.5,34.3,4.8,32.9,4.3,32.1z"/>
			<g>
				<g>
					<path d="M3.6,34.3l0.8,0c0,0,0.2-1.4-0.2-2.2c0,0-0.8,0.6-1.1,1.1C2.8,33.7,3.6,34.3,3.6,34.3z"/>
					<path class="st32" d="M3.4,33l0.2,0.2l0.7-0.3c0,0-0.1-0.4-0.2-0.5C4.1,32.4,3.8,32.6,3.4,33z"/>
				</g>
				<g>
					<path class="st0" d="M2.6,32.9c-1.3,0-2.3,1.8-2,3c0,0,0.1,0,0.1-0.1c0.5-0.3,2-1.1,2.7-1.3c0.1,0,0.1,0,0.2,0
						C3.6,34.5,3.9,32.9,2.6,32.9z"/>
					<path d="M3.5,34.5c-0.8,0.2-2.3,1.1-2.7,1.3c0,0,0,0,0,0c0.1,0,0.2-0.1,0.3-0.1c0.8-0.3,2.3-0.9,2.6-1.3
						C3.6,34.5,3.5,34.5,3.5,34.5z"/>
					<g>
						<path class="st34" d="M2.6,33.4C2.6,33.4,2.6,33.4,2.6,33.4c0.2,0,0.4,0,0.5,0.1c0-0.1,0-0.2,0-0.3c-0.1-0.1-0.3-0.2-0.5-0.2
							c0,0,0,0,0,0c-0.5,0-0.9,0.3-1.3,0.8c0,0,0,0,0,0c0.1,0,0.1,0,0.2,0C1.9,33.6,2.2,33.4,2.6,33.4z"/>
						<path class="st35" d="M3.2,33.3C3.2,33.3,3.2,33.3,3.2,33.3c-0.1,0-0.1,0.1-0.1,0.2c0,0,0.1,0.1,0.1,0.1
							c0.2,0.2,0.2,0.5,0.2,0.7c0,0,0,0,0,0C3.5,34.1,3.5,33.6,3.2,33.3z M0.7,35.6c0-0.5,0.2-1,0.6-1.5c0.1-0.1,0.1-0.2,0.2-0.3
							c-0.1,0-0.2,0-0.2,0C0.9,34.4,0.7,35.1,0.7,35.6z"/>
					</g>
				</g>
			</g>
		</g>
		<g>
			<path d="M31.6,32.1C31.6,32.1,31.6,32,31.6,32.1C31.7,32,31.7,32,31.6,32.1c0.1,0,0.1,0,0.1,0c0,0,0.6,0.5,1,0.9
				c0.2-0.1,0.3-0.1,0.5-0.1c0,0,0,0,0,0c0.5,0,1.1,0.3,1.5,0.9c0.5,0.7,0.8,1.6,0.6,2.3c0,0,0,0.1-0.1,0.1c0,0,0,0,0,0c0,0,0,0,0,0
				c0,0,0,0-0.1,0c0,0,0,0,0,0c0,0,0,0,0,0c-0.1,0-0.2-0.1-0.3-0.1c-0.8-0.3-2.3-0.9-2.7-1.3c0,0,0,0,0,0c0,0,0,0,0-0.1l-0.7,0
				c0,0-0.1,0-0.1-0.1C31.4,34.3,31.1,32.9,31.6,32.1z"/>
			<g>
				<g>
					<path d="M32.3,34.3l-0.8,0c0,0-0.2-1.4,0.2-2.2c0,0,0.8,0.6,1.1,1.1C33.1,33.7,32.3,34.3,32.3,34.3z"/>
					<path class="st32" d="M32.5,33l-0.2,0.2l-0.7-0.3c0,0,0.1-0.4,0.2-0.5C31.8,32.4,32.1,32.6,32.5,33z"/>
				</g>
				<g>
					<path class="st0" d="M33.3,32.9c1.3,0,2.3,1.8,2,3c0,0-0.1,0-0.1-0.1c-0.5-0.3-2-1.1-2.7-1.3c-0.1,0-0.1,0-0.2,0
						C32.3,34.5,32,32.9,33.3,32.9z"/>
					<path d="M32.4,34.5c0.8,0.2,2.3,1.1,2.7,1.3c0,0,0,0,0,0c-0.1,0-0.2-0.1-0.3-0.1c-0.8-0.3-2.3-0.9-2.6-1.3
						C32.3,34.5,32.4,34.5,32.4,34.5z"/>
					<g>
						<path class="st34" d="M33.3,33.4C33.3,33.4,33.3,33.4,33.3,33.4c-0.2,0-0.4,0-0.5,0.1c0-0.1,0-0.2,0-0.3
							c0.1-0.1,0.3-0.2,0.5-0.2c0,0,0,0,0,0c0.5,0,0.9,0.3,1.3,0.8c0,0,0,0,0,0c-0.1,0-0.1,0-0.2,0C34,33.6,33.7,33.4,33.3,33.4z"/>
						<path class="st35" d="M32.4,34.3C32.4,34.3,32.4,34.3,32.4,34.3c0-0.2,0.1-0.5,0.2-0.7c0,0,0.1-0.1,0.1-0.1c0-0.1,0-0.2,0-0.3
							c0,0,0,0-0.1,0.1C32.5,33.6,32.4,34.1,32.4,34.3z M34.6,33.9c-0.1,0-0.1,0-0.2,0c0.1,0.1,0.2,0.2,0.2,0.3
							c0.3,0.4,0.5,1,0.6,1.5C35.2,35.1,35,34.4,34.6,33.9z"/>
					</g>
				</g>
			</g>
		</g>
		<g>
			<g>
				<path d="M27.6,51.1c-0.2,0-0.3,0-0.5,0c-0.4,0-0.8,0-1.3,0c-0.6,0-1.3,0-1.9,0c-0.8,0-1.5,0-2.3,0c-0.9,0-1.7,0-2.6,0
					c-0.9,0-1.8,0-2.7,0c-0.8,0-1.7,0-2.5,0c-0.8,0-1.5,0-2.3,0c-0.6,0-1.2,0-1.8,0c-0.4,0-0.8,0-1.1,0c-0.1,0-0.2,0-0.3,0
					c0,0,0,0-0.1,0c-0.1,0-0.1,0.1-0.1,0.1c0,0.4,0,0.8,0,1.2c0,0.8,0.1,1.6,0.1,2.4c0.1,1,0.1,1.9,0.2,2.9c0.1,0.9,0.2,1.8,0.3,2.7
					C9,61,9.1,61.7,9.4,62.3c0.1,0.4,0.4,0.7,0.7,1c0.5,0.5,1.1,0.9,1.7,1.2c1.4,0.8,3,1.3,4.5,1.5c1.5,0.2,3.1,0.1,4.6-0.2
					c0.8-0.2,1.5-0.4,2.3-0.7c0.7-0.3,1.4-0.7,2-1.1c0.5-0.3,0.9-0.8,1.3-1.3c0.1-0.2,0.2-0.4,0.3-0.7c0.2-0.7,0.3-1.4,0.4-2.1
					c0.1-0.9,0.2-1.9,0.3-2.8c0.1-0.9,0.1-1.9,0.2-2.8c0-0.7,0.1-1.4,0.1-2.2c0-0.2,0-0.4,0-0.6C27.7,51.3,27.7,51.1,27.6,51.1z"/>
				<path d="M6.9,37.5c-0.1-0.5-0.2-0.9-0.4-1.4c-0.2-0.7-0.5-1.3-0.7-1.9c-0.2-0.5-0.4-1-0.6-1.6c-0.1-0.2-0.1-0.3-0.1-0.5
					C5,32,5,31.9,5,31.8c0-0.1,0-0.1,0-0.2c-0.1,0-0.1,0-0.1,0.1c0,0.5-0.1,1-0.1,1.5c-0.1,1.3-0.1,2.5-0.2,3.8
					c-0.1,1.7-0.1,3.3-0.1,5c0,1.6,0.2,3.3,0.5,4.9c0.2,1.2,0.6,2.5,1,3.6c0.1,0.2,0.2,0.5,0.3,0.7c0,0,0,0.1,0.1,0.1
					c0.1,0,0.1-0.1,0.1-0.2c0-0.1,0-0.2,0-0.4c0-0.6,0-1.1,0.1-1.7c0-0.6,0.1-1.2,0.2-1.8c0.1-0.3,0.1-0.6,0.2-0.9
					c0-0.2,0-0.4,0.1-0.6c0-0.5,0.1-1,0.1-1.5c0.1-1.2,0.1-2.4,0.1-3.6C7.2,39.6,7.1,38.5,6.9,37.5z"/>
				<path d="M31.4,36.1c0-1.1-0.1-2.3-0.2-3.4c0-0.3,0-0.7-0.1-1c0-0.1-0.1-0.1-0.1-0.1c-0.1,0,0,0.1,0,0.2c0,0.1,0,0.2-0.1,0.3
					c0,0.2-0.1,0.3-0.1,0.5c-0.1,0.4-0.2,0.7-0.4,1c-0.3,0.8-0.6,1.5-0.9,2.3c-0.2,0.5-0.4,1.1-0.5,1.7c-0.2,1.1-0.2,2.2-0.3,3.3
					c0,1.2,0,2.4,0.1,3.6c0,0.5,0.1,1,0.1,1.4c0,0.3,0.1,0.6,0.1,1c0,0.2,0.1,0.5,0.2,0.7c0.1,0.7,0.2,1.4,0.2,2c0,0.4,0,0.8,0,1.2
					c0,0.2,0,0.4,0,0.5c0,0.1,0.1,0.1,0.2,0c0,0,0,0,0,0c0-0.1,0.1-0.2,0.1-0.2c0.2-0.3,0.3-0.7,0.4-1c0.5-1.3,0.8-2.7,1-4.1
					c0.2-1.6,0.3-3.3,0.3-4.9C31.5,39.3,31.4,37.7,31.4,36.1z"/>
				<path d="M28.8,36.4c0.5-0.9,0.9-1.8,1.3-2.8c0.3-0.7,0.5-1.5,0.6-2.2c0-0.2,0.1-0.3,0.1-0.5c0-0.1,0-0.3-0.1-0.4
					c-0.1-0.3-0.3-0.6-0.5-0.9c-0.4-0.6-0.8-1.2-1.2-1.8c-0.4-0.6-0.9-1.1-1.5-1.6c-1.1-1-2.5-1.7-3.9-2.1c-1.4-0.4-2.9-0.6-4.4-0.6
					c-1.4,0-2.9,0-4.3,0.1c-1.5,0.2-3,0.5-4.4,1.2c-1.3,0.7-2.4,1.6-3.4,2.7c-0.2,0.3-0.5,0.6-0.7,0.9c-0.2,0.3-0.4,0.6-0.6,1
					c-0.2,0.3-0.4,0.6-0.5,0.9c-0.1,0.2-0.2,0.5-0.2,0.8c0.2,1.4,0.7,2.8,1.3,4.1c0.2,0.4,0.4,0.8,0.6,1.1c0,0,0.1,0.1,0.1,0.2
					c0.1,0.1,0.1,0,0.2-0.1c0.1-0.1,0.2-0.1,0.3-0.2c0.6-0.3,1.2-0.4,1.8-0.6c0.8-0.2,1.5-0.3,2.3-0.4c0.8-0.1,1.5-0.2,2.3-0.2
					c0.6,0,1.2-0.1,1.8-0.1c0.9,0,1.8,0,2.7,0c0.8,0,1.6,0,2.4,0.1c0.6,0,1.2,0.1,1.9,0.1c0.8,0.1,1.7,0.2,2.5,0.3
					c0.8,0.1,1.7,0.3,2.4,0.6c0.2,0.1,0.4,0.1,0.6,0.2c0.1,0,0.2,0.1,0.2,0.1C28.6,36.4,28.7,36.5,28.8,36.4z"/>
			</g>
			<g>
				
					<linearGradient id="SVGID_00000108286547299566845960000011673894169809699261_" gradientUnits="userSpaceOnUse" x1="17.9644" y1="63.3955" x2="17.9644" y2="41.4435">
					<stop  offset="0" style="stop-color:#000000"/>
					<stop  offset="1" style="stop-color:#707070"/>
				</linearGradient>
				<path style="fill:url(#SVGID_00000108286547299566845960000011673894169809699261_);" d="M9.6,62.5c0.9,1.6,4.5,3.5,8.4,3.5l0,0
					c0,0,0,0,0,0c0,0,0,0,0,0l0,0c3.8,0,7.5-1.8,8.4-3.5c0.9-1.6,1.2-11.3,1.2-11.3H8.4C8.4,51.2,8.6,60.8,9.6,62.5z"/>
				
					<linearGradient id="SVGID_00000019654572365588530140000003274075388170244517_" gradientUnits="userSpaceOnUse" x1="17.9919" y1="61.761" x2="17.9919" y2="38.6574">
					<stop  offset="0" style="stop-color:#262626"/>
					<stop  offset="1" style="stop-color:#9A9A9A"/>
				</linearGradient>
				<path style="fill:url(#SVGID_00000019654572365588530140000003274075388170244517_);" d="M25.5,54.1h-4.4c0,0-1,1.5-3.1,1.5
					c-2.2,0-3.1-1.5-3.1-1.5h-4.4c-0.4,6.9,1.5,9.6,1.5,9.6l1.5-0.8l4.6-0.4l4.6,0.4l1.5,0.8C24.1,63.7,25.9,61,25.5,54.1z"/>
				
					<linearGradient id="SVGID_00000153665451210899816540000010156510406833303992_" gradientUnits="userSpaceOnUse" x1="17.9976" y1="63.3955" x2="17.9976" y2="41.4441">
					<stop  offset="0" style="stop-color:#262626"/>
					<stop  offset="1" style="stop-color:#9A9A9A"/>
				</linearGradient>
				<path style="fill:url(#SVGID_00000153665451210899816540000010156510406833303992_);" d="M24.3,56.2c-1.2-0.2-4.1,0-6.3,0
					c-2.2,0-5.1-0.3-6.3,0c-1,0.2-1,1.6-1,1.6c0,3.6,1.3,5.9,1.3,5.9c2,1.7,6,1.5,6,1.5c0,0,4,0.2,6-1.5c0,0,1.3-2.3,1.3-5.9
					C25.3,57.8,25.3,56.4,24.3,56.2z"/>
				<path d="M15.1,52.2c0.5,1.2,1.2,2.4,2.6,2.6c0.6,0.1,1.2,0,1.7-0.3c0.6-0.3,0.9-0.9,1.2-1.5c0.3-0.6,0.4-1.3,1-1.7
					c0.1,0,0.1-0.1,0.2-0.1h-0.3c-0.2,0.1-0.3,0.2-0.4,0.4c-0.2,0.2-0.3,0.5-0.4,0.8c-0.1,0.4-0.3,0.7-0.5,1c-0.4,0.7-1,1.2-1.9,1.3
					c-0.7,0.1-1.4-0.1-1.9-0.5c-0.6-0.5-0.9-1.2-1.2-1.9c-0.2-0.5-0.4-0.8-0.8-1.1h-0.3c0.1,0,0.2,0.1,0.2,0.1
					C14.8,51.5,14.9,51.9,15.1,52.2z"/>
				<g>
					<path d="M4.9,31.7c0,0-0.4,4.6-0.4,9.8c0,6.6,1.9,9.8,1.9,9.8s0-2.9,0.3-4.2c0.4-1.3,0.7-7.9,0-10.1C6,34.7,4.9,32.4,4.9,31.7z
						"/>
					
						<linearGradient id="SVGID_00000010294814699680098460000012552070474855168929_" gradientUnits="userSpaceOnUse" x1="5.8416" y1="44.1278" x2="5.8416" y2="29.0749">
						<stop  offset="0" style="stop-color:#000000"/>
						<stop  offset="1" style="stop-color:#808080"/>
					</linearGradient>
					<path style="fill:url(#SVGID_00000010294814699680098460000012552070474855168929_);" d="M6.1,49.4c-0.5-1.6-1.1-4.2-1.1-8
						c0-3,0.1-5.8,0.2-7.6c0.1,0.2,0.1,0.3,0.2,0.5c0.3,0.8,0.7,1.7,1,2.7c0.7,2.2,0.4,8.7,0,9.9C6.2,47.6,6.1,48.5,6.1,49.4
						L6.1,49.4z"/>
					
						<linearGradient id="SVGID_00000143612293602242788070000001267671591026175363_" gradientUnits="userSpaceOnUse" x1="5.5038" y1="46.3773" x2="5.5038" y2="31.4749">
						<stop  offset="0" style="stop-color:#202020"/>
						<stop  offset="1" style="stop-color:#808080"/>
					</linearGradient>
					<path style="fill:url(#SVGID_00000143612293602242788070000001267671591026175363_);" d="M5.4,33.3c-0.3-0.7-0.5-1.3-0.5-1.6
						c0,0-0.4,4.6-0.4,9.8c0,6.6,1.9,9.8,1.9,9.8s0-0.7,0-1.6C4.2,44.8,5.2,35.1,5.4,33.3z"/>
				</g>
				<g>
					<path d="M29.8,29.2c-0.9-1.5-2.1-2.8-3.5-3.7c-2.6-1.6-5.3-1.8-8.3-1.8v0c0,0,0,0,0,0c0,0,0,0,0,0v0c-3,0-5.8,0.2-8.3,1.8
						c-1.4,0.9-2.6,2.3-3.5,3.7c-0.2,0.4-0.9,1.4-0.9,1.9c0.4,2.6,2,5.3,2,5.3S9,34.8,18,34.8c8.9,0,10.8,1.6,10.8,1.6
						s1.6-2.8,2-5.3C30.8,30.5,30.1,29.5,29.8,29.2z"/>
					
						<linearGradient id="SVGID_00000041295036623206609560000004944918178372230573_" gradientUnits="userSpaceOnUse" x1="17.9754" y1="29.4621" x2="17.9754" y2="23.4712">
						<stop  offset="0" style="stop-color:#202020"/>
						<stop  offset="1" style="stop-color:#808080"/>
					</linearGradient>
					<path style="fill:url(#SVGID_00000041295036623206609560000004944918178372230573_);" d="M30.7,31c0.1-0.5-0.6-1.5-0.9-1.9
						c-0.9-1.5-2.1-2.8-3.5-3.7c-2.6-1.6-5.3-1.8-8.3-1.8v0c0,0,0,0,0,0c0,0,0,0,0,0v0c-3,0-5.8,0.2-8.3,1.8
						c-1.4,0.9-2.6,2.3-3.5,3.7c-0.2,0.4-0.9,1.4-0.9,1.9c0,0.1,0,0.3,0.1,0.4c0.3-0.7,3-6.9,12.6-6.9c9.5,0,12.3,6.1,12.6,6.9
						C30.6,31.3,30.7,31.2,30.7,31z"/>
				</g>
				<g>
					<path d="M31.4,41.4c0-5.1-0.4-9.8-0.4-9.8c0,0.7-1.1,3-1.8,5.2c-0.7,2.2-0.4,8.9,0,10.1c0.4,1.3,0.3,4.2,0.3,4.2
						S31.4,48,31.4,41.4z"/>
					
						<linearGradient id="SVGID_00000119829603203848474000000012641727159740016789_" gradientUnits="userSpaceOnUse" x1="30.1094" y1="44.1278" x2="30.1094" y2="29.075">
						<stop  offset="0" style="stop-color:#000000"/>
						<stop  offset="1" style="stop-color:#808080"/>
					</linearGradient>
					<path style="fill:url(#SVGID_00000119829603203848474000000012641727159740016789_);" d="M29.9,49.4c0-0.9-0.1-1.8-0.3-2.5
						c-0.3-1.2-0.6-7.8,0-9.9c0.3-0.9,0.7-1.9,1-2.7c0.1-0.2,0.1-0.4,0.2-0.5c0.1,1.8,0.2,4.7,0.2,7.6C31,45.2,30.4,47.8,29.9,49.4
						L29.9,49.4z"/>
					
						<linearGradient id="SVGID_00000146486945980510122070000004952032846088809634_" gradientUnits="userSpaceOnUse" x1="30.4476" y1="46.3773" x2="30.4476" y2="31.4749">
						<stop  offset="0" style="stop-color:#202020"/>
						<stop  offset="1" style="stop-color:#808080"/>
					</linearGradient>
					<path style="fill:url(#SVGID_00000146486945980510122070000004952032846088809634_);" d="M31.4,41.4c0-5.1-0.4-9.8-0.4-9.8
						c0,0.3-0.2,0.9-0.4,1.6c0.2,1.7,1.2,11.6-1.1,16.4c0,0.9,0,1.6,0,1.6S31.4,48,31.4,41.4z"/>
				</g>
				<g>
					<path class="st44" d="M5.6,46.8c0.4-0.2,0.9-0.3,1.3-0.4c0-0.1,0-0.3,0-0.4c-0.5,0.1-1,0.3-1.4,0.5C5.5,46.5,5.5,46.6,5.6,46.8
						z"/>
					<path class="st45" d="M5.6,46.8c0-0.1-0.1-0.3-0.1-0.4c-0.2,0.1-0.3,0.1-0.5,0.2c0,0.1,0,0.3,0.1,0.4
						C5.2,46.9,5.4,46.8,5.6,46.8z"/>
				</g>
				<g>
					<path class="st44" d="M30.4,46.8c0-0.1,0.1-0.3,0.1-0.4c-0.5-0.2-1-0.3-1.4-0.5c0,0.2,0,0.3,0.1,0.4
						C29.5,46.5,30,46.7,30.4,46.8z"/>
					<path class="st45" d="M30.4,46.8c0.2,0.1,0.3,0.1,0.5,0.2c0-0.1,0.1-0.3,0.1-0.4c-0.2-0.1-0.3-0.1-0.5-0.2
						C30.5,46.6,30.4,46.7,30.4,46.8z"/>
				</g>
				
					<linearGradient id="SVGID_00000103986401837637968510000007162962908351003531_" gradientUnits="userSpaceOnUse" x1="18.0152" y1="31.3374" x2="18.0152" y2="22.1878">
					<stop  offset="0" style="stop-color:#000000"/>
					<stop  offset="1" style="stop-color:#808080"/>
				</linearGradient>
				<path style="fill:url(#SVGID_00000103986401837637968510000007162962908351003531_);" d="M28.9,36.1c0.1-0.9,0.3-4.4-1-7
					c0,0-2.8-3.2-9.8-3.2l0,0.1l0-0.1c-7,0-9.8,3.2-9.8,3.2c-1.5,2.9-1.1,6.8-1,7.2c0,0,0,0,0,0l0,0c0.2-0.1,2.2-1.6,10.7-1.6
					c8.9,0,10.7,1.5,10.8,1.6l0,0C28.7,36.4,28.8,36.3,28.9,36.1z"/>
			</g>
		</g>
	</g>
</g>
</svg>
