<svg id="Capa_1" data-name="Capa 1" xmlns="http://www.w3.org/2000/svg" xmlns:xlink="http://www.w3.org/1999/xlink" viewBox="0 0 350 277"><defs><style>.cls-1{fill:none;}.cls-2{fill:#ffaf3e;}.cls-3{fill:#001019;}.cls-4{clip-path:url(#clip-path);}.cls-5{fill:#fff;}.cls-6{fill:#e00a19;}</style><clipPath id="clip-path"><path class="cls-1" d="M320.93,182.13a63.23,63.23,0,0,0-13.26-8.88c-4.78-2.47-9.84-4.59-14.89-6.71s-10.1-4.25-14.88-6.72a63.23,63.23,0,0,1-13.26-8.88,42.5,42.5,0,0,1-9.94-13l2.39-3.17-3-2.29L172.8,240.29,91.54,132.45l-3,2.29,2.39,3.17a42.5,42.5,0,0,1-9.94,13,63.23,63.23,0,0,1-13.26,8.88c-4.78,2.47-9.83,4.6-14.88,6.72s-10.1,4.24-14.89,6.71a63.23,63.23,0,0,0-13.26,8.88,42.49,42.49,0,0,0-10,13.17L24.8,208.76l10.14,13.45,10.15,13.46,10.14,13.45a42.56,42.56,0,0,1,10-13.18,63.05,63.05,0,0,1,13.26-8.87c4.78-2.48,9.83-4.6,14.88-6.72s10.1-4.24,14.88-6.72a63,63,0,0,0,13.27-8.87,42.56,42.56,0,0,0,9.92-13l39,51.71-7.77,10.31,3.38,1.82,6.77-9,7.13,9.47,3.43-1.76-8.18-10.86,39-51.71a42.56,42.56,0,0,0,9.92,13,63,63,0,0,0,13.27,8.87c4.78,2.48,9.83,4.6,14.88,6.72s10.1,4.24,14.88,6.72a63.38,63.38,0,0,1,13.27,8.87,42.69,42.69,0,0,1,10,13.18l10.14-13.45,10.15-13.46,10.14-13.45,10.14-13.46A42.49,42.49,0,0,0,320.93,182.13Z"/></clipPath></defs><polygon class="cls-2" points="86.43 220.26 65.03 69.04 280.57 68.16 261.12 221.68 173.23 266.94 86.43 220.26"/><polygon class="cls-3" points="92.5 216.03 72.62 75.61 273.08 74.79 255.01 217.41 173.29 259.49 92.5 216.03"/><g class="cls-4"><path class="cls-3" d="M91.11,164.4a42.53,42.53,0,0,0,10-13.18L91,137.77a42.55,42.55,0,0,1-10,13.17Z"/><path class="cls-3" d="M63,180c5.05-2.12,10.11-4.24,14.89-6.72q-5.09-6.72-10.15-13.45c-4.78,2.47-9.83,4.6-14.88,6.72Z"/><path class="cls-3" d="M34.82,195.58a63.31,63.31,0,0,1,13.26-8.87L37.93,173.25a63.23,63.23,0,0,0-13.26,8.88Q29.74,188.85,34.82,195.58Z"/><path class="cls-3" d="M88,186.72a62.8,62.8,0,0,0,13.26-8.87L91.11,164.4a63.57,63.57,0,0,1-13.26,8.87Z"/><path class="cls-3" d="M58.22,200.16c4.78-2.48,9.83-4.6,14.88-6.72L63,180c-5.05,2.12-10.1,4.24-14.88,6.72Z"/><path class="cls-3" d="M34.94,222.21A42.55,42.55,0,0,1,45,209L34.82,195.58a42.71,42.71,0,0,0-10,13.18Z"/><path class="cls-3" d="M111.39,191.31a42.71,42.71,0,0,0,10-13.18l-10.14-13.46a42.6,42.6,0,0,1-10,13.18Z"/><path class="cls-3" d="M83.25,206.9c5-2.12,10.1-4.24,14.88-6.72L88,186.72c-4.78,2.48-9.83,4.6-14.89,6.72Z"/><path class="cls-3" d="M55.1,222.49a63.57,63.57,0,0,1,13.26-8.87L58.22,200.16A63.23,63.23,0,0,0,45,209Z"/><path class="cls-3" d="M108.27,213.63a63,63,0,0,0,13.27-8.87l-10.15-13.45a63.57,63.57,0,0,1-13.26,8.87Z"/><path class="cls-3" d="M78.51,227.07c4.78-2.48,9.83-4.6,14.88-6.72L83.25,206.9c-5,2.12-10.11,4.24-14.89,6.72Q73.43,220.34,78.51,227.07Z"/><path class="cls-5" d="M77.85,173.27a63.57,63.57,0,0,0,13.26-8.87L81,150.94a63.23,63.23,0,0,1-13.26,8.88Q72.77,166.54,77.85,173.27Z"/><path class="cls-5" d="M48.08,186.71c4.78-2.48,9.83-4.6,14.88-6.72L52.82,166.54c-5,2.12-10.1,4.24-14.89,6.71Z"/><path class="cls-5" d="M24.8,208.76a42.71,42.71,0,0,1,10-13.18q-5.09-6.72-10.15-13.45a42.49,42.49,0,0,0-10,13.17Z"/><path class="cls-5" d="M101.25,177.85a42.6,42.6,0,0,0,10-13.18q-5.07-6.72-10.15-13.45a42.53,42.53,0,0,1-10,13.18Z"/><path class="cls-5" d="M73.1,193.44c5.06-2.12,10.11-4.24,14.89-6.72L77.85,173.27C73.07,175.75,68,177.87,63,180Z"/><path class="cls-5" d="M45,209a63.23,63.23,0,0,1,13.26-8.88L48.08,186.71a63.31,63.31,0,0,0-13.26,8.87Z"/><path class="cls-5" d="M98.13,200.18a63.57,63.57,0,0,0,13.26-8.87l-10.14-13.46A62.8,62.8,0,0,1,88,186.72Z"/><path class="cls-5" d="M68.36,213.62c4.78-2.48,9.84-4.6,14.89-6.72L73.1,193.44c-5,2.12-10.1,4.24-14.88,6.72Z"/><path class="cls-5" d="M45.09,235.67a42.53,42.53,0,0,1,10-13.18L45,209a42.55,42.55,0,0,0-10,13.17Z"/><path class="cls-5" d="M121.54,204.76a42.42,42.42,0,0,0,10-13.18l-10.14-13.45a42.71,42.71,0,0,1-10,13.18Z"/><path class="cls-5" d="M93.39,220.35c5-2.12,10.1-4.24,14.88-6.72L98.13,200.18c-4.78,2.48-9.83,4.6-14.88,6.72Z"/><path class="cls-5" d="M65.25,235.94a63.05,63.05,0,0,1,13.26-8.87q-5.08-6.72-10.15-13.45a63.57,63.57,0,0,0-13.26,8.87Q60.17,229.22,65.25,235.94Z"/><path class="cls-3" d="M55.23,249.12a42.56,42.56,0,0,1,10-13.18q-5.09-6.72-10.15-13.45a42.53,42.53,0,0,0-10,13.18Z"/><rect class="cls-2" x="141.75" y="115.65" width="3.8" height="178.23" transform="translate(-94.3 127.68) rotate(-37)"/><path class="cls-3" d="M254.49,164.4a42.53,42.53,0,0,1-10-13.18l10.14-13.45a42.55,42.55,0,0,0,10,13.17Z"/><path class="cls-3" d="M282.64,180c-5.05-2.12-10.11-4.24-14.89-6.72q5.08-6.72,10.15-13.45c4.78,2.47,9.83,4.6,14.88,6.72Z"/><path class="cls-3" d="M310.79,195.58a63.64,63.64,0,0,0-13.27-8.87l10.15-13.46a63.23,63.23,0,0,1,13.26,8.88Z"/><path class="cls-3" d="M257.61,186.72a62.8,62.8,0,0,1-13.26-8.87l10.14-13.45a63.57,63.57,0,0,0,13.26,8.87Z"/><path class="cls-3" d="M287.38,200.16c-4.78-2.48-9.83-4.6-14.88-6.72L282.64,180c5.05,2.12,10.1,4.24,14.88,6.72Z"/><path class="cls-3" d="M310.66,222.21a42.55,42.55,0,0,0-10-13.17l10.15-13.46a42.69,42.69,0,0,1,10,13.18Z"/><path class="cls-3" d="M234.21,191.31a42.71,42.71,0,0,1-10-13.18l10.14-13.46a42.6,42.6,0,0,0,10,13.18Z"/><path class="cls-3" d="M262.35,206.9c-5.05-2.12-10.1-4.24-14.88-6.72l10.14-13.46c4.78,2.48,9.83,4.6,14.89,6.72Z"/><path class="cls-3" d="M290.5,222.49a63.57,63.57,0,0,0-13.26-8.87l10.14-13.46A63.23,63.23,0,0,1,300.64,209Z"/><path class="cls-3" d="M237.33,213.63a63,63,0,0,1-13.27-8.87l10.15-13.45a63.57,63.57,0,0,0,13.26,8.87Z"/><path class="cls-3" d="M267.09,227.07c-4.78-2.48-9.83-4.6-14.88-6.72l10.14-13.45c5,2.12,10.11,4.24,14.89,6.72Q272.17,220.34,267.09,227.07Z"/><path class="cls-5" d="M267.75,173.27a63.57,63.57,0,0,1-13.26-8.87l10.15-13.46a63.23,63.23,0,0,0,13.26,8.88Q272.83,166.54,267.75,173.27Z"/><path class="cls-5" d="M297.52,186.71c-4.78-2.48-9.83-4.6-14.88-6.72l10.14-13.45c5.05,2.12,10.11,4.24,14.89,6.71Z"/><path class="cls-5" d="M320.8,208.76a42.69,42.69,0,0,0-10-13.18l10.14-13.45a42.49,42.49,0,0,1,10,13.17Z"/><path class="cls-5" d="M244.35,177.85a42.6,42.6,0,0,1-10-13.18q5.07-6.72,10.15-13.45a42.53,42.53,0,0,0,10,13.18Z"/><path class="cls-5" d="M272.5,193.44c-5.06-2.12-10.11-4.24-14.89-6.72l10.14-13.45c4.78,2.48,9.84,4.6,14.89,6.72Z"/><path class="cls-5" d="M300.64,209a63.23,63.23,0,0,0-13.26-8.88l10.14-13.45a63.64,63.64,0,0,1,13.27,8.87Z"/><path class="cls-5" d="M247.47,200.18a63.57,63.57,0,0,1-13.26-8.87l10.14-13.46a62.8,62.8,0,0,0,13.26,8.87Z"/><path class="cls-5" d="M277.24,213.62c-4.78-2.48-9.84-4.6-14.89-6.72l10.15-13.46c5.05,2.12,10.1,4.24,14.88,6.72Z"/><path class="cls-5" d="M300.51,235.67a42.53,42.53,0,0,0-10-13.18L300.64,209a42.55,42.55,0,0,1,10,13.17Z"/><path class="cls-5" d="M224.06,204.76a42.42,42.42,0,0,1-10-13.18l10.14-13.45a42.71,42.71,0,0,0,10,13.18Z"/><path class="cls-5" d="M252.21,220.35c-5.05-2.12-10.1-4.24-14.88-6.72l10.14-13.45c4.78,2.48,9.83,4.6,14.88,6.72Z"/><path class="cls-5" d="M280.36,235.94a63.38,63.38,0,0,0-13.27-8.87q5.09-6.72,10.15-13.45a63.57,63.57,0,0,1,13.26,8.87Z"/><path class="cls-3" d="M290.37,249.12a42.69,42.69,0,0,0-10-13.18l10.14-13.45a42.53,42.53,0,0,1,10,13.18Z"/><rect class="cls-2" x="112.83" y="202.87" width="178.23" height="3.8" transform="translate(-83.12 242.83) rotate(-53)"/></g><path class="cls-5" d="M229,110.48s.63-41.15-.91-46.59c0,0-62.4-7.57-95,15.06-40.69,28.22-19.21,88.69,29,88.19,51.26-.54,44.62-57.87,44.62-57.87S216,109.29,229,110.48Z"/><path class="cls-3" d="M225.92,87.86s-57,.68-71.36,5.33-22.51,15-23.15,28.15c-.73,14.86,5.81,30.62,26.54,33.77s37.57-12.05,32.46-50.09c0,0,33.29,1.17,35.7,1.15C227.47,104.45,225.92,87.86,225.92,87.86Z"/><path class="cls-3" d="M200,68.22c-14.82.15-27.39,1.38-37.88,3.58-8.28,1.75-21.75,6.81-28.3,13.66-3.31,3.47,3.15,4.11,9.1-.09C146.26,83,156,78.91,165.08,77,183.49,73.22,198.7,74,203,73.19S203.07,68.19,200,68.22Z"/><path class="cls-3" d="M131.06,90.32c-3.32-1.41-9.21,6.47-6.78,8.69S134.38,91.73,131.06,90.32Z"/><path class="cls-3" d="M194.35,106.75s8.61-.59,8.62.74,3.77,39.21-20,51.41-40.48.42-40.48.42-2.2-3.88,6.07-1.21,26.66.18,34.38-8.18C192.92,139.18,197.4,124.22,194.35,106.75Z"/><path class="cls-6" d="M182.66,125.49a20.39,20.39,0,1,1-20.6-20.17A20.38,20.38,0,0,1,182.66,125.49ZM162.09,108.1a17.6,17.6,0,1,0,17.79,17.42A17.6,17.6,0,0,0,162.09,108.1Z"/><path class="cls-6" d="M168,126.09l13.13-1.1-1.1-5.88-12.83,3.43c-.06-.1-.12-.2-.19-.3l9.36-9.28-4.62-3.8L164.13,120l-.33-.1L165,106.8l-6,.07,1.15,13.22-.33.14-7.52-10.83-4.54,3.9,9.38,9.39L157,123l-12.71-3.46-1,5.9,13.22,1.17c0,.11.05.23.08.34l-12,5.52,3,5.15L158.57,130l.28.22-5.62,11.92,5.64,2,3.45-12.81.35,0L166,144l6.17-1L166,129.9a2.84,2.84,0,0,0,.26-.24l10.76,7.6,2.94-5.21-12-5.61C168,126.32,168,126.2,168,126.09Z"/><path class="cls-5" d="M223.38,57.89s1.38,52.78.57,55c0,0,7.89.4,9.86-.21,0,0,.38-51.19.06-54.9Z"/><path class="cls-3" d="M226.53,85.46l3.41,0s-.15,23.65-.23,24.23-2.62,0-2.62,0S226.45,86.4,226.53,85.46Z"/><path class="cls-3" d="M226.28,62.72s3.06-.69,3.2,0,.39,12.24.14,13.25-3,1.19-3-.4S226.33,64.74,226.28,62.72Z"/><polygon class="cls-6" points="172.68 186.06 176.84 194.18 185.89 195.34 179.47 201.81 181.16 210.78 173.02 206.66 165.01 211.04 166.41 202.03 159.77 195.77 168.77 194.31 172.68 186.06"/><path class="cls-5" d="M87.54,54.08H77.41V22.56H65.59V14.68H99.36v7.88H87.54Z"/><path class="cls-5" d="M132,14.68h10.13v28.7q0,5.91-2.68,8.58t-8.58,2.68H117.93q-5.91,0-8.58-2.68t-2.68-8.58V14.68H116.8v28.7q0,3.38,3.38,3.38h8.44q3.38,0,3.38-3.38Z"/><path class="cls-5" d="M152.26,14.68H175.9q5.91,0,8.58,2.67t2.67,8.59V31a14.19,14.19,0,0,1-1.55,7.26,7.53,7.53,0,0,1-4.92,3.43l7,12.39h-11l-6.47-11.82h-7.88V54.08H152.26ZM177,25.94c0-2.26-1.12-3.38-3.38-3.38H162.39V34.38h11.25c2.26,0,3.38-1.13,3.38-3.38Z"/><path class="cls-5" d="M196.16,14.68h22.51c3.67,0,6.37.84,8.1,2.5s2.59,4.22,2.59,7.63a9.49,9.49,0,0,1-1.46,5.49,7.92,7.92,0,0,1-3.61,2.95,8.74,8.74,0,0,1,6.2,6.08,13.34,13.34,0,0,1,.56,4.05c0,3.68-.87,6.38-2.59,8.11s-4.43,2.59-8.1,2.59h-24.2Zm23.07,11.26c0-2.26-1.13-3.38-3.38-3.38h-9.56v7.88h9.56q3.38,0,3.38-3.38Zm1.69,15.75q0-3.37-3.38-3.37H206.29V46.2h11.25q3.38,0,3.38-3.38Z"/><path class="cls-5" d="M275,43.38c0,3.94-.9,6.8-2.68,8.58s-4.64,2.68-8.58,2.68H249.62q-5.91,0-8.58-2.68t-2.68-8.58v-18q0-5.91,2.68-8.58t8.58-2.67h14.07q5.91,0,8.58,2.67c1.78,1.78,2.68,4.64,2.68,8.58Zm-10.13-18q0-3.37-3.38-3.37h-9.57q-3.37,0-3.37,3.37v18q0,3.38,3.37,3.38h9.57q3.38,0,3.38-3.38Z"/></svg>