<?xml version="1.0" encoding="utf-8"?>
<!-- Generator: Adobe Illustrator 24.1.2, SVG Export Plug-In . SVG Version: 6.00 Build 0)  -->
<svg version="1.1" id="Layer_1" xmlns="http://www.w3.org/2000/svg" xmlns:xlink="http://www.w3.org/1999/xlink" x="0px" y="0px"
	 viewBox="0 0 75.2 104.2" style="enable-background:new 0 0 75.2 104.2;" xml:space="preserve">
<style type="text/css">
	.st0{fill:#8DC63F;}
	.st1{fill:#EEB844;}
	.st2{fill:none;stroke:#FFFFFF;stroke-miterlimit:10;}
	.st3{fill:none;stroke:#FFFFFF;stroke-miterlimit:10;stroke-dasharray:4.0519,4.0519;}
	.st4{fill:#006838;}
	.st5{fill:#009444;}
	.st6{fill:#39B54A;}
</style>
<rect y="-0.5" class="st0" width="75.2" height="105.2"/>
<rect x="8.8" y="-0.5" class="st1" width="57.5" height="105.2"/>
<rect x="10.9" y="-0.5" width="53.3" height="105.3"/>
<g>
	<g>
		<line class="st2" x1="37.3" y1="-0.5" x2="37.3" y2="1.5"/>
		<line class="st3" x1="37.3" y1="5.6" x2="37.3" y2="100.8"/>
		<line class="st2" x1="37.3" y1="102.8" x2="37.3" y2="104.8"/>
	</g>
</g>
<g>
	<g>
		<line class="st2" x1="23.9" y1="-0.5" x2="23.9" y2="1.5"/>
		<line class="st3" x1="23.9" y1="5.6" x2="23.9" y2="100.8"/>
		<line class="st2" x1="23.9" y1="102.8" x2="23.9" y2="104.8"/>
	</g>
</g>
<g>
	<g>
		<line class="st2" x1="50.8" y1="-0.5" x2="50.8" y2="1.5"/>
		<line class="st3" x1="50.8" y1="5.6" x2="50.8" y2="100.8"/>
		<line class="st2" x1="50.8" y1="102.8" x2="50.8" y2="104.8"/>
	</g>
</g>
<g>
	<g>
		<path class="st4" d="M6.2,43.9c0,0.3,0.8,0.7,0.8,1c0,0.3-0.8,0.5-0.9,0.8c-0.1,0.3,0.6,0.9,0.5,1.2c-0.1,0.3-0.8,0.3-1,0.6
			c-0.2,0.3,0.1,0.9-0.1,1.1c-0.2,0.2-1.1-0.2-1.3,0c-0.2,0.2,0.1,1.2-0.2,1.3c-0.3,0.2-1.1-0.7-1.4-0.6c-0.3,0.1-0.3,0.8-0.6,0.9
			c-0.3,0.1-0.6,0.2-0.9,0.2c-0.3,0-0.6,0.2-0.9,0.2c-0.3,0-0.7,0.1-1,0.1c-0.3,0-0.4-1.1-0.7-1.2c-0.3-0.1-1,0.8-1.2,0.7
			c-0.3-0.1-0.5-0.5-0.8-0.6c-0.3-0.2-0.1-0.9-0.4-1.1c-0.2-0.2-0.9,0-1.1-0.2c-0.2-0.2,0.1-0.8-0.1-1.1c-0.2-0.3-0.4-0.5-0.5-0.7
			c-0.1-0.3-1.1-0.3-1.2-0.6c-0.1-0.3,1-0.9,0.9-1.2c0-0.3-1.2-0.5-1.2-0.9c0-0.3,0.6-0.6,0.7-0.9c0-0.3,0.2-0.6,0.3-0.9
			c0.1-0.3,0-0.7,0.1-1c0.1-0.3,0.8-0.3,0.9-0.5c0.2-0.3-0.2-0.9,0-1.2c0.2-0.2,1,0.1,1.2-0.1c0.2-0.2,0.3-0.6,0.6-0.7
			c0.3-0.2,0.2-1,0.5-1.1c0.3-0.1,0.8,0.4,1.1,0.3c0.3-0.1,0.5-0.8,0.8-0.9c0.3,0,0.7,0.1,1,0.1c0.3,0,0.6,0.3,0.9,0.3
			c0.3,0,0.6,0.2,0.9,0.3c0.3,0.1,0.4,0.7,0.6,0.9c0.3,0.1,0.9-0.4,1.1-0.2c0.3,0.2,0.2,0.7,0.5,0.9c0.2,0.2,0.9,0,1.1,0.2
			c0.2,0.2,0.3,0.6,0.5,0.9c0.2,0.3,0,0.7,0.2,1c0.1,0.3-0.2,0.7-0.1,1C5.9,42.5,6,42.7,6,43C6.1,43.3,6.2,43.6,6.2,43.9z"/>
	</g>
	<g>
		<path class="st5" d="M-0.8,48.5c-0.3-0.1-0.7,0.5-1,0.4c-0.3-0.1-0.3-0.7-0.5-0.9c-0.2-0.1-0.9,0.2-1.1,0c-0.2-0.2-0.1-0.7-0.3-1
			c-0.2-0.2-0.7-0.3-0.9-0.5c-0.1-0.3,0.3-0.8,0.3-1.1c-0.1-0.3-0.9-0.4-0.9-0.7c0-0.3,0.8-0.6,0.8-0.9c0-0.3-0.4-0.6-0.4-0.9
			c0.1-0.3,0.1-0.6,0.2-0.8c0.1-0.3,0.1-0.6,0.3-0.8c0.1-0.2,0.2-0.6,0.4-0.8c0.2-0.2,0.9,0.1,1.1,0c0.2-0.2,0-1,0.2-1.2
			c0.3-0.1,0.6-0.2,0.9-0.3c0.3-0.1,0.7,0.3,0.9,0.3c0.3,0,0.5-0.5,0.8-0.5c0.3,0,0.5,0.5,0.8,0.5c0.3,0.1,0.5,0.1,0.8,0.2
			c0.3,0.1,0.9-0.4,1.1-0.2c0.2,0.1,0,1,0.2,1.2c0.2,0.2,1-0.2,1.2,0.1c0.2,0.2,0,0.8,0.1,1c0.1,0.3,0.2,0.5,0.3,0.8
			c0.1,0.3,0.4,0.5,0.4,0.8c0,0.3-0.3,0.6-0.4,0.9c0,0.3,0.5,0.6,0.4,0.9c-0.1,0.3-0.7,0.4-0.8,0.7c-0.1,0.3-0.1,0.6-0.2,0.8
			c-0.1,0.2,0.1,0.8,0,1.1c-0.2,0.2-0.8,0.1-1,0.3c-0.2,0.2-0.2,0.8-0.5,0.9c-0.3,0.1-0.6,0.1-0.9,0.2c-0.3,0.1-0.6,0-0.9,0
			c-0.3,0-0.6,0-0.9,0C-0.3,48.9-0.6,48.5-0.8,48.5z"/>
	</g>
	<g>
		<path class="st6" d="M-3.2,44.2c0-0.3-0.5-0.6-0.4-0.9c0-0.3,0.5-0.5,0.6-0.8c0.1-0.3-0.1-0.8,0.1-1c0.2-0.2,0.7-0.2,0.9-0.4
			c0.2-0.2,0.4-0.6,0.7-0.7c0.3-0.1,0.7,0.3,1,0.2c0.3,0,0.6-0.5,0.9-0.5c0.3,0,0.4,0.7,0.7,0.9c0.3,0.1,0.7,0,0.9,0.2
			c0.2,0.2,0.5,0.4,0.6,0.7c0.2,0.2,0.4,0.5,0.5,0.8c0.1,0.3,0.3,0.6,0.3,0.9c0,0.3-0.5,0.6-0.5,0.9c0,0.3,0.4,0.8,0.3,1
			c-0.1,0.3-0.4,0.5-0.6,0.8c-0.2,0.2-0.6,0.2-0.9,0.4c-0.2,0.2-0.4,0.6-0.6,0.7c-0.3,0.1-0.6-0.1-1-0.1c-0.3,0-0.6,0.1-0.9,0
			c-0.3,0-0.8,0.3-1,0.2c-0.3-0.1-0.2-0.8-0.5-1c-0.2-0.2-0.9,0-1.1-0.3c-0.2-0.2-0.1-0.7-0.2-1C-3.3,44.9-3.2,44.5-3.2,44.2z"/>
	</g>
</g>
<g>
	<g>
		<path class="st4" d="M7.9,8.7c0,0.3,0.6,0.7,0.5,1c-0.1,0.3-0.7,0.5-0.8,0.7c-0.1,0.3,0.3,0.9,0.1,1.1c-0.2,0.3-0.7,0.2-1,0.5
			c-0.2,0.2-0.2,0.7-0.5,0.9c-0.3,0.2-0.8-0.2-1.1-0.1c-0.3,0.1-0.4,0.9-0.7,0.9c-0.3,0.1-0.7-0.8-1-0.8c-0.3,0-0.6,0.4-0.9,0.4
			c-0.3-0.1-0.6-0.1-0.9-0.3C1.3,13,1,12.9,0.7,12.8c-0.3-0.2-0.6-0.3-0.8-0.5c-0.2-0.2,0.1-0.9,0-1.1c-0.2-0.3-1-0.1-1.1-0.4
			c-0.1-0.3-0.1-0.7-0.2-1C-1.4,9.4-1,9-1,8.7c0-0.3-0.4-0.7-0.3-1C-1.3,7.5-0.8,7.3-0.7,7c0.1-0.3,0.2-0.6,0.4-0.8
			c0.2-0.3-0.1-0.9,0.1-1.1C0,4.8,0.8,5.3,1,5.1c0.3-0.2,0.2-1,0.4-1.1c0.3-0.1,0.7,0.2,1,0.2c0.3-0.1,0.6,0,0.9,0
			c0.3,0,0.6-0.2,0.9-0.1c0.3,0.1,0.5,0.5,0.8,0.6c0.3,0.1,0.8-0.2,1,0c0.3,0.2,0.1,0.8,0.4,1C6.7,5.8,7,5.9,7.2,6.2
			C7.4,6.5,8,6.5,8.1,6.8C8.3,7,7.9,7.5,8,7.8C8,8.1,7.9,8.4,7.9,8.7z"/>
	</g>
	<g>
		<path class="st5" d="M2.8,12c-0.3-0.1-0.8,0.3-1,0.1c-0.3-0.1-0.3-0.6-0.6-0.8c-0.2-0.2-0.8-0.1-1-0.4c-0.2-0.3,0-0.7-0.1-1
			C0,9.6-0.4,9.3-0.4,9c0-0.3,0.5-0.6,0.5-0.9C0.2,7.8-0.2,7.3-0.1,7C0.1,6.7,0.8,6.8,1,6.6c0.2-0.2,0.2-0.7,0.4-0.8
			C1.7,5.6,2,5.4,2.3,5.3c0.3-0.1,0.6-0.2,0.9-0.3c0.3,0,0.7-0.1,1,0c0.3,0.1,0.4,0.7,0.7,0.8c0.3,0.1,0.9-0.2,1.1,0
			c0.2,0.2,0.4,0.5,0.6,0.8c0.2,0.3,0,0.7,0.1,1c0.1,0.3,0.5,0.5,0.5,0.8c0,0.3-0.3,0.6-0.4,0.9C6.7,9.7,6.6,10,6.5,10.2
			c-0.1,0.3,0.1,0.8-0.1,1.1c-0.2,0.2-0.9,0-1.1,0.2C5,11.6,5,12.3,4.7,12.4c-0.3,0.1-0.7-0.2-1-0.1C3.4,12.3,3.1,12.1,2.8,12z"/>
	</g>
	<g>
		<path class="st6" d="M1.1,9c0-0.3-0.3-0.7-0.2-1c0.1-0.3,0.5-0.5,0.7-0.8C1.8,7,1.8,6.5,2.1,6.3c0.3-0.2,0.7,0,1-0.1
			c0.3,0,0.7-0.2,1-0.1c0.3,0.1,0.5,0.6,0.7,0.8c0.3,0.2,0.8,0.2,0.9,0.5C6,7.7,5.7,8.1,5.7,8.5c0,0.3,0.2,0.6,0.1,1
			c-0.1,0.3-0.2,0.6-0.4,0.9C5.2,10.6,5,10.8,4.7,11c-0.3,0.2-0.6,0.3-1,0.4c-0.3,0-0.6-0.4-0.9-0.5c-0.3-0.1-0.8,0.1-1-0.1
			c-0.3-0.2-0.5-0.5-0.6-0.8C1,9.7,1.1,9.3,1.1,9z"/>
	</g>
</g>
<g>
	<g>
		<path class="st4" d="M9.1,16.5c0,0.3,0.7,0.7,0.7,1c0,0.3-0.8,0.5-0.9,0.8c-0.1,0.3,0.5,0.9,0.4,1.2c-0.1,0.3-0.8,0.3-1,0.5
			c-0.2,0.3,0,0.9-0.2,1.1c-0.2,0.2-1-0.2-1.3,0c-0.3,0.2-0.1,1.1-0.4,1.2c-0.3,0.1-1-0.7-1.3-0.6c-0.3,0.1-0.4,0.7-0.7,0.8
			c-0.3,0-0.6,0.1-0.9,0.1c-0.3,0-0.7,0.1-1,0.1c-0.3,0-0.7,0-1-0.1c-0.3-0.1-0.2-1.1-0.5-1.2c-0.3-0.1-1.1,0.6-1.3,0.4
			c-0.3-0.2-0.4-0.5-0.7-0.8c-0.2-0.2,0-0.8-0.2-1.1c-0.2-0.3-0.8-0.2-1-0.5C-2.3,19-1.9,18.5-2,18.2c-0.1-0.3-0.2-0.5-0.3-0.9
			c0-0.3-0.9-0.6-0.9-0.9c0-0.3,1.1-0.6,1.1-0.9c0-0.3-0.8-0.9-0.7-1.2c0.1-0.3,0.8-0.4,0.9-0.7c0.1-0.3,0.4-0.5,0.5-0.8
			c0.2-0.3,0.2-0.6,0.4-0.9c0.2-0.2,0.8,0,1-0.2c0.3-0.2,0.2-0.9,0.5-1c0.3-0.1,0.8,0.4,1.1,0.3C2,11,2.2,10.8,2.5,10.7
			c0.3,0,0.6-0.8,0.9-0.8c0.3,0,0.6,0.6,0.9,0.7c0.3,0,0.8-0.5,1.1-0.4c0.3,0.1,0.6,0.4,0.9,0.6C6.6,11,6.8,11.3,7,11.5
			c0.3,0.2,0.5,0.5,0.7,0.7c0.2,0.2,0,0.8,0.2,1c0.2,0.3,0.9,0.2,1,0.4c0.1,0.3-0.1,0.7,0,1C9,15,9.7,15.1,9.7,15.5
			C9.8,15.8,9.1,16.1,9.1,16.5z"/>
	</g>
	<g>
		<path class="st5" d="M2.6,20.7c-0.3-0.1-0.8,0.4-1,0.3c-0.3-0.1-0.3-0.7-0.6-0.9c-0.2-0.2-0.9,0.1-1.1-0.1c-0.2-0.2-0.1-0.7-0.3-1
			c-0.2-0.2-0.7-0.4-0.8-0.6c-0.1-0.3,0.4-0.8,0.3-1c-0.1-0.3-0.7-0.5-0.7-0.8c0-0.3,0.8-0.5,0.9-0.8c0.1-0.3-0.3-0.7-0.2-0.9
			c0.1-0.3,0.2-0.6,0.4-0.8c0.2-0.2,0.3-0.6,0.5-0.8c0.2-0.2,0.4-0.5,0.6-0.7c0.2-0.2,0.8,0.3,1.1,0.2c0.3-0.1,0.3-0.9,0.6-1
			c0.3-0.1,0.6,0,0.9,0c0.3,0,0.5,0.5,0.8,0.5c0.3,0.1,0.7-0.3,1-0.1c0.3,0.1,0.3,0.6,0.6,0.8c0.2,0.2,0.5,0.3,0.7,0.5
			c0.2,0.2,0.9,0.1,1.1,0.3c0.2,0.2-0.4,0.9-0.3,1.2c0.1,0.3,0.9,0.3,1,0.6c0.1,0.3-0.3,0.7-0.3,1c0,0.3-0.1,0.6-0.1,0.9
			c-0.1,0.3,0,0.6-0.1,0.9c-0.1,0.3-0.6,0.3-0.7,0.6c-0.2,0.2,0,0.8-0.2,1c-0.2,0.2-0.8,0-1,0.2c-0.2,0.2-0.4,0.4-0.7,0.5
			c-0.3,0.1-0.4,0.7-0.7,0.8c-0.3,0.1-0.7-0.4-1-0.4C3.2,20.9,2.9,20.7,2.6,20.7z"/>
	</g>
	<g>
		<path class="st6" d="M0.4,16.8c0-0.3-0.4-0.6-0.4-0.9c0-0.3,0.5-0.5,0.6-0.7c0.1-0.3-0.1-0.7,0.1-1C0.9,14,1.3,14,1.5,13.9
			c0.2-0.2,0.4-0.6,0.6-0.7c0.3-0.1,0.6,0.2,0.9,0.2c0.3,0,0.6-0.5,0.9-0.4c0.3,0,0.4,0.7,0.6,0.8c0.3,0.1,0.6,0,0.8,0.2
			c0.2,0.2,0.4,0.4,0.6,0.6c0.2,0.2,0.4,0.5,0.5,0.7c0.1,0.3,0.2,0.5,0.3,0.8c0,0.3-0.5,0.5-0.5,0.8c0,0.3,0.4,0.7,0.3,0.9
			c-0.1,0.3-0.4,0.5-0.5,0.7c-0.2,0.2-0.6,0.2-0.8,0.4c-0.2,0.2-0.3,0.6-0.6,0.7c-0.3,0.1-0.6-0.1-0.9-0.1c-0.3,0-0.5,0.1-0.8,0
			c-0.3,0-0.7,0.3-1,0.2c-0.3-0.1-0.2-0.7-0.4-0.9c-0.2-0.2-0.8,0-1-0.2c-0.2-0.2,0-0.6-0.2-0.9C0.4,17.4,0.4,17.1,0.4,16.8z"/>
	</g>
</g>
<g>
	<g>
		<path class="st4" d="M8,88.6c0,0.3,1,0.7,1,0.9c0,0.3-1,0.5-1.1,0.7c-0.1,0.3,0.9,0.9,0.8,1.2c-0.1,0.3-0.9,0.3-1.1,0.6
			c-0.1,0.3,0.4,0.9,0.2,1.1c-0.1,0.3-1.3-0.1-1.4,0.1c-0.2,0.2,0.6,1.2,0.4,1.5c-0.2,0.2-1.5-0.7-1.7-0.5c-0.2,0.2,0.1,1-0.2,1.1
			c-0.2,0.2-0.5,0.4-0.7,0.5c-0.3,0.1-0.4,0.4-0.7,0.6c-0.3,0.1-0.5,0.4-0.8,0.5c-0.3,0.1-0.9-1.1-1.2-1C1.3,96,1.3,97.5,1,97.5
			c-0.3,0-0.6-0.2-0.9-0.2c-0.3,0-0.5-0.8-0.8-0.9c-0.3,0-0.7,0.7-1,0.6c-0.3-0.1-0.4-0.9-0.7-0.9C-2.7,96.1-3,96.1-3.2,96
			c-0.3-0.1-1.1,0.8-1.3,0.6c-0.3-0.1,0.3-1.6,0.1-1.7c-0.2-0.2-1.3,0.7-1.6,0.5c-0.2-0.2,0.1-1-0.1-1.2c-0.2-0.2-0.3-0.5-0.5-0.7
			c-0.2-0.2-0.6-0.3-0.8-0.6c-0.1-0.3,0.4-0.8,0.2-1.1c-0.1-0.3-1.1-0.2-1.2-0.5c-0.1-0.3,0.8-0.8,0.7-1.1C-7.6,89.9-8,89.7-8,89.4
			c0-0.3-1-0.6-1-0.8c0-0.3,0.9-0.6,0.9-0.9c0-0.3-0.8-0.7-0.7-1c0.1-0.3,0.4-0.6,0.5-0.8c0.1-0.3,0.5-0.5,0.6-0.7
			c0.1-0.3,0.3-0.5,0.5-0.7c0.1-0.3,0.9-0.1,1.1-0.3c0.2-0.2-0.4-1-0.2-1.2c0.2-0.2,0.8,0,1-0.2c0.2-0.2-0.1-1.1,0.1-1.2
			c0.2-0.2,0.6-0.2,0.9-0.3c0.3-0.1,0.7,0.1,1,0c0.3-0.1,0.7,0.3,1,0.3c0.3-0.1,0.5-0.2,0.8-0.3c0.3-0.1,0.4-1.2,0.7-1.3
			c0.3,0,0.6,0.6,0.9,0.6c0.3,0,0.6,0.1,0.8,0.1c0.3,0,0.6,0,0.9,0.1c0.3,0.1,0.7-0.3,1-0.2c0.3,0.1,0.3,0.9,0.5,1
			c0.3,0.1,0.5,0.3,0.7,0.4c0.3,0.1,0.9-0.4,1.2-0.2c0.2,0.2,0,0.9,0.2,1.1c0.2,0.2,0.2,0.5,0.4,0.7c0.2,0.2,1-0.1,1.2,0.1
			c0.2,0.2-0.5,0.9-0.3,1.2c0.1,0.3,1.7-0.2,1.8,0.1c0.1,0.3,0,0.7,0.1,1c0.1,0.3-0.3,0.7-0.2,1c0.1,0.3-0.2,0.6-0.2,0.9
			C8.1,88,8,88.3,8,88.6z"/>
	</g>
	<g>
		<path class="st5" d="M-1.1,94.5c-0.3-0.1-0.8,0.6-1.1,0.5c-0.3-0.1-0.3-0.9-0.6-1c-0.3-0.1-1,0.4-1.2,0.2
			c-0.2-0.2-0.1-0.9-0.3-1.1c-0.2-0.2-0.8-0.1-1-0.3c-0.2-0.2,0.3-1,0.2-1.2c-0.2-0.3-1.1-0.1-1.2-0.4c-0.1-0.3,0.9-0.9,0.8-1.2
			c-0.1-0.3-0.7-0.5-0.7-0.8c0-0.3-0.1-0.6,0-0.9c0-0.3-0.1-0.6,0-0.9c0.1-0.3,0-0.7,0.1-0.9c0.1-0.3,1.1-0.2,1.2-0.4
			c0.1-0.3-0.6-1.1-0.4-1.3c0.2-0.2,0.5-0.4,0.7-0.6c0.2-0.2,0.8,0,1.1-0.2c0.2-0.2,0.2-0.8,0.4-1c0.3-0.2,0.8,0.2,1.1,0.1
			c0.3-0.1,0.5-0.3,0.8-0.3c0.3-0.1,0.5-1,0.8-1c0.3,0,0.6,1.1,0.9,1.1c0.3,0,0.7-1,1-0.9c0.3,0.1,0.5,0.7,0.8,0.8
			c0.3,0.1,0.5,0.3,0.8,0.4c0.3,0.1,0.7,0.1,0.9,0.3c0.2,0.2,0.1,0.8,0.3,1c0.2,0.2,0.9,0,1.1,0.2c0.2,0.2-0.3,0.9-0.1,1.2
			c0.2,0.3,0.5,0.4,0.6,0.7c0.1,0.3,0.9,0.4,1,0.7c0.1,0.3-0.5,0.7-0.5,1c0,0.3,0.7,0.6,0.7,0.9c0,0.3-0.3,0.6-0.3,0.9
			c-0.1,0.3-0.4,0.6-0.5,0.8C6,91,5.9,91.3,5.7,91.5C5.6,91.8,5,91.7,4.8,92c-0.2,0.2,0.2,0.9,0,1.1c-0.2,0.2-0.7,0.1-1,0.3
			c-0.2,0.2-0.1,0.9-0.4,1c-0.3,0.2-0.6,0.2-0.9,0.3c-0.3,0.1-0.7-0.1-1,0c-0.3,0.1-0.6-0.3-0.9-0.3c-0.3,0-0.5,0.1-0.8,0.1
			C-0.5,94.4-0.8,94.5-1.1,94.5z"/>
	</g>
	<g>
		<path class="st6" d="M-4.2,89.1c0-0.3-0.6-0.6-0.6-0.9c0-0.3,0.6-0.5,0.7-0.8c0.1-0.3-0.3-0.8-0.2-1.1c0.1-0.3,0.7-0.3,0.9-0.5
			c0.2-0.2,0.1-0.7,0.4-0.9c0.2-0.2,0.8,0.1,1.1,0c0.3-0.1,0.3-0.9,0.6-1c0.3-0.1,0.7,0.6,1,0.6c0.3,0,0.6-0.5,0.8-0.4
			c0.3,0,0.6,0.1,0.9,0.1c0.3,0.1,0.6,0.1,0.9,0.2c0.3,0.1,0.6,0.2,0.8,0.4c0.2,0.2,0,0.9,0.1,1.1c0.2,0.2,1,0,1.1,0.3
			c0.1,0.3,0.2,0.6,0.3,0.9c0.1,0.3-0.3,0.6-0.2,0.9c0,0.3,0.4,0.6,0.4,0.9c0,0.3-0.5,0.5-0.5,0.8c-0.1,0.3-0.1,0.5-0.3,0.8
			c-0.1,0.3,0.2,0.9,0,1.1c-0.2,0.2-1-0.1-1.2,0.1c-0.2,0.2,0,1-0.3,1.1c-0.3,0.1-0.7-0.1-1,0c-0.3,0.1-0.6,0.1-0.9,0.1
			c-0.3,0-0.6,0.2-0.9,0.2c-0.3,0-0.5-0.4-0.8-0.5c-0.3-0.1-0.7,0.3-1,0.1c-0.3-0.1-0.2-0.7-0.4-0.9c-0.2-0.2-0.5-0.2-0.7-0.5
			c-0.2-0.2-0.8-0.2-0.9-0.4c-0.1-0.3,0.2-0.7,0.1-1C-4.2,89.6-4.1,89.4-4.2,89.1z"/>
	</g>
</g>
<g>
	<g>
		<path class="st4" d="M73.5,18.5c0,0.3,0.5,0.7,0.5,0.9c-0.1,0.3-0.6,0.4-0.7,0.7c-0.1,0.3,0.3,0.8,0.1,1.1
			c-0.2,0.2-0.7,0.2-0.9,0.4c-0.2,0.2-0.2,0.7-0.5,0.9c-0.2,0.2-0.8-0.2-1.1-0.1c-0.3,0.1-0.4,0.8-0.7,0.9c-0.3,0.1-0.7-0.7-1-0.7
			c-0.3,0-0.6,0.4-0.9,0.3c-0.3-0.1-0.6-0.1-0.9-0.2c-0.3-0.1-0.6-0.2-0.8-0.3c-0.2-0.2-0.6-0.3-0.8-0.5c-0.2-0.2,0.1-0.9,0-1.1
			c-0.2-0.2-1-0.1-1.1-0.4c-0.1-0.3-0.1-0.6-0.2-0.9c-0.1-0.3,0.3-0.6,0.3-0.9c0-0.3-0.4-0.6-0.3-0.9c0.1-0.3,0.5-0.5,0.6-0.7
			c0.1-0.3,0.2-0.5,0.3-0.8c0.2-0.2-0.1-0.9,0.1-1.1c0.2-0.2,1,0.2,1.2,0.1c0.2-0.2,0.2-1,0.4-1.1c0.3-0.1,0.7,0.2,1,0.1
			c0.3-0.1,0.6,0,0.9,0c0.3,0,0.6-0.1,0.9-0.1c0.3,0.1,0.5,0.5,0.7,0.6c0.3,0.1,0.8-0.2,1,0c0.2,0.2,0.1,0.8,0.3,1
			c0.2,0.2,0.5,0.3,0.7,0.5c0.2,0.2,0.8,0.3,0.9,0.5c0.1,0.3-0.2,0.7-0.2,1C73.6,17.9,73.5,18.2,73.5,18.5z"/>
	</g>
	<g>
		<path class="st5" d="M68.6,21.6c-0.3-0.1-0.7,0.2-1,0.1c-0.3-0.1-0.3-0.6-0.5-0.8c-0.2-0.2-0.8-0.1-0.9-0.4c-0.2-0.2,0-0.7-0.1-1
			c-0.1-0.3-0.4-0.5-0.5-0.8c0-0.3,0.5-0.6,0.5-0.9c0.1-0.3-0.3-0.8-0.2-1c0.1-0.3,0.8-0.2,1-0.4c0.2-0.2,0.2-0.6,0.4-0.8
			c0.2-0.2,0.5-0.3,0.8-0.4c0.3-0.1,0.6-0.2,0.9-0.3c0.3,0,0.6-0.1,0.9,0c0.3,0.1,0.4,0.6,0.7,0.8c0.3,0.1,0.8-0.2,1,0
			c0.2,0.2,0.4,0.5,0.6,0.8c0.2,0.2,0,0.7,0.1,0.9c0.1,0.3,0.5,0.5,0.5,0.8c0,0.3-0.3,0.6-0.4,0.9c-0.1,0.3-0.1,0.6-0.2,0.8
			c-0.1,0.3,0.1,0.8-0.1,1c-0.2,0.2-0.8,0-1.1,0.1c-0.2,0.2-0.3,0.8-0.5,0.9c-0.3,0.1-0.7-0.2-1-0.1C69.2,21.9,68.9,21.7,68.6,21.6z
			"/>
	</g>
	<g>
		<path class="st6" d="M67,18.7c0-0.3-0.3-0.7-0.2-1c0.1-0.3,0.5-0.5,0.7-0.7c0.2-0.2,0.3-0.7,0.5-0.9c0.3-0.1,0.7,0,1-0.1
			c0.3,0,0.7-0.2,1-0.1c0.3,0.1,0.5,0.5,0.7,0.7c0.2,0.2,0.7,0.2,0.9,0.5c0.1,0.3-0.2,0.7-0.1,1c0,0.3,0.2,0.6,0.1,0.9
			c-0.1,0.3-0.2,0.6-0.4,0.8c-0.2,0.2-0.4,0.5-0.7,0.7c-0.3,0.1-0.6,0.3-0.9,0.3c-0.3,0-0.6-0.4-0.9-0.4c-0.3-0.1-0.8,0.1-1-0.1
			c-0.2-0.2-0.4-0.5-0.6-0.8C66.9,19.4,67,19.1,67,18.7z"/>
	</g>
</g>
<g>
	<g>
		<path class="st4" d="M78.9-0.5c0,0.3,0.5,0.7,0.5,0.9c-0.1,0.3-0.6,0.4-0.7,0.7c-0.1,0.3,0.3,0.8,0.1,1.1
			c-0.2,0.2-0.7,0.2-0.9,0.4c-0.2,0.2-0.2,0.7-0.5,0.9c-0.2,0.2-0.8-0.2-1.1-0.1c-0.3,0.1-0.4,0.8-0.7,0.9c-0.3,0.1-0.7-0.7-1-0.7
			c-0.3,0-0.6,0.4-0.9,0.3c-0.3-0.1-0.6-0.1-0.9-0.2c-0.3-0.1-0.6-0.2-0.8-0.3c-0.2-0.2-0.6-0.3-0.8-0.5c-0.2-0.2,0.1-0.9,0-1.1
			c-0.2-0.2-1-0.1-1.1-0.4c-0.1-0.3-0.1-0.6-0.2-0.9c-0.1-0.3,0.3-0.6,0.3-0.9c0-0.3-0.4-0.6-0.3-0.9c0.1-0.3,0.5-0.5,0.6-0.7
			c0.1-0.3,0.2-0.5,0.3-0.8c0.2-0.2-0.1-0.9,0.1-1.1c0.2-0.2,1,0.2,1.2,0.1c0.2-0.2,0.2-1,0.4-1.1c0.3-0.1,0.7,0.2,1,0.1
			c0.3-0.1,0.6,0,0.9,0c0.3,0,0.6-0.1,0.9-0.1C75.8-5,76-4.5,76.3-4.4c0.3,0.1,0.8-0.2,1,0c0.2,0.2,0.1,0.8,0.3,1
			c0.2,0.2,0.5,0.3,0.7,0.5c0.2,0.2,0.8,0.3,0.9,0.5c0.1,0.3-0.2,0.7-0.2,1C79.1-1.1,78.9-0.8,78.9-0.5z"/>
	</g>
	<g>
		<path class="st5" d="M74,2.7c-0.3-0.1-0.7,0.2-1,0.1c-0.3-0.1-0.3-0.6-0.5-0.8c-0.2-0.2-0.8-0.1-0.9-0.4c-0.2-0.2,0-0.7-0.1-1
			C71.3,0.3,71,0.1,71-0.2c0-0.3,0.5-0.6,0.5-0.9c0.1-0.3-0.3-0.8-0.2-1c0.1-0.3,0.8-0.2,1-0.4c0.2-0.2,0.2-0.6,0.4-0.8
			c0.2-0.2,0.5-0.3,0.8-0.4C73.8-3.9,74.1-4,74.4-4c0.3,0,0.6-0.1,0.9,0C75.6-4,75.7-3.4,76-3.3c0.3,0.1,0.8-0.2,1,0
			c0.2,0.2,0.4,0.5,0.6,0.8c0.2,0.2,0,0.7,0.1,0.9c0.1,0.3,0.5,0.5,0.5,0.8c0,0.3-0.3,0.6-0.4,0.9c-0.1,0.3-0.1,0.6-0.2,0.8
			c-0.1,0.3,0.1,0.8-0.1,1c-0.2,0.2-0.8,0-1.1,0.1c-0.2,0.2-0.3,0.8-0.5,0.9c-0.3,0.1-0.7-0.2-1-0.1C74.6,2.9,74.3,2.7,74,2.7z"/>
	</g>
	<g>
		<path class="st6" d="M72.4-0.3c0-0.3-0.3-0.7-0.2-1c0.1-0.3,0.5-0.5,0.7-0.7c0.2-0.2,0.3-0.7,0.5-0.9c0.3-0.1,0.7,0,1-0.1
			c0.3,0,0.7-0.2,1-0.1c0.3,0.1,0.5,0.5,0.7,0.7C76.3-2.1,76.8-2,77-1.8c0.1,0.3-0.2,0.7-0.1,1c0,0.3,0.2,0.6,0.1,0.9
			c-0.1,0.3-0.2,0.6-0.4,0.8c-0.2,0.2-0.4,0.5-0.7,0.7C75.6,1.8,75.3,2,74.9,2c-0.3,0-0.6-0.4-0.9-0.4c-0.3-0.1-0.8,0.1-1-0.1
			c-0.2-0.2-0.4-0.5-0.6-0.8C72.3,0.4,72.4,0.1,72.4-0.3z"/>
	</g>
</g>
<g>
	<g>
		<path class="st4" d="M78.9,104.7c0,0.3,0.5,0.7,0.5,0.9c-0.1,0.3-0.6,0.4-0.7,0.7c-0.1,0.3,0.3,0.8,0.1,1.1
			c-0.2,0.2-0.7,0.2-0.9,0.4c-0.2,0.2-0.2,0.7-0.5,0.9c-0.2,0.2-0.8-0.2-1.1-0.1c-0.3,0.1-0.4,0.8-0.7,0.9c-0.3,0.1-0.7-0.7-1-0.7
			c-0.3,0-0.6,0.4-0.9,0.3c-0.3-0.1-0.6-0.1-0.9-0.2c-0.3-0.1-0.6-0.2-0.8-0.3c-0.2-0.2-0.6-0.3-0.8-0.5c-0.2-0.2,0.1-0.9,0-1.1
			c-0.2-0.2-1-0.1-1.1-0.4c-0.1-0.3-0.1-0.6-0.2-0.9c-0.1-0.3,0.3-0.6,0.3-0.9c0-0.3-0.4-0.6-0.3-0.9c0.1-0.3,0.5-0.5,0.6-0.7
			c0.1-0.3,0.2-0.5,0.3-0.8c0.2-0.2-0.1-0.9,0.1-1.1c0.2-0.2,1,0.2,1.2,0.1c0.2-0.2,0.2-1,0.4-1.1c0.3-0.1,0.7,0.2,1,0.1
			c0.3-0.1,0.6,0,0.9,0c0.3,0,0.6-0.1,0.9-0.1c0.3,0.1,0.5,0.5,0.7,0.6c0.3,0.1,0.8-0.2,1,0c0.2,0.2,0.1,0.8,0.3,1
			c0.2,0.2,0.5,0.3,0.7,0.5c0.2,0.2,0.8,0.3,0.9,0.5c0.1,0.3-0.2,0.7-0.2,1C79.1,104.1,78.9,104.4,78.9,104.7z"/>
	</g>
	<g>
		<path class="st5" d="M74,107.9c-0.3-0.1-0.7,0.2-1,0.1c-0.3-0.1-0.3-0.6-0.5-0.8c-0.2-0.2-0.8-0.1-0.9-0.4c-0.2-0.2,0-0.7-0.1-1
			c-0.1-0.3-0.4-0.5-0.5-0.8c0-0.3,0.5-0.6,0.5-0.9c0.1-0.3-0.3-0.8-0.2-1c0.1-0.3,0.8-0.2,1-0.4c0.2-0.2,0.2-0.6,0.4-0.8
			c0.2-0.2,0.5-0.3,0.8-0.4c0.3-0.1,0.6-0.2,0.9-0.3c0.3,0,0.6-0.1,0.9,0c0.3,0.1,0.4,0.6,0.7,0.8c0.3,0.1,0.8-0.2,1,0
			c0.2,0.2,0.4,0.5,0.6,0.8c0.2,0.2,0,0.7,0.1,0.9c0.1,0.3,0.5,0.5,0.5,0.8c0,0.3-0.3,0.6-0.4,0.9c-0.1,0.3-0.1,0.6-0.2,0.8
			c-0.1,0.3,0.1,0.8-0.1,1c-0.2,0.2-0.8,0-1.1,0.1c-0.2,0.2-0.3,0.8-0.5,0.9c-0.3,0.1-0.7-0.2-1-0.1C74.6,108.1,74.3,107.9,74,107.9
			z"/>
	</g>
	<g>
		<path class="st6" d="M72.4,105c0-0.3-0.3-0.7-0.2-1c0.1-0.3,0.5-0.5,0.7-0.7c0.2-0.2,0.3-0.7,0.5-0.9c0.3-0.1,0.7,0,1-0.1
			c0.3,0,0.7-0.2,1-0.1c0.3,0.1,0.5,0.5,0.7,0.7c0.2,0.2,0.7,0.2,0.9,0.5c0.1,0.3-0.2,0.7-0.1,1c0,0.3,0.2,0.6,0.1,0.9
			c-0.1,0.3-0.2,0.6-0.4,0.8c-0.2,0.2-0.4,0.5-0.7,0.7c-0.3,0.1-0.6,0.3-0.9,0.3c-0.3,0-0.6-0.4-0.9-0.4c-0.3-0.1-0.8,0.1-1-0.1
			c-0.2-0.2-0.4-0.5-0.6-0.8C72.3,105.6,72.4,105.3,72.4,105z"/>
	</g>
</g>
<g>
	<g>
		<path class="st4" d="M78.2,61.6c0,0.3,0.5,0.7,0.5,0.9c-0.1,0.3-0.6,0.4-0.7,0.7c-0.1,0.3,0.3,0.8,0.1,1.1
			c-0.2,0.2-0.7,0.2-0.9,0.4c-0.2,0.2-0.2,0.7-0.5,0.9c-0.2,0.2-0.8-0.2-1.1-0.1c-0.3,0.1-0.4,0.8-0.7,0.9c-0.3,0.1-0.7-0.7-1-0.7
			c-0.3,0-0.6,0.4-0.9,0.3c-0.3-0.1-0.6-0.1-0.9-0.2c-0.3-0.1-0.6-0.2-0.8-0.3c-0.2-0.2-0.6-0.3-0.8-0.5c-0.2-0.2,0.1-0.9,0-1.1
			c-0.2-0.2-1-0.1-1.1-0.4c-0.1-0.3-0.1-0.6-0.2-0.9c-0.1-0.3,0.3-0.6,0.3-0.9c0-0.3-0.4-0.6-0.3-0.9c0.1-0.3,0.5-0.5,0.6-0.7
			c0.1-0.3,0.2-0.5,0.3-0.8c0.2-0.2-0.1-0.9,0.1-1.1c0.2-0.2,1,0.2,1.2,0.1c0.2-0.2,0.2-1,0.4-1.1c0.3-0.1,0.7,0.2,1,0.1
			c0.3-0.1,0.6,0,0.9,0c0.3,0,0.6-0.1,0.9-0.1c0.3,0.1,0.5,0.5,0.7,0.6c0.3,0.1,0.8-0.2,1,0c0.2,0.2,0.1,0.8,0.3,1
			c0.2,0.2,0.5,0.3,0.7,0.5c0.2,0.2,0.8,0.3,0.9,0.5c0.1,0.3-0.2,0.7-0.2,1C78.4,61,78.2,61.3,78.2,61.6z"/>
	</g>
	<g>
		<path class="st5" d="M73.3,64.8c-0.3-0.1-0.7,0.2-1,0.1c-0.3-0.1-0.3-0.6-0.5-0.8c-0.2-0.2-0.8-0.1-0.9-0.4c-0.2-0.2,0-0.7-0.1-1
			c-0.1-0.3-0.4-0.5-0.5-0.9c0-0.3,0.5-0.6,0.5-0.9c0.1-0.3-0.3-0.8-0.2-1c0.1-0.3,0.8-0.2,1-0.4c0.2-0.2,0.2-0.6,0.4-0.8
			c0.2-0.2,0.5-0.3,0.8-0.4c0.3-0.1,0.6-0.2,0.9-0.3c0.3,0,0.6-0.1,0.9,0c0.3,0.1,0.4,0.6,0.7,0.8c0.3,0.1,0.8-0.2,1,0
			c0.2,0.2,0.4,0.5,0.6,0.8c0.2,0.2,0,0.7,0.1,0.9c0.1,0.3,0.5,0.5,0.5,0.8c0,0.3-0.3,0.6-0.4,0.9c-0.1,0.3-0.1,0.6-0.2,0.8
			c-0.1,0.3,0.1,0.8-0.1,1c-0.2,0.2-0.8,0-1.1,0.1c-0.2,0.2-0.3,0.8-0.5,0.9c-0.3,0.1-0.7-0.2-1-0.1C73.9,65,73.6,64.8,73.3,64.8z"
			/>
	</g>
	<g>
		<path class="st6" d="M71.7,61.8c0-0.3-0.3-0.7-0.2-1c0.1-0.3,0.5-0.5,0.7-0.7c0.2-0.2,0.3-0.7,0.5-0.9c0.3-0.1,0.7,0,1-0.1
			c0.3,0,0.7-0.2,1-0.1c0.3,0.1,0.5,0.5,0.7,0.7c0.2,0.2,0.7,0.2,0.9,0.5c0.1,0.3-0.2,0.7-0.1,1c0,0.3,0.2,0.6,0.1,0.9
			c-0.1,0.3-0.2,0.6-0.4,0.8c-0.2,0.2-0.4,0.5-0.7,0.7c-0.3,0.1-0.6,0.3-0.9,0.3c-0.3,0-0.6-0.4-0.9-0.4c-0.3-0.1-0.8,0.1-1-0.1
			c-0.2-0.2-0.4-0.5-0.6-0.8C71.6,62.5,71.7,62.2,71.7,61.8z"/>
	</g>
</g>
<g>
	<g>
		<path class="st4" d="M81.8,69.3c0,0.3,1.1,0.7,1,1c0,0.3-1,0.5-1.1,0.7c-0.1,0.3,0.9,0.9,0.8,1.2c-0.1,0.3-1,0.3-1.1,0.6
			c-0.1,0.3,0.4,0.9,0.2,1.2c-0.1,0.3-1.3-0.1-1.5,0.1c-0.2,0.2,0.6,1.3,0.4,1.5c-0.2,0.2-1.5-0.7-1.7-0.5c-0.2,0.2,0.1,1-0.2,1.2
			c-0.2,0.2-0.5,0.4-0.7,0.5c-0.3,0.1-0.5,0.5-0.7,0.6c-0.3,0.1-0.5,0.4-0.8,0.5c-0.3,0.1-0.9-1.1-1.2-1c-0.3,0.1-0.3,1.5-0.6,1.6
			c-0.3,0-0.7-0.2-1-0.2c-0.3,0-0.6-0.8-0.8-0.9c-0.3,0-0.7,0.7-1,0.6c-0.3-0.1-0.4-0.9-0.7-1c-0.3-0.1-0.6-0.1-0.8-0.2
			c-0.3-0.1-1.1,0.8-1.3,0.6c-0.3-0.1,0.3-1.6,0.1-1.8c-0.2-0.2-1.4,0.7-1.6,0.5c-0.2-0.2,0.1-1-0.1-1.2c-0.2-0.2-0.3-0.5-0.5-0.7
			c-0.2-0.2-0.6-0.3-0.8-0.6c-0.1-0.3,0.4-0.8,0.2-1.1c-0.1-0.3-1.1-0.2-1.2-0.5c-0.1-0.3,0.8-0.8,0.7-1.1c-0.1-0.3-0.4-0.5-0.4-0.8
			c0-0.3-1.1-0.6-1.1-0.9c0-0.3,0.9-0.6,0.9-0.9c0-0.3-0.8-0.8-0.7-1c0.1-0.3,0.4-0.6,0.5-0.9c0.1-0.3,0.5-0.5,0.6-0.8
			c0.1-0.3,0.4-0.5,0.5-0.8c0.1-0.3,0.9-0.1,1.1-0.3c0.2-0.2-0.4-1-0.2-1.3c0.2-0.2,0.8,0,1-0.2c0.2-0.2-0.1-1.1,0.1-1.2
			c0.2-0.2,0.6-0.2,0.9-0.3c0.3-0.1,0.7,0.1,1,0c0.3-0.1,0.7,0.3,1,0.3c0.3-0.1,0.5-0.2,0.8-0.3c0.3-0.1,0.4-1.3,0.7-1.3
			c0.3,0,0.6,0.6,0.9,0.6c0.3,0,0.6,0.1,0.9,0.1c0.3,0,0.6,0,0.9,0.1c0.3,0.1,0.7-0.3,1-0.2c0.3,0.1,0.3,0.9,0.5,1
			c0.3,0.1,0.5,0.3,0.7,0.4c0.3,0.1,0.9-0.4,1.2-0.2c0.2,0.2,0,1,0.2,1.2c0.2,0.2,0.2,0.5,0.4,0.7c0.2,0.2,1-0.1,1.2,0.1
			c0.2,0.2-0.5,1-0.3,1.2c0.1,0.3,1.7-0.2,1.9,0.1c0.1,0.3,0,0.7,0.1,1c0.1,0.3-0.3,0.7-0.2,1c0.1,0.3-0.2,0.6-0.2,0.9
			C82,68.7,81.8,69,81.8,69.3z"/>
	</g>
	<g>
		<path class="st5" d="M72.6,75.2c-0.3-0.1-0.8,0.6-1.1,0.5c-0.3-0.1-0.3-0.9-0.6-1c-0.3-0.1-1,0.4-1.2,0.2
			c-0.3-0.2-0.1-0.9-0.4-1.1c-0.2-0.2-0.9-0.1-1.1-0.3c-0.2-0.2,0.4-1,0.2-1.3c-0.2-0.3-1.1-0.2-1.3-0.4c-0.1-0.3,0.9-0.9,0.8-1.2
			c-0.1-0.3-0.7-0.5-0.7-0.8c0-0.3-0.1-0.6,0-0.9c0-0.3-0.1-0.6,0-0.9c0.1-0.3,0-0.7,0.1-1c0.1-0.3,1.1-0.2,1.3-0.4
			c0.1-0.3-0.6-1.1-0.4-1.3c0.2-0.3,0.5-0.4,0.8-0.6c0.2-0.2,0.9,0,1.1-0.2c0.2-0.2,0.2-0.9,0.4-1c0.3-0.2,0.8,0.2,1.1,0.1
			c0.3-0.1,0.5-0.3,0.8-0.3c0.3-0.1,0.5-1,0.8-1c0.3,0,0.6,1.1,1,1.1c0.3,0,0.7-1,1-1c0.3,0.1,0.5,0.7,0.8,0.8
			c0.3,0.1,0.5,0.3,0.8,0.4c0.3,0.1,0.7,0.1,0.9,0.3c0.3,0.2,0.1,0.8,0.3,1c0.2,0.2,0.9,0,1.1,0.2c0.2,0.2-0.3,0.9-0.1,1.2
			c0.2,0.3,0.5,0.4,0.6,0.7c0.1,0.3,0.9,0.4,1,0.7c0.1,0.3-0.5,0.7-0.5,1c0,0.3,0.7,0.6,0.7,0.9c0,0.3-0.3,0.6-0.3,1
			c-0.1,0.3-0.4,0.6-0.5,0.9c-0.1,0.3-0.3,0.6-0.4,0.8c-0.1,0.3-0.8,0.2-1,0.5c-0.2,0.3,0.2,0.9,0,1.1c-0.2,0.2-0.7,0.1-1,0.3
			c-0.2,0.2-0.1,0.9-0.4,1.1c-0.3,0.2-0.7,0.2-0.9,0.3c-0.3,0.1-0.7-0.1-1,0c-0.3,0.1-0.6-0.3-0.9-0.3c-0.3,0-0.5,0.1-0.8,0.1
			C73.2,75.2,72.9,75.3,72.6,75.2z"/>
	</g>
	<g>
		<path class="st6" d="M69.5,69.7c0-0.3-0.6-0.6-0.6-0.9c0-0.3,0.6-0.5,0.7-0.8c0.1-0.3-0.3-0.8-0.2-1.1c0.1-0.3,0.7-0.3,0.9-0.5
			c0.2-0.2,0.1-0.7,0.4-0.9c0.2-0.2,0.8,0.1,1.1,0c0.3-0.1,0.3-0.9,0.6-1c0.3-0.1,0.7,0.7,1,0.6c0.3,0,0.6-0.5,0.9-0.4
			c0.3,0,0.6,0.1,0.9,0.2c0.3,0.1,0.6,0.1,0.9,0.3c0.3,0.1,0.6,0.2,0.8,0.4c0.2,0.2-0.1,0.9,0.1,1.1c0.2,0.2,1,0,1.1,0.3
			c0.1,0.3,0.2,0.6,0.3,0.9c0.1,0.3-0.3,0.7-0.2,1c0,0.3,0.5,0.6,0.4,0.9c0,0.3-0.5,0.5-0.6,0.8c-0.1,0.3-0.1,0.6-0.3,0.8
			c-0.1,0.3,0.2,0.9,0,1.1c-0.2,0.2-1-0.1-1.2,0.1c-0.2,0.2-0.1,1-0.3,1.1c-0.3,0.1-0.7-0.1-1,0c-0.3,0.1-0.6,0.1-0.9,0.1
			c-0.3,0-0.6,0.2-0.9,0.2c-0.3,0-0.5-0.5-0.8-0.5c-0.3-0.1-0.7,0.3-1,0.1c-0.3-0.1-0.2-0.7-0.4-0.9c-0.2-0.2-0.5-0.2-0.7-0.5
			c-0.2-0.2-0.8-0.2-1-0.5c-0.1-0.3,0.2-0.7,0.1-1C69.4,70.3,69.5,70,69.5,69.7z"/>
	</g>
</g>
<g>
	<g>
		<path class="st4" d="M80.9,23c0,0.3,0.8,0.7,0.8,1c0,0.3-0.8,0.5-0.9,0.8c-0.1,0.3,0.6,0.9,0.5,1.2c-0.1,0.3-0.8,0.3-1,0.6
			c-0.2,0.3,0.1,0.9-0.1,1.1c-0.2,0.2-1.1-0.2-1.3,0c-0.2,0.2,0.1,1.2-0.2,1.3c-0.3,0.2-1.1-0.7-1.4-0.6c-0.3,0.1-0.3,0.8-0.6,0.9
			c-0.3,0.1-0.6,0.2-0.9,0.2c-0.3,0-0.6,0.2-0.9,0.2c-0.3,0-0.7,0.1-1,0.1c-0.3,0-0.4-1.1-0.7-1.2c-0.3-0.1-1,0.8-1.2,0.7
			c-0.3-0.1-0.5-0.5-0.8-0.6c-0.3-0.2-0.1-0.9-0.4-1.1c-0.2-0.2-0.9,0-1.1-0.2c-0.2-0.2,0.1-0.8-0.1-1.1c-0.2-0.3-0.4-0.5-0.5-0.7
			c-0.1-0.3-1.1-0.3-1.2-0.6c-0.1-0.3,1-0.9,0.9-1.2c0-0.3-1.2-0.5-1.2-0.9c0-0.3,0.6-0.6,0.7-0.9c0-0.3,0.2-0.6,0.3-0.9
			c0.1-0.3,0-0.7,0.1-1c0.1-0.3,0.8-0.3,0.9-0.5c0.2-0.3-0.2-0.9,0-1.2c0.2-0.2,1,0.1,1.2-0.1c0.2-0.2,0.3-0.6,0.6-0.7
			c0.3-0.2,0.2-1,0.5-1.1c0.3-0.1,0.8,0.4,1.1,0.3c0.3-0.1,0.5-0.8,0.8-0.9c0.3,0,0.7,0.1,1,0.1c0.3,0,0.6,0.3,0.9,0.3
			c0.3,0,0.6,0.2,0.9,0.3c0.3,0.1,0.4,0.7,0.6,0.9c0.3,0.1,0.9-0.4,1.1-0.2c0.3,0.2,0.2,0.7,0.5,0.9c0.2,0.2,0.9,0,1.1,0.2
			c0.2,0.2,0.3,0.6,0.5,0.9c0.2,0.3,0,0.7,0.2,1c0.1,0.3-0.2,0.7-0.1,1c0.1,0.3,0.2,0.5,0.2,0.8C80.7,22.5,80.9,22.7,80.9,23z"/>
	</g>
	<g>
		<path class="st5" d="M73.8,27.6c-0.3-0.1-0.7,0.5-1,0.4c-0.3-0.1-0.3-0.7-0.5-0.9c-0.2-0.1-0.9,0.2-1.1,0c-0.2-0.2-0.1-0.7-0.3-1
			c-0.2-0.2-0.7-0.3-0.9-0.5c-0.1-0.3,0.3-0.8,0.3-1.1c-0.1-0.3-0.9-0.4-0.9-0.7c0-0.3,0.8-0.6,0.8-0.9c0-0.3-0.4-0.6-0.4-0.9
			c0.1-0.3,0.1-0.6,0.2-0.8c0.1-0.3,0.1-0.6,0.3-0.8c0.1-0.2,0.2-0.6,0.4-0.8c0.2-0.2,0.9,0.1,1.1,0c0.2-0.2,0-1,0.2-1.2
			c0.3-0.1,0.6-0.2,0.9-0.3c0.3-0.1,0.7,0.3,0.9,0.3c0.3,0,0.5-0.5,0.8-0.5c0.3,0,0.5,0.5,0.8,0.5c0.3,0.1,0.5,0.1,0.8,0.2
			c0.3,0.1,0.9-0.4,1.1-0.2c0.2,0.1,0,1,0.2,1.2c0.2,0.2,1-0.2,1.2,0.1c0.2,0.2,0,0.8,0.1,1c0.1,0.3,0.2,0.5,0.3,0.8
			c0.1,0.3,0.4,0.5,0.4,0.8c0,0.3-0.3,0.6-0.4,0.9c0,0.3,0.5,0.6,0.4,0.9c-0.1,0.3-0.7,0.4-0.8,0.7c-0.1,0.3-0.1,0.6-0.2,0.8
			c-0.1,0.2,0.1,0.8,0,1.1c-0.2,0.2-0.8,0.1-1,0.3c-0.2,0.2-0.2,0.8-0.5,0.9c-0.3,0.1-0.6,0.1-0.9,0.2c-0.3,0.1-0.6,0-0.9,0
			c-0.3,0-0.6,0-0.9,0C74.3,28,74,27.7,73.8,27.6z"/>
	</g>
	<g>
		<path class="st6" d="M71.4,23.4c0-0.3-0.5-0.6-0.4-0.9c0-0.3,0.5-0.5,0.6-0.8c0.1-0.3-0.1-0.8,0.1-1c0.2-0.2,0.7-0.2,0.9-0.4
			c0.2-0.2,0.4-0.6,0.7-0.7c0.3-0.1,0.7,0.3,1,0.2c0.3,0,0.6-0.5,0.9-0.5c0.3,0,0.4,0.7,0.7,0.9c0.3,0.1,0.7,0,0.9,0.2
			c0.2,0.2,0.5,0.4,0.6,0.7c0.2,0.2,0.4,0.5,0.5,0.8c0.1,0.3,0.3,0.6,0.3,0.9c0,0.3-0.5,0.6-0.5,0.9c0,0.3,0.4,0.8,0.3,1
			c-0.1,0.3-0.4,0.5-0.6,0.8c-0.2,0.2-0.6,0.2-0.9,0.4c-0.2,0.2-0.4,0.6-0.6,0.7c-0.3,0.1-0.6-0.1-1-0.1c-0.3,0-0.6,0.1-0.9,0
			c-0.3,0-0.8,0.3-1,0.2c-0.3-0.1-0.2-0.8-0.5-1c-0.2-0.2-0.9,0-1.1-0.3c-0.2-0.2-0.1-0.7-0.2-1C71.3,24,71.4,23.7,71.4,23.4z"/>
	</g>
</g>
</svg>
