<svg xmlns="http://www.w3.org/2000/svg" viewBox="0 0 180 50"><defs><style>.cls-1{isolation:isolate;}.cls-2{fill:#ffa100;}.cls-3{fill:#fcf2e6;}.cls-4{fill:#fff;opacity:0.38;}.cls-5{fill:#dedede;}.cls-6{fill:#ff6900;}.cls-7{fill:#a6a6a6;}.cls-8{fill:#c2c2b8;mix-blend-mode:multiply;}</style></defs><g class="cls-1"><g id="Capa_1" data-name="Capa 1"><path class="cls-2" d="M180,27.34c0,1.21-3.34,2.2-7.46,2.2H7.46c-4.12,0-7.46-1-7.46-2.2V13.25C0,12,3.34,11,7.46,11H172.54c4.12,0,7.46,1,7.46,2.21Z"/><path class="cls-3" d="M10.73,12.51,5,28.07H.88a.74.74,0,0,1-.74-.73V21l3.14-8.53Z"/><path class="cls-3" d="M79.45,12.51,73.72,28.07H66.8a.79.79,0,0,1-.47-.17L72,12.51Z"/><path class="cls-3" d="M68.21,12.51,62.48,28.07H55.56a.79.79,0,0,1-.47-.17l5.66-15.39Z"/><path class="cls-3" d="M57,12.51,51.24,28.07H44.32a.75.75,0,0,1-.47-.17l5.66-15.39Z"/><path class="cls-3" d="M45.72,12.51,40,28.07H33.08a.75.75,0,0,1-.47-.17l5.66-15.39Z"/><path class="cls-3" d="M34.48,12.51,28.75,28.07H21.83a.79.79,0,0,1-.47-.17L27,12.51Z"/><path class="cls-3" d="M23.24,12.51,17.51,28.07H10.59a.79.79,0,0,1-.47-.17l5.66-15.39Z"/><path class="cls-3" d="M90.69,12.51,85,28.07H78.05a.75.75,0,0,1-.47-.17l5.66-15.39Z"/><path class="cls-3" d="M101.93,12.51,96.21,28.07H89.29a.77.77,0,0,1-.47-.17l5.66-15.39Z"/><path class="cls-3" d="M113.18,12.51l-5.73,15.56h-6.92a.79.79,0,0,1-.47-.17l5.66-15.39Z"/><path class="cls-3" d="M124.42,12.51l-5.73,15.56h-6.91a.8.8,0,0,1-.48-.17L117,12.51Z"/><path class="cls-3" d="M135.66,12.51l-5.72,15.56H123a.75.75,0,0,1-.47-.17l5.66-15.39Z"/><path class="cls-3" d="M146.9,12.51l-5.72,15.56h-6.92a.77.77,0,0,1-.47-.17l5.66-15.39Z"/><path class="cls-3" d="M158.15,12.51l-5.73,15.56H145.5a.79.79,0,0,1-.47-.17l5.66-15.39Z"/><path class="cls-3" d="M169.39,12.51l-5.73,15.56h-6.91a.75.75,0,0,1-.47-.17l5.65-15.39Z"/><path class="cls-3" d="M179.37,13.24v6.14l-3.2,8.69h-6.92a.79.79,0,0,1-.47-.17l5.66-15.39h4.19A.74.74,0,0,1,179.37,13.24Z"/><path class="cls-4" d="M177.64,13.25v2.44H3.17V13.25c0-.41,1.15-.74,2.55-.74H175.08C176.51,12.51,177.64,12.84,177.64,13.25Z"/><path class="cls-5" d="M18.36,4.1A4.1,4.1,0,1,1,14.26,0,4.1,4.1,0,0,1,18.36,4.1Z"/><path class="cls-6" d="M16.71,4.1a2.45,2.45,0,1,1-2.45-2.45A2.45,2.45,0,0,1,16.71,4.1Z"/><rect class="cls-5" x="12.54" y="7.52" width="3.45" height="3.52"/><path class="cls-5" d="M167.41,4.1a4.1,4.1,0,1,1-4.1-4.1A4.1,4.1,0,0,1,167.41,4.1Z"/><path class="cls-6" d="M165.76,4.1a2.45,2.45,0,1,1-2.45-2.45A2.45,2.45,0,0,1,165.76,4.1Z"/><rect class="cls-5" x="161.59" y="7.52" width="3.45" height="3.52"/><rect class="cls-5" x="12.54" y="29.54" width="3.45" height="20.46"/><rect class="cls-5" x="162.06" y="29.54" width="3.45" height="20.46"/><rect class="cls-7" x="0.14" y="46.2" width="179.86" height="3.8"/><rect class="cls-5" x="15.98" y="36.55" width="146.07" height="2.11"/><rect class="cls-8" x="12.54" y="29.54" width="3.45" height="2.94"/><rect class="cls-8" x="162.06" y="29.54" width="3.45" height="2.94"/></g></g></svg>